SplineFontDB: 3.0
FontName: Galdeano-Regular
FullName: Galdeano
FamilyName: Galdeano
Weight: Regular
Copyright: Copyright (c) 2011, Dario Manuel Muhafara (http://www.tipo.net.ar), with Reserved Font Name "Galdeano".
Version: 001.001
ItalicAngle: 0
UnderlinePosition: -50
UnderlineWidth: 50
Ascent: 800
Descent: 200
sfntRevision: 0x00010000
LayerCount: 2
Layer: 0 1 "Back"  1
Layer: 1 1 "Fore"  0
XUID: [1021 288 713564382 14440754]
FSType: 0
OS2Version: 2
OS2_WeightWidthSlopeOnly: 0
OS2_UseTypoMetrics: 1
CreationTime: 1322385894
ModificationTime: 1322414723
PfmFamily: 17
TTFWeight: 400
TTFWidth: 5
LineGap: 0
VLineGap: 0
Panose: 2 0 5 6 7 0 0 2 0 4
OS2TypoAscent: 20
OS2TypoAOffset: 1
OS2TypoDescent: -30
OS2TypoDOffset: 1
OS2TypoLinegap: 0
OS2WinAscent: 0
OS2WinAOffset: 1
OS2WinDescent: 0
OS2WinDOffset: 1
HheadAscent: 0
HheadAOffset: 1
HheadDescent: 0
HheadDOffset: 1
OS2SubXSize: 700
OS2SubYSize: 650
OS2SubXOff: 0
OS2SubYOff: 140
OS2SupXSize: 700
OS2SupYSize: 650
OS2SupXOff: 0
OS2SupYOff: 477
OS2StrikeYSize: 50
OS2StrikeYPos: 250
OS2Vendor: 'pyrs'
OS2CodePages: 20000001.00000000
OS2UnicodeRanges: 8000002f.4000204a.00000000.00000000
Lookup: 258 0 0 "'kern' Horizontal Kerning in Latin lookup 0"  {"'kern' Horizontal Kerning in Latin lookup 0 subtable"  } ['kern' ('DFLT' <'dflt' > 'latn' <'dflt' > ) ]
MarkAttachClasses: 1
DEI: 91125
TtTable: prep
PUSHW_1
 511
SCANCTRL
PUSHB_1
 4
SCANTYPE
EndTTInstrs
LangName: 1033 "" "" "" "DarioManuelMuhafara: Galdeano: 2011" "Galdeano-Regular" "Version 1.000" "" "Galdeano is a trademark of Dario Manuel Muhafara." "Dario Manuel Muhafara" "Dario Manuel Muhafara" "" "http://www.tipo.net.ar" "http://www.tipo.net.ar" "This Font Software is licensed under the SIL Open Font License,+AA0A-Version 1.1. This license is available with a FAQ at:+AA0A-http://scripts.sil.org/OFL" "http://scripts.sil.org/OFL" 
GaspTable: 1 65535 15
Encoding: UnicodeBmp
UnicodeInterp: none
NameList: Adobe Glyph List
DisplaySize: -36
AntiAlias: 1
FitToEm: 1

StartChar: A
Encoding: 65 65 1
Width: 551
Flags: MW
HStem: -1 21G<10 10 10 111> 0 21G<424 541 424 424> 151 70<175 371 175 394 147 371> 589 20G<321 321>
LayerCount: 2
Fore
SplineSet
10 -1 m 1,0,-1
 223 534 l 1,1,-1
 242 603 l 1,2,-1
 321 609 l 1,3,-1
 541 0 l 1,4,-1
 424 0 l 1,5,-1
 394 151 l 1,6,-1
 147 151 l 1,7,-1
 111 -1 l 1,8,-1
 10 -1 l 1,0,-1
276 507 m 1,9,-1
 175 221 l 1,10,-1
 371 221 l 1,11,-1
 276 507 l 1,9,-1
EndSplineSet
EndChar

StartChar: B
Encoding: 66 66 2
Width: 547
Flags: MW
HStem: -15 61<254 282.5 254 318.5> 278 58<182 228 182 260 182 228> 560 60<242 287>
VStem: 98 88 363 92<431.5 487> 405 50 405 92<143 202>
LayerCount: 2
Fore
SplineSet
84 0 m 1,0,-1
 98 198 l 1,1,-1
 98 467 l 1,2,-1
 80 599 l 1,3,-1
 89 600 l 1,4,5
 198 620 198 620 264 620 c 0,6,7
 455 620 455 620 455 462 c 0,8,9
 455 368 455 368 383 322 c 1,10,11
 497 286 497 286 497 169 c 0,12,13
 497 85 497 85 427.5 35 c 128,-1,14
 358 -15 358 -15 240 -15 c 0,15,16
 152 -15 152 -15 84 0 c 1,0,-1
193 52 m 1,17,18
 229 46 229 46 267 46 c 0,19,20
 316 46 316 46 370 62 c 1,21,22
 405 102 405 102 405 162 c 128,-1,23
 405 222 405 222 370 250 c 128,-1,24
 335 278 335 278 260 278 c 2,25,-1
 182 278 l 1,26,-1
 182 197 l 1,27,-1
 191 66 l 1,28,-1
 193 52 l 1,17,18
182 407 m 1,29,-1
 182 336 l 1,30,-1
 228 336 l 1,31,32
 363 337 363 337 363 452 c 0,33,34
 363 560 363 560 250 560 c 0,35,36
 224 560 224 560 192 555 c 1,37,-1
 182 407 l 1,29,-1
EndSplineSet
EndChar

StartChar: C
Encoding: 67 67 3
Width: 593
Flags: MW
HStem: -15 66<291 376.5 291 383> 551 69<298.5 384>
VStem: 55 101<226.5 391>
LayerCount: 2
Fore
SplineSet
55 292 m 0,0,1
 55 441 55 441 144 530.5 c 128,-1,2
 233 620 233 620 381 620 c 0,3,4
 457 620 457 620 538 590 c 1,5,-1
 506 485 l 1,6,-1
 384 551 l 1,7,8
 256 551 256 551 206 497 c 128,-1,9
 156 443 156 443 156 304 c 0,10,11
 156 188 156 188 208.5 119.5 c 128,-1,12
 261 51 261 51 351 51 c 0,13,14
 429 51 429 51 511 119 c 1,15,-1
 543 32 l 1,16,17
 453 -15 453 -15 346 -15 c 0,18,19
 210 -15 210 -15 132.5 67 c 128,-1,20
 55 149 55 149 55 292 c 0,0,1
EndSplineSet
EndChar

StartChar: Ccedilla
Encoding: 199 199 4
Width: 593
Flags: MW
HStem: -224 59<287 311.5 287 324> -89 140<291 296> -15 66<342 346 342 342> 551 69<298.5 384>
VStem: 55 101<226.5 391> 343 59<-143.5 -115>
LayerCount: 2
Fore
SplineSet
55 292 m 0,0,1
 55 441 55 441 144 530.5 c 128,-1,2
 233 620 233 620 381 620 c 0,3,4
 457 620 457 620 538 590 c 1,5,-1
 506 485 l 1,6,-1
 384 551 l 1,7,8
 256 551 256 551 206 497 c 128,-1,9
 156 443 156 443 156 304 c 0,10,11
 156 188 156 188 208.5 119.5 c 128,-1,12
 261 51 261 51 351 51 c 0,13,14
 429 51 429 51 511 119 c 1,15,-1
 543 32 l 1,16,17
 453 -15 453 -15 346 -15 c 2,18,-1
 342 -15 l 1,19,-1
 320 -59 l 1,20,21
 402 -68 402 -68 402 -132 c 0,22,23
 402 -176 402 -176 372 -200 c 128,-1,24
 342 -224 342 -224 287 -224 c 0,25,26
 240 -224 240 -224 204 -210 c 1,27,-1
 235 -154 l 1,28,29
 264 -165 264 -165 295 -165 c 0,30,31
 343 -165 343 -165 343 -132 c 0,32,33
 343 -106 343 -106 327 -97.5 c 128,-1,34
 311 -89 311 -89 265 -89 c 1,35,-1
 305 -13 l 1,36,37
 187 -1 187 -1 121 79.5 c 128,-1,38
 55 160 55 160 55 292 c 0,0,1
EndSplineSet
EndChar

StartChar: D
Encoding: 68 68 5
Width: 650
Flags: MW
HStem: -15 66<267 310 267 350.5> 554 66<260 350.5>
VStem: 98 84<198 407 197 467 197 467> 494 101<264 393>
LayerCount: 2
Fore
SplineSet
84 0 m 1,0,-1
 98 198 l 1,1,-1
 98 467 l 1,2,-1
 80 599 l 1,3,4
 185 620 185 620 279 620 c 0,5,6
 440 620 440 620 517.5 546.5 c 128,-1,7
 595 473 595 473 595 320 c 128,-1,8
 595 167 595 167 499.5 76 c 128,-1,9
 404 -15 404 -15 243 -15 c 0,10,11
 164 -15 164 -15 84 0 c 1,0,-1
191 64 m 1,12,13
 231 51 231 51 283 51 c 0,14,15
 366 51 366 51 441 86 c 1,16,17
 465 120 465 120 479.5 181 c 128,-1,18
 494 242 494 242 494 307 c 0,19,20
 494 436 494 436 441.5 495 c 128,-1,21
 389 554 389 554 274 554 c 0,22,23
 234 554 234 554 192 546 c 1,24,-1
 182 407 l 1,25,-1
 182 197 l 1,26,-1
 191 64 l 1,12,13
EndSplineSet
EndChar

StartChar: E
Encoding: 69 69 6
Width: 478
Flags: MW
HStem: -6 21G<80 80 418 418> 0 70<192 309 192 192> 279 65<178 274 178 361 178 274> 535 70<187 298 187 187>
VStem: 94 88
LayerCount: 2
Fore
SplineSet
178 407 m 1,0,-1
 178 344 l 1,1,-1
 274 344 l 1,2,-1
 369 354 l 1,3,-1
 361 279 l 1,4,-1
 178 279 l 1,5,-1
 178 197 l 1,6,-1
 187 70 l 1,7,-1
 319 70 l 1,8,-1
 428 82 l 1,9,-1
 418 -6 l 1,10,-1
 309 0 l 1,11,-1
 192 0 l 1,12,-1
 80 -6 l 1,13,-1
 94 198 l 1,14,-1
 94 408 l 1,15,-1
 80 605 l 1,16,-1
 419 605 l 1,17,-1
 410 523 l 1,18,-1
 298 535 l 1,19,-1
 187 535 l 1,20,-1
 178 407 l 1,0,-1
EndSplineSet
EndChar

StartChar: F
Encoding: 70 70 7
Width: 439
Flags: MW
HStem: 0 21G<80 192 80 80> 267 65<178 274 178 361 178 274> 535 70<187 187 187 298>
VStem: 94 91
LayerCount: 2
Fore
SplineSet
187 535 m 1,0,-1
 178 407 l 1,1,-1
 178 332 l 1,2,-1
 274 332 l 1,3,-1
 369 342 l 1,4,-1
 361 267 l 1,5,-1
 178 267 l 1,6,-1
 178 197 l 1,7,-1
 192 0 l 1,8,-1
 80 0 l 1,9,-1
 94 198 l 1,10,-1
 94 408 l 1,11,-1
 80 605 l 1,12,-1
 419 605 l 1,13,-1
 410 523 l 1,14,-1
 298 535 l 1,15,-1
 187 535 l 1,0,-1
EndSplineSet
EndChar

StartChar: G
Encoding: 71 71 8
Width: 630
Flags: MW
HStem: -15 66<284.5 344.5 362 362.5> -14 21G<364.5 365> 550 69<298 383>
VStem: 55 101<226.5 391> 471 87
LayerCount: 2
Fore
SplineSet
55 292 m 0,0,1
 55 440 55 440 144 529.5 c 128,-1,2
 233 619 233 619 381 619 c 0,3,4
 462 619 462 619 548 589 c 1,5,-1
 516 484 l 1,6,-1
 383 550 l 1,7,8
 256 550 256 550 206 496 c 128,-1,9
 156 442 156 442 156 304 c 0,10,11
 156 188 156 188 206 119.5 c 128,-1,12
 256 51 256 51 341 51 c 0,13,14
 411 51 411 51 473 88 c 1,15,-1
 469 203 l 1,16,-1
 453 264 l 1,17,-1
 565 270 l 1,18,-1
 552 33 l 1,19,20
 468 -13 468 -13 362 -15 c 1,21,-1
 363 -14.5 l 2,22,23
 364 -14 364 -14 365 -14 c 1,24,25
 358 -15 358 -15 338 -15 c 0,26,27
 205 -15 205 -15 130 66.5 c 128,-1,28
 55 148 55 148 55 292 c 0,0,1
EndSplineSet
EndChar

StartChar: H
Encoding: 72 72 9
Width: 664
Flags: MW
HStem: 0 21G<80 80 80 192 472 472 472 584> 283 70<178 486 178 486> 585 20G<80 192 192 192 472 584 584 584>
VStem: 94 91 479 91
LayerCount: 2
Fore
SplineSet
80 0 m 1,0,-1
 94 198 l 1,1,-1
 94 408 l 1,2,-1
 80 605 l 1,3,-1
 192 605 l 1,4,-1
 178 407 l 1,5,-1
 178 353 l 1,6,-1
 486 353 l 1,7,-1
 486 408 l 1,8,-1
 472 605 l 1,9,-1
 584 605 l 1,10,-1
 570 407 l 1,11,-1
 570 197 l 1,12,-1
 584 0 l 1,13,-1
 472 0 l 1,14,-1
 486 198 l 1,15,-1
 486 283 l 1,16,-1
 178 283 l 1,17,-1
 178 197 l 1,18,-1
 192 0 l 1,19,-1
 80 0 l 1,0,-1
EndSplineSet
EndChar

StartChar: I
Encoding: 73 73 10
Width: 282
Flags: MW
HStem: 0 21G<85 85 85 197> 585 20G<85 197 197 197>
VStem: 99 84<198 407 197 408 197 408>
LayerCount: 2
Fore
SplineSet
85 0 m 1,0,-1
 99 198 l 1,1,-1
 99 408 l 1,2,-1
 85 605 l 1,3,-1
 197 605 l 1,4,-1
 183 407 l 1,5,-1
 183 197 l 1,6,-1
 197 0 l 1,7,-1
 85 0 l 1,0,-1
EndSplineSet
EndChar

StartChar: J
Encoding: 74 74 11
Width: 272
Flags: MW
HStem: -175 21G<8 8> 585 20G<90 202 202 202>
VStem: 97 91
LayerCount: 2
Fore
SplineSet
99 12 m 1,0,1
 101 69 101 69 102.5 168 c 128,-1,2
 104 267 104 267 104 337.5 c 2,3,-1
 104 408 l 1,4,-1
 90 605 l 1,5,-1
 202 605 l 1,6,-1
 188 407 l 1,7,-1
 188 106 l 2,8,9
 188 7 188 7 151 -50.5 c 128,-1,10
 114 -108 114 -108 8 -175 c 1,11,-1
 -25 -88 l 1,12,13
 17 -69 17 -69 52.5 -40 c 128,-1,14
 88 -11 88 -11 99 12 c 1,0,1
EndSplineSet
EndChar

StartChar: K
Encoding: 75 75 12
Width: 555
Flags: MW
HStem: -8 21G<425 425> 0 21G<80 80 80 192> 585 20G<80 192 192 192 408 530 530 530>
VStem: 94 84<198 407 197 408 197 408>
LayerCount: 2
Fore
SplineSet
375 96 m 1,0,-1
 211 307 l 1,1,-1
 211 317 l 1,2,-1
 359 494 l 1,3,-1
 408 605 l 1,4,-1
 530 605 l 1,5,-1
 530 597 l 1,6,-1
 299 333 l 1,7,-1
 475 102 l 1,8,-1
 560 9 l 1,9,-1
 560 -1 l 1,10,-1
 425 -8 l 1,11,-1
 375 96 l 1,0,-1
80 0 m 1,12,-1
 94 198 l 1,13,-1
 94 408 l 1,14,-1
 80 605 l 1,15,-1
 192 605 l 1,16,-1
 178 407 l 1,17,-1
 178 197 l 1,18,-1
 192 0 l 1,19,-1
 80 0 l 1,12,-1
EndSplineSet
EndChar

StartChar: L
Encoding: 76 76 13
Width: 400
Flags: MW
HStem: -6 21G<80 80 393 393> -3 73 0 21G<189 284 189 189> 585 20G<80 192 192 192>
VStem: 94 84<198 407 197 408 197 408>
LayerCount: 2
Fore
SplineSet
80 -6 m 1,0,-1
 94 198 l 1,1,-1
 94 408 l 1,2,-1
 80 605 l 1,3,-1
 192 605 l 1,4,-1
 178 407 l 1,5,-1
 178 197 l 1,6,-1
 187 70 l 1,7,-1
 294 70 l 1,8,-1
 403 82 l 1,9,-1
 393 -6 l 1,10,-1
 284 0 l 1,11,-1
 189 0 l 1,12,-1
 80 -6 l 1,0,-1
EndSplineSet
EndChar

StartChar: M
Encoding: 77 77 14
Width: 742
Flags: MW
HStem: 0 21G<64 163 64 64 572 678 572 572> 587 20G<650 650>
VStem: 93 68 568 80
LayerCount: 2
Fore
SplineSet
572 0 m 1,0,-1
 576 198 l 1,1,-1
 561 452 l 1,2,-1
 392 70 l 1,3,-1
 364 67 l 1,4,-1
 167 452 l 1,5,-1
 156 197 l 1,6,-1
 163 0 l 1,7,-1
 64 0 l 1,8,-1
 88 198 l 1,9,-1
 99 408 l 1,10,-1
 92 602 l 1,11,-1
 196 606 l 1,12,-1
 214 540 l 1,13,-1
 382 193 l 1,14,-1
 533 555 l 1,15,-1
 544 603 l 1,16,-1
 650 607 l 1,17,-1
 643 407 l 1,18,-1
 654 197 l 1,19,-1
 678 0 l 1,20,-1
 572 0 l 1,0,-1
EndSplineSet
EndChar

StartChar: N
Encoding: 78 78 15
Width: 656
Flags: MW
HStem: -3 21G<500 500> 0 21G<80 180 80 80 576 576> 585 20G<476 576 576 576> 587 20G<174 174>
VStem: 94 72<198 408 408 408> 490 79
LayerCount: 2
Fore
SplineSet
500 -3 m 1,0,-1
 472 62 l 1,1,-1
 166 446 l 1,2,-1
 166 197 l 1,3,-1
 180 0 l 1,4,-1
 80 0 l 1,5,-1
 94 198 l 1,6,-1
 94 408 l 1,7,-1
 80 603 l 1,8,-1
 174 607 l 1,9,-1
 202 540 l 1,10,-1
 490 178 l 1,11,-1
 490 408 l 1,12,-1
 476 605 l 1,13,-1
 576 605 l 1,14,-1
 562 407 l 1,15,-1
 562 221 l 1,16,-1
 576 0 l 1,17,-1
 500 -3 l 1,0,-1
EndSplineSet
EndChar

StartChar: O
Encoding: 79 79 16
Width: 688
Flags: MW
HStem: -15 66<294 376 294 424.5> 554 66<309 393.5>
VStem: 55 101<219 344.5 219 393.5> 532 101<258.5 386.5>
LayerCount: 2
Fore
SplineSet
55 293 m 0,0,1
 55 444 55 444 136 532 c 128,-1,2
 217 620 217 620 354 620 c 0,3,4
 485 620 485 620 559 538 c 128,-1,5
 633 456 633 456 633 311 c 0,6,7
 633 162 633 162 551.5 73.5 c 128,-1,8
 470 -15 470 -15 333 -15 c 0,9,10
 203 -15 203 -15 129 67.5 c 128,-1,11
 55 150 55 150 55 293 c 0,0,1
156 297 m 0,12,13
 156 180 156 180 209 115.5 c 128,-1,14
 262 51 262 51 358 51 c 0,15,16
 415 51 415 51 469 74 c 1,17,18
 495 100 495 100 513.5 167.5 c 128,-1,19
 532 235 532 235 532 306 c 0,20,21
 532 427 532 427 479.5 490.5 c 128,-1,22
 427 554 427 554 327 554 c 0,23,24
 270 554 270 554 219 531 c 1,25,26
 193 506 193 506 174.5 437 c 128,-1,27
 156 368 156 368 156 297 c 0,12,13
EndSplineSet
EndChar

StartChar: P
Encoding: 80 80 17
Width: 521
Flags: MW
HStem: 0 21G<84 196 84 84> 247 42 560 60<244.5 289.5>
VStem: 98 84<198 407 197 467 197 467> 378 98<377 465.5>
LayerCount: 2
Fore
SplineSet
218 250 m 1,0,-1
 215 289 l 1,1,2
 302 289 302 289 340 319 c 128,-1,3
 378 349 378 349 378 419 c 0,4,5
 378 560 378 560 246 560 c 0,6,7
 225 560 225 560 192 555 c 1,8,-1
 182 407 l 1,9,-1
 182 197 l 1,10,-1
 196 0 l 1,11,-1
 84 0 l 1,12,-1
 98 198 l 1,13,-1
 98 467 l 1,14,-1
 80 599 l 1,15,16
 204 620 204 620 267 620 c 0,17,18
 476 620 476 620 476 429 c 0,19,20
 476 351 476 351 434.5 303.5 c 128,-1,21
 393 256 393 256 316 245 c 1,22,-1
 218 250 l 1,0,-1
EndSplineSet
EndChar

StartChar: Q
Encoding: 81 81 18
Width: 688
Flags: MW
HStem: -148 21G<570 570> -15 66<294 353.5> 554 66<309 393.5>
VStem: 55 101<219 344.5 219 393.5> 532 101<258.5 386.5>
LayerCount: 2
Fore
SplineSet
156 297 m 0,0,1
 156 180 156 180 209 115.5 c 128,-1,2
 262 51 262 51 358 51 c 0,3,4
 415 51 415 51 469 74 c 1,5,6
 495 100 495 100 513.5 167.5 c 128,-1,7
 532 235 532 235 532 306 c 0,8,9
 532 427 532 427 479.5 490.5 c 128,-1,10
 427 554 427 554 327 554 c 0,11,12
 270 554 270 554 219 531 c 1,13,14
 193 506 193 506 174.5 437 c 128,-1,15
 156 368 156 368 156 297 c 0,0,1
55 293 m 0,16,17
 55 444 55 444 136 532 c 128,-1,18
 217 620 217 620 354 620 c 0,19,20
 485 620 485 620 559 538 c 128,-1,21
 633 456 633 456 633 311 c 0,22,23
 633 219 633 219 600.5 147.5 c 128,-1,24
 568 76 568 76 507 35 c 1,25,-1
 630 -73 l 1,26,-1
 684 -108 l 1,27,-1
 685 -128 l 1,28,-1
 570 -148 l 1,29,-1
 542 -102 l 1,30,-1
 449 5 l 1,31,32
 394 -15 394 -15 333 -15 c 0,33,34
 203 -15 203 -15 129 67.5 c 128,-1,35
 55 150 55 150 55 293 c 0,16,17
EndSplineSet
EndChar

StartChar: R
Encoding: 82 82 19
Width: 544
Flags: MW
HStem: -8 21G<399 399> 0 21G<84 196 84 84> 560 60<243 285>
VStem: 98 84<198 407 197 467 197 467> 370 98<385.5 468.5>
LayerCount: 2
Fore
SplineSet
217 272 m 1,0,-1
 217 297 l 1,1,2
 300 297 300 297 335 326 c 128,-1,3
 370 355 370 355 370 423 c 0,4,5
 370 560 370 560 243 560 c 0,6,7
 225 560 225 560 192 555 c 1,8,-1
 182 407 l 1,9,-1
 182 197 l 1,10,-1
 196 0 l 1,11,-1
 84 0 l 1,12,-1
 98 198 l 1,13,-1
 98 467 l 1,14,-1
 80 599 l 1,15,16
 198 620 198 620 265 620 c 0,17,18
 468 620 468 620 468 433 c 0,19,20
 468 362 468 362 433 316.5 c 128,-1,21
 398 271 398 271 332 256 c 1,22,-1
 449 102 l 1,23,-1
 534 9 l 1,24,-1
 534 -1 l 1,25,-1
 399 -8 l 1,26,-1
 349 96 l 1,27,-1
 217 272 l 1,0,-1
EndSplineSet
EndChar

StartChar: S
Encoding: 83 83 20
Width: 502
Flags: MW
HStem: -15 67<233 278.5 233 284.5> 551 66<231.5 269.5>
VStem: 61 83<410.5 500> 366 81<118 209>
LayerCount: 2
Fore
SplineSet
55 17 m 1,0,-1
 89 118 l 1,1,2
 147 80 147 80 183.5 66 c 128,-1,3
 220 52 220 52 259 52 c 0,4,5
 325 52 325 52 363 92 c 1,6,7
 366 107 366 107 366 123 c 0,8,9
 366 170 366 170 334.5 202 c 128,-1,10
 303 234 303 234 258.5 253 c 128,-1,11
 214 272 214 272 169 293 c 128,-1,12
 124 314 124 314 92.5 353 c 128,-1,13
 61 392 61 392 61 450 c 0,14,15
 61 525 61 525 123.5 571 c 128,-1,16
 186 617 186 617 288 617 c 0,17,18
 359 617 359 617 421 589 c 1,19,-1
 392 495 l 1,20,21
 308 551 308 551 248 551 c 0,22,23
 199 551 199 551 144 517 c 1,24,25
 144 458 144 458 175 420.5 c 128,-1,26
 206 383 206 383 251 363 c 128,-1,27
 296 343 296 343 340.5 323 c 128,-1,28
 385 303 385 303 416 265.5 c 128,-1,29
 447 228 447 228 447 169 c 0,30,31
 447 89 447 89 382.5 37 c 128,-1,32
 318 -15 318 -15 218 -15 c 0,33,34
 136 -15 136 -15 55 17 c 1,0,-1
EndSplineSet
EndChar

StartChar: T
Encoding: 84 84 21
Width: 480
Flags: MW
HStem: 0 21G<186 298 186 186> 532 73 597 20G<479 479>
VStem: 200 84<198 407 197 408 197 408>
LayerCount: 2
Fore
SplineSet
20 529 m 1,0,-1
 25 605 l 1,1,-1
 370 605 l 1,2,-1
 479 617 l 1,3,-1
 469 529 l 1,4,-1
 358 535 l 1,5,-1
 293 535 l 1,6,-1
 284 407 l 1,7,-1
 284 197 l 1,8,-1
 298 0 l 1,9,-1
 186 0 l 1,10,-1
 200 198 l 1,11,-1
 200 408 l 1,12,-1
 190 535 l 1,13,-1
 130 535 l 1,14,-1
 20 529 l 1,0,-1
EndSplineSet
EndChar

StartChar: U
Encoding: 85 85 22
Width: 631
Flags: MW
HStem: -15 75<268 371.5 268 385.5> 585 20G<70 191 191 191 456 561 561 561>
VStem: 84 94<263 300 300 407> 462 85
LayerCount: 2
Fore
SplineSet
84 263 m 2,0,-1
 84 408 l 1,1,-1
 70 605 l 1,2,-1
 191 605 l 1,3,-1
 178 407 l 1,4,-1
 178 300 l 2,5,6
 178 171 178 171 210.5 115.5 c 128,-1,7
 243 60 243 60 318 60 c 0,8,9
 398 60 398 60 433.5 109 c 128,-1,10
 469 158 469 158 469 268 c 2,11,-1
 469 407 l 1,12,-1
 456 605 l 1,13,-1
 561 605 l 1,14,-1
 547 408 l 1,15,-1
 547 275 l 2,16,17
 547 -15 547 -15 304 -15 c 0,18,19
 84 -15 84 -15 84 263 c 2,0,-1
EndSplineSet
EndChar

StartChar: V
Encoding: 86 86 23
Width: 548
Flags: MW
HStem: -5 21G<233 233> 585 20G<417 538 538 538> 591 20G<136 136>
LayerCount: 2
Fore
SplineSet
233 -5 m 1,0,-1
 20 602 l 1,1,-1
 136 611 l 1,2,-1
 152 484 l 1,3,-1
 274 100 l 1,4,-1
 405 480 l 1,5,-1
 417 605 l 1,6,-1
 538 605 l 1,7,-1
 309 1 l 1,8,-1
 233 -5 l 1,0,-1
EndSplineSet
EndChar

StartChar: W
Encoding: 87 87 24
Width: 843
Flags: MW
HStem: -5 21G<233 233 533 533> 585 20G<708 829 829 829> 591 20G<144 144 459 459>
LayerCount: 2
Fore
SplineSet
233 -5 m 1,0,-1
 30 602 l 1,1,-1
 144 611 l 1,2,-1
 160 484 l 1,3,-1
 269 112 l 1,4,-1
 382 486 l 1,5,-1
 345 602 l 1,6,-1
 459 611 l 1,7,-1
 475 484 l 1,8,-1
 574 113 l 1,9,-1
 696 480 l 1,10,-1
 708 605 l 1,11,-1
 829 605 l 1,12,-1
 604 1 l 1,13,-1
 533 -5 l 1,14,-1
 421 355 l 1,15,-1
 294 1 l 1,16,-1
 233 -5 l 1,0,-1
EndSplineSet
EndChar

StartChar: X
Encoding: 88 88 25
Width: 544
Flags: MW
HStem: -8 21G<397 397> 0 21G<25 25 25 147> 585 20G<393 515 515 515> 592 20G<170 170>
LayerCount: 2
Fore
SplineSet
25 0 m 1,0,-1
 25 8 l 1,1,-1
 227 310 l 1,2,-1
 133 468 l 1,3,-1
 33 593 l 1,4,-1
 33 602 l 1,5,-1
 170 612 l 1,6,-1
 224 489 l 1,7,-1
 283 388 l 1,8,-1
 347 494 l 1,9,-1
 393 605 l 1,10,-1
 515 605 l 1,11,-1
 515 597 l 1,12,-1
 323 322 l 1,13,-1
 434 136 l 1,14,-1
 534 11 l 1,15,-1
 534 2 l 1,16,-1
 397 -8 l 1,17,-1
 345 112 l 1,18,-1
 265 245 l 1,19,-1
 193 111 l 1,20,-1
 147 0 l 1,21,-1
 25 0 l 1,0,-1
EndSplineSet
EndChar

StartChar: Y
Encoding: 89 89 26
Width: 495
Flags: MW
HStem: 0 21G<203 203 203 315> 585 20G<372 490 490 490> 592 20G<147 147>
VStem: 210 98
LayerCount: 2
Fore
SplineSet
203 0 m 1,0,-1
 217 198 l 1,1,-1
 217 242 l 1,2,-1
 15 603 l 1,3,-1
 147 612 l 1,4,-1
 171 514 l 1,5,-1
 262 330 l 1,6,-1
 348 505 l 1,7,-1
 372 605 l 1,8,-1
 490 605 l 1,9,-1
 301 262 l 1,10,-1
 301 197 l 1,11,-1
 315 0 l 1,12,-1
 203 0 l 1,0,-1
EndSplineSet
EndChar

StartChar: Z
Encoding: 90 90 27
Width: 496
Flags: MW
HStem: -8 21G<31 31> 0 70<138 324 138 465 99 324> 536 69<162 349 162 162> 594 20G<454 454>
LayerCount: 2
Fore
SplineSet
31 -8 m 1,0,-1
 20 38 l 1,1,-1
 349 536 l 1,2,-1
 162 536 l 1,3,-1
 40 500 l 1,4,-1
 28 605 l 1,5,-1
 380 605 l 1,6,-1
 454 614 l 1,7,-1
 465 567 l 1,8,-1
 138 70 l 1,9,-1
 324 70 l 1,10,-1
 453 110 l 1,11,-1
 465 0 l 1,12,-1
 99 0 l 1,13,-1
 31 -8 l 1,0,-1
EndSplineSet
EndChar

StartChar: a
Encoding: 97 97 28
Width: 454
Flags: MW
HStem: -15 62<178 189> 395 60<209 246.5>
VStem: 40 85<96 123.5 96 153> 295 84<112 204 204 204 261 297 112 311.5>
LayerCount: 2
Fore
SplineSet
40 110 m 0,0,1
 40 174 40 174 89 203 c 128,-1,2
 138 232 138 232 295 261 c 1,3,4
 295 337 295 337 278 366 c 128,-1,5
 261 395 261 395 217 395 c 0,6,7
 193 395 193 395 179 393 c 1,8,-1
 95 319 l 1,9,-1
 50 394 l 1,10,11
 127 455 127 455 222 455 c 0,12,13
 379 455 379 455 379 297 c 2,14,-1
 379 112 l 1,15,-1
 397 -1 l 1,16,-1
 304 -15 l 1,17,-1
 300 35 l 1,18,19
 238 -15 238 -15 166 -15 c 0,20,21
 109 -15 109 -15 74.5 19.5 c 128,-1,22
 40 54 40 54 40 110 c 0,0,1
125 118 m 0,23,24
 125 85 125 85 145.5 66 c 128,-1,25
 166 47 166 47 202 47 c 0,26,27
 253 47 253 47 295 78 c 1,28,-1
 295 204 l 1,29,30
 199 190 199 190 132 161 c 1,31,32
 125 134 125 134 125 118 c 0,23,24
EndSplineSet
EndChar

StartChar: acute
Encoding: 180 180 29
Width: 430
Flags: MW
HStem: 502 21G<145 145> 649 20G<261 261>
LayerCount: 2
Fore
SplineSet
145 502 m 1,0,-1
 122 534 l 1,1,-1
 261 669 l 1,2,-1
 320 604 l 1,3,-1
 145 502 l 1,0,-1
EndSplineSet
EndChar

StartChar: ampersand
Encoding: 38 38 30
Width: 582
Flags: MW
HStem: -22 21G<456 456> -15 61<209 264> 564 56<223.5 257>
VStem: 32 87<119.5 182 119.5 186.5> 64 83<451.5 492 451.5 515> 314 81<446.5 511.5>
LayerCount: 2
Fore
SplineSet
398 316 m 1,0,-1
 493 320 l 1,1,2
 493 193 493 193 451 112 c 1,3,-1
 490 74 l 1,4,-1
 577 13 l 1,5,-1
 577 3 l 1,6,-1
 456 -22 l 1,7,-1
 399 44 l 1,8,9
 335 -15 335 -15 227 -15 c 0,10,11
 139 -15 139 -15 85.5 25.5 c 128,-1,12
 32 66 32 66 32 148 c 0,13,14
 32 201 32 201 60 236.5 c 128,-1,15
 88 272 88 272 138 303 c 1,16,17
 89 356 89 356 76.5 388 c 128,-1,18
 64 420 64 420 64 471 c 0,19,20
 64 537 64 537 114 578.5 c 128,-1,21
 164 620 164 620 244 620 c 0,22,23
 311 620 311 620 353 584.5 c 128,-1,24
 395 549 395 549 395 484 c 0,25,26
 395 424 395 424 359 384 c 128,-1,27
 323 344 323 344 257 303 c 1,28,-1
 402 160 l 1,29,30
 409 195 409 195 409 220 c 1,31,-1
 398 316 l 1,0,-1
360 84 m 1,32,33
 355 89 355 89 287 155.5 c 128,-1,34
 219 222 219 222 184 256 c 1,35,36
 119 209 119 209 119 163 c 0,37,38
 119 46 119 46 245 46 c 0,39,40
 319 46 319 46 360 84 c 1,32,33
314 478 m 0,41,42
 314 525 314 525 293 544.5 c 128,-1,43
 272 564 272 564 233 564 c 0,44,45
 203 564 203 564 171 555 c 1,46,47
 147 525 147 525 147 479 c 0,48,49
 147 441 147 441 163.5 410.5 c 128,-1,50
 180 380 180 380 213 346 c 1,51,52
 262 375 262 375 288 405 c 128,-1,53
 314 435 314 435 314 478 c 0,41,42
EndSplineSet
EndChar

StartChar: b
Encoding: 98 98 31
Width: 492
Flags: MW
HStem: -15 61<214.5 243 214.5 279.5> 385 69<267.5 291.5> 660 20G<176 176>
VStem: 80 82<205 361 407 482> 350 92<178.5 273>
LayerCount: 2
Fore
SplineSet
66 7 m 1,0,-1
 80 205 l 1,1,-1
 80 567 l 1,2,-1
 65 670 l 1,3,-1
 176 680 l 1,4,-1
 162 482 l 1,5,-1
 162 407 l 1,6,7
 220 454 220 454 290 454 c 128,-1,8
 360 454 360 454 401 397.5 c 128,-1,9
 442 341 442 341 442 245 c 0,10,11
 442 126 442 126 378.5 55.5 c 128,-1,12
 315 -15 315 -15 208 -15 c 0,13,14
 135 -15 135 -15 66 7 c 1,0,-1
162 57 m 1,15,16
 184 46 184 46 229 46 c 0,17,18
 272 46 272 46 313 56 c 1,19,20
 350 101 350 101 350 215 c 0,21,22
 350 385 350 385 261 385 c 0,23,24
 213 385 213 385 162 361 c 1,25,-1
 162 57 l 1,15,16
EndSplineSet
EndChar

StartChar: c
Encoding: 99 99 32
Width: 428
Flags: MW
HStem: -15 61<216 268 216 274.5> 434 20G<208 297>
VStem: 50 92<164.5 277 164.5 282>
LayerCount: 2
Fore
SplineSet
50 209 m 0,0,1
 50 318 50 318 112 386 c 128,-1,2
 174 454 174 454 275 454 c 0,3,4
 346 454 346 454 392 431 c 1,5,-1
 365 345 l 1,6,-1
 241 394 l 1,7,8
 188 388 188 388 165 347 c 128,-1,9
 142 306 142 306 142 219 c 0,10,11
 142 137 142 137 170.5 91.5 c 128,-1,12
 199 46 199 46 250 46 c 0,13,14
 308 46 308 46 371 97 c 1,15,-1
 398 23 l 1,16,17
 327 -15 327 -15 250 -15 c 0,18,19
 160 -15 160 -15 105 46.5 c 128,-1,20
 50 108 50 108 50 209 c 0,0,1
EndSplineSet
EndChar

StartChar: ccedilla
Encoding: 231 231 33
Width: 428
Flags: MW
HStem: -224 59<204 228.5 204 241> -89 135<182 268> -15 61<259 259> 434 20G<208 297>
VStem: 50 92<164.5 277 164.5 282> 260 59<-143.5 -115>
LayerCount: 2
Fore
SplineSet
50 209 m 0,0,1
 50 318 50 318 112 386 c 128,-1,2
 174 454 174 454 275 454 c 0,3,4
 346 454 346 454 392 431 c 1,5,-1
 365 345 l 1,6,-1
 241 394 l 1,7,8
 188 388 188 388 165 347 c 128,-1,9
 142 306 142 306 142 219 c 0,10,11
 142 137 142 137 170.5 91.5 c 128,-1,12
 199 46 199 46 250 46 c 0,13,14
 308 46 308 46 371 97 c 1,15,-1
 398 23 l 1,16,17
 331 -12 331 -12 259 -15 c 1,18,-1
 237 -59 l 1,19,20
 319 -68 319 -68 319 -132 c 0,21,22
 319 -176 319 -176 289 -200 c 128,-1,23
 259 -224 259 -224 204 -224 c 0,24,25
 157 -224 157 -224 121 -210 c 1,26,-1
 152 -154 l 1,27,28
 181 -165 181 -165 212 -165 c 0,29,30
 260 -165 260 -165 260 -132 c 0,31,32
 260 -106 260 -106 244 -97.5 c 128,-1,33
 228 -89 228 -89 182 -89 c 1,34,-1
 222 -13 l 1,35,36
 143 -3 143 -3 96.5 56.5 c 128,-1,37
 50 116 50 116 50 209 c 0,0,1
EndSplineSet
EndChar

StartChar: colon
Encoding: 58 58 34
Width: 220
Flags: MW
HStem: -16 21G 386 20G
LayerCount: 2
Fore
SplineSet
40 336 m 1,0,1
 69 377 69 377 110 406 c 1,2,3
 153 376 153 376 180 336 c 1,4,5
 151 293 151 293 110 266 c 1,6,7
 69 293 69 293 40 336 c 1,0,1
40 54 m 1,8,9
 69 95 69 95 110 124 c 1,10,11
 153 94 153 94 180 54 c 1,12,13
 151 11 151 11 110 -16 c 1,14,15
 69 11 69 11 40 54 c 1,8,9
EndSplineSet
EndChar

StartChar: comma
Encoding: 44 44 35
Width: 226
Flags: MW
HStem: -154 21G<78 78> 104 20G
LayerCount: 2
Fore
SplineSet
35 54 m 1,0,1
 64 95 64 95 105 124 c 1,2,3
 150 93 150 93 176 54 c 1,4,5
 153 -45 153 -45 78 -154 c 1,6,-1
 44 -130 l 1,7,8
 74 -65 74 -65 86 -2 c 1,9,10
 57 20 57 20 35 54 c 1,0,1
EndSplineSet
EndChar

StartChar: d
Encoding: 100 100 36
Width: 494
Flags: MW
HStem: -15 69<200.5 224.5> 393 61<247 273> 660 20G<425 425>
VStem: 50 92<167 262.5 167 271.5> 330 84<112 382 382 382>
LayerCount: 2
Fore
SplineSet
202 -15 m 0,0,1
 132 -15 132 -15 91 41 c 128,-1,2
 50 97 50 97 50 193 c 0,3,4
 50 311 50 311 112.5 382.5 c 128,-1,5
 175 454 175 454 278 454 c 0,6,7
 307 454 307 454 332 450 c 1,8,-1
 332 565 l 1,9,-1
 317 670 l 1,10,-1
 425 680 l 1,11,-1
 414 482 l 1,12,-1
 414 112 l 1,13,-1
 432 -1 l 1,14,-1
 339 -15 l 1,15,-1
 335 35 l 1,16,17
 271 -15 271 -15 202 -15 c 0,0,1
231 54 m 0,18,19
 277 54 277 54 330 78 c 1,20,-1
 330 382 l 1,21,22
 297 393 297 393 260 393 c 128,-1,23
 223 393 223 393 180 383 c 1,24,25
 142 332 142 332 142 225 c 0,26,27
 142 54 142 54 231 54 c 0,18,19
EndSplineSet
EndChar

StartChar: dieresis
Encoding: 168 168 37
Width: 430
Flags: MW
HStem: 525 21G 627 20G
LayerCount: 2
Fore
SplineSet
25 586 m 1,0,1
 51 624 51 624 86 647 c 1,2,3
 117 624 117 624 144 586 c 1,4,5
 117 547 117 547 86 525 c 1,6,7
 49 549 49 549 25 586 c 1,0,1
206 586 m 1,8,9
 233 626 233 626 264 647 c 1,10,11
 300 622 300 622 325 586 c 1,12,13
 302 551 302 551 264 525 c 1,14,15
 231 547 231 547 206 586 c 1,8,9
EndSplineSet
EndChar

StartChar: dotaccent
Encoding: 729 729 38
Width: 430
Flags: MW
HStem: 536 21G 650 20G
LayerCount: 2
Fore
SplineSet
62 603 m 1,0,1
 93 646 93 646 129 670 c 1,2,3
 168 641 168 641 196 603 c 1,4,5
 167 561 167 561 129 536 c 1,6,7
 90 561 90 561 62 603 c 1,0,1
EndSplineSet
EndChar

StartChar: dotlessi
Encoding: 305 305 39
Width: 229
Flags: MW
HStem: 0 21G<58 58 58 160> 431 20G<160 160>
VStem: 65 89
LayerCount: 2
Fore
SplineSet
58 0 m 1,0,-1
 72 198 l 1,1,-1
 72 338 l 1,2,-1
 57 441 l 1,3,-1
 160 451 l 1,4,-1
 149 255 l 1,5,-1
 149 197 l 1,6,-1
 160 0 l 1,7,-1
 58 0 l 1,0,-1
EndSplineSet
EndChar

StartChar: e
Encoding: 101 101 40
Width: 467
Flags: MW
HStem: -15 61<219 277.5 219 288.5> 228 52 393 61<227.5 271.5>
VStem: 50 92<167.5 224 167.5 280> 326 91<284 347.5>
LayerCount: 2
Fore
SplineSet
50 208 m 0,0,1
 50 316 50 316 108 385 c 128,-1,2
 166 454 166 454 257 454 c 0,3,4
 333 454 333 454 375 413 c 128,-1,5
 417 372 417 372 417 298 c 0,6,7
 417 271 417 271 412 233 c 1,8,-1
 142 224 l 1,9,10
 142 139 142 139 171.5 92.5 c 128,-1,11
 201 46 201 46 255 46 c 0,12,13
 326 46 326 46 386 97 c 1,14,-1
 413 23 l 1,15,16
 345 -15 345 -15 261 -15 c 0,17,18
 164 -15 164 -15 107 45 c 128,-1,19
 50 105 50 105 50 208 c 0,0,1
144 276 m 1,20,-1
 326 284 l 1,21,22
 325 345 325 345 306 369 c 128,-1,23
 287 393 287 393 240 393 c 0,24,25
 201 393 201 393 177 384 c 1,26,27
 152 357 152 357 144 276 c 1,20,-1
EndSplineSet
EndChar

StartChar: eight
Encoding: 56 56 41
Width: 516
Flags: MW
HStem: -17 65<225.5 281 225.5 310.5> 593 64<230.5 280>
VStem: 51 87<132.5 194.5 132.5 195> 72 81<480 517.5 480 548.5> 361 81<478.5 529> 374 90<145.5 189.5>
LayerCount: 2
Fore
SplineSet
153 507 m 0,0,1
 153 466 153 466 177.5 435.5 c 128,-1,2
 202 405 202 405 256 377 c 1,3,4
 311 408 311 408 336 437.5 c 128,-1,5
 361 467 361 467 361 502 c 0,6,7
 361 542 361 542 329 567.5 c 128,-1,8
 297 593 297 593 246 593 c 0,9,10
 196 593 196 593 164 573 c 1,11,12
 153 537 153 537 153 507 c 0,0,1
138 168 m 0,13,14
 138 115 138 115 172.5 81.5 c 128,-1,15
 207 48 207 48 262 48 c 0,16,17
 315 48 315 48 352 71 c 1,18,19
 374 115 374 115 374 159 c 0,20,21
 374 205 374 205 347.5 238 c 128,-1,22
 321 271 321 271 258 305 c 1,23,24
 201 279 201 279 169.5 243.5 c 128,-1,25
 138 208 138 208 138 168 c 0,13,14
51 155 m 0,26,27
 51 215 51 215 81.5 255.5 c 128,-1,28
 112 296 112 296 191 341 c 1,29,30
 127 376 127 376 99.5 414 c 128,-1,31
 72 452 72 452 72 504 c 0,32,33
 72 571 72 571 126.5 614 c 128,-1,34
 181 657 181 657 265 657 c 0,35,36
 338 657 338 657 390 613 c 128,-1,37
 442 569 442 569 442 508 c 0,38,39
 442 415 442 415 327 342 c 1,40,41
 464 273 464 273 464 166 c 0,42,43
 464 87 464 87 403 35 c 128,-1,44
 342 -17 342 -17 248 -17 c 0,45,46
 164 -17 164 -17 107.5 32.5 c 128,-1,47
 51 82 51 82 51 155 c 0,26,27
EndSplineSet
EndChar

StartChar: ellipsis
Encoding: 8230 8230 42
Width: 681
Flags: MW
HStem: -16 21G 104 20G
LayerCount: 2
Fore
SplineSet
40 54 m 1,0,1
 69 95 69 95 110 124 c 1,2,3
 153 94 153 94 180 54 c 1,4,5
 151 11 151 11 110 -16 c 1,6,7
 69 11 69 11 40 54 c 1,0,1
270 54 m 1,8,9
 299 95 299 95 340 124 c 1,10,11
 383 94 383 94 410 54 c 1,12,13
 381 11 381 11 340 -16 c 1,14,15
 299 11 299 11 270 54 c 1,8,9
501 54 m 1,16,17
 530 95 530 95 571 124 c 1,18,19
 614 94 614 94 641 54 c 1,20,21
 612 11 612 11 571 -16 c 1,22,23
 530 11 530 11 501 54 c 1,16,17
EndSplineSet
EndChar

StartChar: emdash
Encoding: 8212 8212 43
Width: 650
Flags: MW
HStem: 207 69<20 630 24 626>
LayerCount: 2
Fore
SplineSet
20 207 m 1,0,-1
 24 276 l 1,1,-1
 630 276 l 1,2,-1
 626 207 l 1,3,-1
 20 207 l 1,0,-1
EndSplineSet
EndChar

StartChar: endash
Encoding: 8211 8211 44
Width: 438
Flags: MW
HStem: 207 69<40 398 44 394>
LayerCount: 2
Fore
SplineSet
40 207 m 1,0,-1
 44 276 l 1,1,-1
 398 276 l 1,2,-1
 394 207 l 1,3,-1
 40 207 l 1,0,-1
EndSplineSet
EndChar

StartChar: f
Encoding: 102 102 45
Width: 312
Flags: MW
HStem: 0 21G<88 195 88 88> 381 58 668 20G<230.5 302.5>
VStem: 95 94
LayerCount: 2
Fore
SplineSet
13 371 m 1,0,-1
 10 410 l 1,1,-1
 102 439 l 1,2,-1
 102 457 l 2,3,4
 102 564 102 564 152 626 c 128,-1,5
 202 688 202 688 288 688 c 0,6,7
 331.5 688 331.5 688 372 673 c 1,8,-1
 348 595 l 1,9,-1
 262 628 l 1,10,11
 219 620 219 620 201.5 585.5 c 128,-1,12
 184 551 184 551 184 474 c 2,13,-1
 184 439 l 1,14,-1
 308 439 l 1,15,-1
 305 386 l 1,16,-1
 184 377 l 1,17,-1
 184 197 l 1,18,-1
 195 0 l 1,19,-1
 88 0 l 1,20,-1
 102 198 l 1,21,-1
 102 371 l 1,22,-1
 13 371 l 1,0,-1
EndSplineSet
EndChar

StartChar: fi
Encoding: 64257 64257 46
Width: 522
Flags: MW
HStem: 0 21G<88 195 88 88 358 460 358 358> 380 59 628 60<298 298>
VStem: 95 94 365 89
LayerCount: 2
Fore
SplineSet
13 371 m 1,0,-1
 10 410 l 1,1,-1
 102 439 l 1,2,-1
 102 457 l 2,3,4
 102 564 102 564 157.5 626 c 128,-1,5
 213 688 213 688 308 688 c 0,6,7
 394 688 394 688 451 642 c 1,8,-1
 409 562 l 1,9,-1
 298 628 l 1,10,11
 234 626 234 626 209 592 c 128,-1,12
 184 558 184 558 184 474 c 2,13,-1
 184 439 l 1,14,-1
 357 439 l 1,15,-1
 460 451 l 1,16,-1
 449 255 l 1,17,-1
 449 197 l 1,18,-1
 460 0 l 1,19,-1
 358 0 l 1,20,-1
 372 198 l 1,21,-1
 372 386 l 1,22,-1
 184 375 l 1,23,-1
 184 197 l 1,24,-1
 195 0 l 1,25,-1
 88 0 l 1,26,-1
 102 198 l 1,27,-1
 102 371 l 1,28,-1
 13 371 l 1,0,-1
EndSplineSet
EndChar

StartChar: five
Encoding: 53 53 47
Width: 516
Flags: MW
HStem: -116 59<76 80> 259 52<173 189 189 225> 475 67<179 278 114 391 179 179> 538 20G<399 399>
VStem: 108 68 333 92<70.5 169.5>
LayerCount: 2
Fore
SplineSet
103 256 m 1,0,-1
 114 542 l 1,1,-1
 278 542 l 1,2,-1
 399 558 l 1,3,-1
 391 475 l 1,4,-1
 179 475 l 1,5,-1
 173 311 l 1,6,-1
 189 311 l 2,7,8
 300 311 300 311 362.5 263.5 c 128,-1,9
 425 216 425 216 425 131 c 0,10,11
 425 21 425 21 332.5 -45 c 128,-1,12
 240 -111 240 -111 80 -116 c 1,13,-1
 76 -57 l 1,14,15
 201 -48 201 -48 267 -2 c 128,-1,16
 333 44 333 44 333 123 c 0,17,18
 333 193 333 193 293 226 c 128,-1,19
 253 259 253 259 169 259 c 0,20,21
 136 259 136 259 103 256 c 1,0,-1
EndSplineSet
EndChar

StartChar: fl
Encoding: 64258 64258 48
Width: 534
Flags: MW
HStem: 0 21G<88 195 88 88 358 465 358 358> 381 58 668 20G<244.5 322>
VStem: 102 87 372 82<198 484 197 614>
LayerCount: 2
Fore
SplineSet
358 0 m 1,0,-1
 372 198 l 1,1,-1
 372 614 l 1,2,-1
 277 628 l 1,3,4
 224 615 224 615 204 582 c 128,-1,5
 184 549 184 549 184 474 c 2,6,-1
 184 439 l 1,7,-1
 308 439 l 1,8,-1
 305 386 l 1,9,-1
 184 377 l 1,10,-1
 184 197 l 1,11,-1
 195 0 l 1,12,-1
 88 0 l 1,13,-1
 102 198 l 1,14,-1
 102 371 l 1,15,-1
 13 371 l 1,16,-1
 10 410 l 1,17,-1
 102 439 l 1,18,-1
 102 457 l 2,19,20
 102 564 102 564 157.5 626 c 128,-1,21
 213 688 213 688 308 688 c 0,22,23
 351 688 351 688 394 673 c 1,24,-1
 465 680 l 1,25,-1
 454 484 l 1,26,-1
 454 197 l 1,27,-1
 465 0 l 1,28,-1
 358 0 l 1,0,-1
EndSplineSet
EndChar

StartChar: four
Encoding: 52 52 49
Width: 516
Flags: MW
HStem: -119 21G<283 283> 93 62<115 299 115 299> 527 20G<340 379 379 379>
VStem: 299 80<60 93 -107 93 157 401 401 401>
LayerCount: 2
Fore
SplineSet
39 93 m 1,0,-1
 32 139 l 1,1,-1
 340 547 l 1,2,-1
 379 547 l 1,3,-1
 379 157 l 1,4,-1
 484 171 l 1,5,-1
 477 93 l 1,6,-1
 379 93 l 1,7,-1
 379 -107 l 1,8,-1
 283 -119 l 1,9,-1
 299 60 l 1,10,-1
 299 93 l 1,11,-1
 39 93 l 1,0,-1
115 155 m 1,12,-1
 299 155 l 1,13,-1
 299 401 l 1,14,-1
 115 155 l 1,12,-1
EndSplineSet
EndChar

StartChar: g
Encoding: 103 103 50
Width: 500
Flags: MW
HStem: -219 56<205.5 284> 145 56<213.5 265 205 282.5> 398 56<219.5 261.5 184 262> 435 20G<470 470>
VStem: 45 81<-107.5 -79.5> 59 87<267 318.5 267 343> 323 85<267 321 256 335> 371 79<-95.5 -67.5>
LayerCount: 2
Fore
SplineSet
78 80 m 0,0,1
 78 97 78 97 87 112.5 c 128,-1,2
 96 128 96 128 127 166 c 1,3,4
 59 203 59 203 59 293 c 0,5,6
 59 368 59 368 107.5 411 c 128,-1,7
 156 454 156 454 240 454 c 0,8,9
 303 454 303 454 341 431 c 1,10,-1
 470 455 l 1,11,-1
 460 381 l 1,12,-1
 389 385 l 1,13,14
 408 351 408 351 408 306 c 0,15,16
 408 231 408 231 359.5 188 c 128,-1,17
 311 145 311 145 226 145 c 0,18,19
 195 145 195 145 168 151 c 1,20,-1
 142 97 l 1,21,22
 161 83 161 83 187.5 76.5 c 128,-1,23
 214 70 214 70 281 63 c 2,24,-1
 358 54 l 1,25,26
 450 42 450 42 450 -44 c 0,27,28
 450 -121 450 -121 384.5 -170 c 128,-1,29
 319 -219 319 -219 215 -219 c 0,30,31
 136 -219 136 -219 90.5 -188 c 128,-1,32
 45 -157 45 -157 45 -103 c 0,33,34
 45 -32 45 -32 124 16 c 1,35,36
 78 40 78 40 78 80 c 0,0,1
126 -80 m 0,37,38
 126 -163 126 -163 245 -163 c 0,39,40
 371 -163 371 -163 371 -76 c 0,41,42
 371 -52 371 -52 365 -35 c 1,43,-1
 159 2 l 1,44,45
 126 -29 126 -29 126 -80 c 0,37,38
235 201 m 0,46,47
 323 201 323 201 323 301 c 0,48,49
 323 352 323 352 300.5 375 c 128,-1,50
 278 398 278 398 229 398 c 0,51,52
 196 398 196 398 167 389 c 1,53,54
 146 364 146 364 146 301 c 0,55,56
 146 201 146 201 235 201 c 0,46,47
EndSplineSet
EndChar

StartChar: h
Encoding: 104 104 51
Width: 506
Flags: MW
HStem: -5 21G<332 332> 0 21G<66 66 66 173 430 430> 385 69<299 313> 660 20G<173 173>
VStem: 80 87 346 84<210 316 0 317 0 341.5>
LayerCount: 2
Fore
SplineSet
66 0 m 1,0,-1
 80 198 l 1,1,-1
 80 567 l 1,2,-1
 65 670 l 1,3,-1
 173 680 l 1,4,-1
 162 484 l 1,5,-1
 162 401 l 1,6,7
 243 454 243 454 325 454 c 0,8,9
 430 454 430 454 430 316 c 2,10,-1
 430 0 l 1,11,-1
 332 -5 l 1,12,-1
 346 210 l 1,13,-1
 346 317 l 2,14,15
 346 354 346 354 334 369.5 c 128,-1,16
 322 385 322 385 294 385 c 0,17,18
 233 385 233 385 162 348 c 1,19,-1
 162 197 l 1,20,-1
 173 0 l 1,21,-1
 66 0 l 1,0,-1
EndSplineSet
EndChar

StartChar: hyphen
Encoding: 45 45 52
Width: 316
Flags: MW
HStem: 205 21G<40 40> 267 20G<276 276>
LayerCount: 2
Fore
SplineSet
40 205 m 1,0,-1
 40 275 l 1,1,-1
 276 287 l 1,2,-1
 276 217 l 1,3,-1
 40 205 l 1,0,-1
EndSplineSet
EndChar

StartChar: i
Encoding: 105 105 53
Width: 229
Flags: MW
HStem: 0 21G<58 58 58 160> 650 20G
VStem: 65 89
LayerCount: 2
Fore
SplineSet
58 0 m 1,0,-1
 72 198 l 1,1,-1
 72 338 l 1,2,-1
 57 441 l 1,3,-1
 160 451 l 1,4,-1
 149 255 l 1,5,-1
 149 197 l 1,6,-1
 160 0 l 1,7,-1
 58 0 l 1,0,-1
44 603 m 1,8,9
 75 646 75 646 111 670 c 1,10,11
 150 641 150 641 178 603 c 1,12,13
 149 561 149 561 111 536 c 1,14,15
 72 561 72 561 44 603 c 1,8,9
EndSplineSet
EndChar

StartChar: j
Encoding: 106 106 54
Width: 256
Flags: MW
HStem: -219 21G<-7 -7> 650 20G
VStem: 89 77<198 255>
LayerCount: 2
Fore
SplineSet
74 -56 m 1,0,1
 89 48 89 48 89 198 c 2,2,-1
 89 338 l 1,3,-1
 74 441 l 1,4,-1
 177 451 l 1,5,-1
 166 255 l 1,6,-1
 166 85 l 2,7,8
 166 -24 166 -24 127.5 -91.5 c 128,-1,9
 89 -159 89 -159 -7 -219 c 1,10,-1
 -40 -132 l 1,11,12
 33 -100 33 -100 74 -56 c 1,0,1
60 603 m 1,13,14
 87 643 87 643 127 670 c 1,15,16
 168 642 168 642 194 603 c 1,17,18
 169 565 169 565 127 536 c 1,19,20
 89 561 89 561 60 603 c 1,13,14
EndSplineSet
EndChar

StartChar: k
Encoding: 107 107 55
Width: 456
Flags: MW
HStem: -3 21G<338 338> 0 21G<66 66 66 173> 419 20G<322 427 427 427> 660 20G<173 173>
VStem: 80 82<198 484 197 567>
LayerCount: 2
Fore
SplineSet
66 0 m 1,0,-1
 80 198 l 1,1,-1
 80 567 l 1,2,-1
 65 670 l 1,3,-1
 173 680 l 1,4,-1
 162 484 l 1,5,-1
 162 197 l 1,6,-1
 173 0 l 1,7,-1
 66 0 l 1,0,-1
180 246 m 1,8,-1
 180 253 l 1,9,-1
 279 360 l 1,10,-1
 322 439 l 1,11,-1
 427 439 l 1,12,-1
 427 431 l 1,13,-1
 270 257 l 1,14,-1
 383 98 l 1,15,-1
 466 12 l 1,16,-1
 466 2 l 1,17,-1
 338 -3 l 1,18,-1
 295 82 l 1,19,-1
 180 246 l 1,8,-1
EndSplineSet
EndChar

StartChar: l
Encoding: 108 108 56
Width: 242
Flags: MW
HStem: 0 21G<66 66 66 173> 660 20G<173 173>
VStem: 80 82<198 484 197 567>
LayerCount: 2
Fore
SplineSet
66 0 m 1,0,-1
 80 198 l 1,1,-1
 80 567 l 1,2,-1
 65 670 l 1,3,-1
 173 680 l 1,4,-1
 162 484 l 1,5,-1
 162 197 l 1,6,-1
 173 0 l 1,7,-1
 66 0 l 1,0,-1
EndSplineSet
EndChar

StartChar: m
Encoding: 109 109 57
Width: 757
Flags: MW
HStem: -5 21G<325 325 584 584> 0 21G<66 66 66 162 423 423 682 682> 385 69<295.5 307 552.5 566>
VStem: 73 89 339 84<212 316 0 317 0 341.5> 598 84<212 316 0 317 0 341.5>
LayerCount: 2
Fore
SplineSet
66 0 m 1,0,-1
 80 198 l 1,1,-1
 80 339 l 1,2,-1
 65 442 l 1,3,-1
 162 452 l 1,4,-1
 162 401 l 1,5,6
 242 454 242 454 321 454 c 0,7,8
 385 454 385 454 410 395 c 1,9,10
 498 454 498 454 580 454 c 0,11,12
 630 454 630 454 656 418.5 c 128,-1,13
 682 383 682 383 682 316 c 2,14,-1
 682 0 l 1,15,-1
 584 -5 l 1,16,-1
 598 212 l 1,17,-1
 598 317 l 2,18,19
 598 354 598 354 586.5 369.5 c 128,-1,20
 575 385 575 385 548 385 c 0,21,22
 487 385 487 385 421 348 c 1,23,24
 421 341 421 341 421.5 334 c 128,-1,25
 422 327 422 327 422.5 323 c 128,-1,26
 423 319 423 319 423 316 c 2,27,-1
 423 0 l 1,28,-1
 325 -5 l 1,29,-1
 339 212 l 1,30,-1
 339 317 l 2,31,32
 339 354 339 354 327.5 369.5 c 128,-1,33
 316 385 316 385 289 385 c 0,34,35
 228 385 228 385 162 348 c 1,36,-1
 162 0 l 1,37,-1
 66 0 l 1,0,-1
EndSplineSet
EndChar

StartChar: n
Encoding: 110 110 58
Width: 505
Flags: MW
HStem: -5 21G<332 332> 0 21G<66 66 66 162 430 430> 385 69<299 313>
VStem: 73 89 346 84<210 316 0 317 0 341.5>
LayerCount: 2
Fore
SplineSet
66 0 m 1,0,-1
 80 198 l 1,1,-1
 80 339 l 1,2,-1
 65 442 l 1,3,-1
 162 452 l 1,4,-1
 162 401 l 1,5,6
 243 454 243 454 325 454 c 0,7,8
 376 454 376 454 403 418.5 c 128,-1,9
 430 383 430 383 430 316 c 2,10,-1
 430 0 l 1,11,-1
 332 -5 l 1,12,-1
 346 210 l 1,13,-1
 346 317 l 2,14,15
 346 354 346 354 334 369.5 c 128,-1,16
 322 385 322 385 294 385 c 0,17,18
 233 385 233 385 162 348 c 1,19,-1
 162 0 l 1,20,-1
 66 0 l 1,0,-1
EndSplineSet
EndChar

StartChar: nine
Encoding: 57 57 59
Width: 516
Flags: MW
HStem: -126 21G<98 98> 153 58<168.5 273> 482 65<232 291>
VStem: 51 90<298.5 368 298.5 391> 374 90<154 338>
LayerCount: 2
Fore
SplineSet
251 547 m 0,0,1
 352 547 352 547 408 475.5 c 128,-1,2
 464 404 464 404 464 276 c 0,3,4
 464 93 464 93 370 -10.5 c 128,-1,5
 276 -114 276 -114 98 -126 c 1,6,-1
 94 -67 l 1,7,8
 243 -52 243 -52 308.5 24.5 c 128,-1,9
 374 101 374 101 374 260 c 0,10,11
 374 377 374 377 343.5 429.5 c 128,-1,12
 313 482 313 482 246 482 c 0,13,14
 201 482 201 482 165 460 c 1,15,16
 141 424 141 424 141 344 c 0,17,18
 141 276 141 276 171.5 243.5 c 128,-1,19
 202 211 202 211 266 211 c 0,20,21
 282 211 282 211 319 216 c 1,22,-1
 324 180 l 1,23,-1
 217 153 l 1,24,25
 144 153 144 153 97.5 202 c 128,-1,26
 51 251 51 251 51 328 c 0,27,28
 51 422 51 422 108 484.5 c 128,-1,29
 165 547 165 547 251 547 c 0,0,1
EndSplineSet
EndChar

StartChar: o
Encoding: 111 111 60
Width: 500
Flags: MW
HStem: -15 61<220 271.5 220 309> 393 61<228 278.5>
VStem: 50 92<164.5 259.5 164.5 284.5> 358 92<178 274.5>
LayerCount: 2
Fore
SplineSet
50 210 m 0,0,1
 50 322 50 322 105 388 c 128,-1,2
 160 454 160 454 252 454 c 0,3,4
 347 454 347 454 398.5 395.5 c 128,-1,5
 450 337 450 337 450 230 c 0,6,7
 450 118 450 118 395 51.5 c 128,-1,8
 340 -15 340 -15 247 -15 c 0,9,10
 153 -15 153 -15 101.5 44 c 128,-1,11
 50 103 50 103 50 210 c 0,0,1
261 46 m 0,12,13
 291 46 291 46 325 56 c 1,14,15
 358 103 358 103 358 212 c 0,16,17
 358 306 358 306 328.5 349.5 c 128,-1,18
 299 393 299 393 237 393 c 0,19,20
 214 393 214 393 175 383 c 1,21,22
 142 337 142 337 142 227 c 0,23,24
 142 133 142 133 170.5 89.5 c 128,-1,25
 199 46 199 46 261 46 c 0,12,13
EndSplineSet
EndChar

StartChar: one
Encoding: 49 49 61
Width: 516
Flags: MW
HStem: 0 69 527 20G<306 327 327 327>
VStem: 250 77<198 452 452 452>
LayerCount: 2
Fore
SplineSet
116 428 m 1,0,-1
 107 471 l 1,1,-1
 306 547 l 1,2,-1
 327 547 l 1,3,-1
 327 60 l 1,4,-1
 433 68 l 1,5,-1
 436 0 l 1,6,-1
 124 0 l 1,7,-1
 126 44 l 1,8,-1
 239 52 l 1,9,-1
 250 198 l 1,10,-1
 250 452 l 1,11,-1
 116 428 l 1,0,-1
EndSplineSet
EndChar

StartChar: p
Encoding: 112 112 62
Width: 497
Flags: MW
HStem: -219 21G<72 72> -15 61<223.5 250 223.5 288> 385 69<272.5 296.5>
VStem: 83 84<-11 -11 57 327 327 327> 355 92<176 272>
LayerCount: 2
Fore
SplineSet
83 -21 m 1,0,-1
 83 327 l 1,1,-1
 65 440 l 1,2,-1
 158 454 l 1,3,-1
 162 404 l 1,4,5
 226 454 226 454 295 454 c 0,6,7
 365 454 365 454 406 398 c 128,-1,8
 447 342 447 342 447 246 c 0,9,10
 447 128 447 128 384.5 56.5 c 128,-1,11
 322 -15 322 -15 219 -15 c 0,12,13
 188 -15 188 -15 167 -11 c 1,14,-1
 177 -209 l 1,15,-1
 72 -219 l 1,16,-1
 83 -21 l 1,0,-1
167 57 m 1,17,18
 198 46 198 46 237 46 c 0,19,20
 280 46 280 46 317 56 c 1,21,22
 355 106 355 106 355 214 c 0,23,24
 355 385 355 385 266 385 c 0,25,26
 218 385 218 385 167 361 c 1,27,-1
 167 57 l 1,17,18
EndSplineSet
EndChar

StartChar: period
Encoding: 46 46 63
Width: 220
Flags: MW
HStem: -16 21G 104 20G
LayerCount: 2
Fore
SplineSet
40 54 m 1,0,1
 69 95 69 95 110 124 c 1,2,3
 153 94 153 94 180 54 c 1,4,5
 151 11 151 11 110 -16 c 1,6,7
 69 11 69 11 40 54 c 1,0,1
EndSplineSet
EndChar

StartChar: q
Encoding: 113 113 64
Width: 495
Flags: MW
HStem: -219 21G<316 316> -15 69<200.5 224> 393 61<249 277>
VStem: 50 92<166 260 166 273.5> 330 82<-21 32 32 32 78 327 -106 382 -106 382>
LayerCount: 2
Fore
SplineSet
231 54 m 0,0,1
 277 54 277 54 330 78 c 1,2,-1
 330 382 l 1,3,4
 303 393 303 393 263 393 c 0,5,6
 219 393 219 393 179 383 c 1,7,8
 142 338 142 338 142 224 c 0,9,10
 142 54 142 54 231 54 c 0,0,1
202 -15 m 0,11,12
 132 -15 132 -15 91 41.5 c 128,-1,13
 50 98 50 98 50 194 c 0,14,15
 50 313 50 313 113.5 383.5 c 128,-1,16
 177 454 177 454 284 454 c 0,17,18
 350 454 350 454 430 440 c 1,19,-1
 412 327 l 1,20,-1
 412 -106 l 1,21,-1
 427 -209 l 1,22,-1
 316 -219 l 1,23,-1
 330 -21 l 1,24,-1
 330 32 l 1,25,26
 270 -15 270 -15 202 -15 c 0,11,12
EndSplineSet
EndChar

StartChar: quotedblbase
Encoding: 8222 8222 65
Width: 406
Flags: MW
HStem: -154 21G<78 78 258 258> 104 20G
LayerCount: 2
Fore
SplineSet
35 54 m 1,0,1
 64 95 64 95 105 124 c 1,2,3
 150 93 150 93 176 54 c 1,4,5
 153 -45 153 -45 78 -154 c 1,6,-1
 44 -130 l 1,7,8
 74 -65 74 -65 86 -2 c 1,9,10
 57 20 57 20 35 54 c 1,0,1
215 54 m 1,11,12
 244 95 244 95 285 124 c 1,13,14
 330 93 330 93 356 54 c 1,15,16
 333 -45 333 -45 258 -154 c 1,17,-1
 224 -130 l 1,18,19
 254 -65 254 -65 266 -2 c 1,20,21
 237 20 237 20 215 54 c 1,11,12
EndSplineSet
EndChar

StartChar: quotedblleft
Encoding: 8220 8220 66
Width: 391
Flags: MW
HStem: 358 21G 616 20G<138 138 318 318>
LayerCount: 2
Fore
SplineSet
181 428 m 1,0,1
 152 387 152 387 111 358 c 1,2,3
 66 389 66 389 40 428 c 1,4,5
 63 527 63 527 138 636 c 1,6,-1
 172 612 l 1,7,8
 142 547 142 547 130 484 c 1,9,10
 159 462 159 462 181 428 c 1,0,1
361 428 m 1,11,12
 332 387 332 387 291 358 c 1,13,14
 246 389 246 389 220 428 c 1,15,16
 243 527 243 527 318 636 c 1,17,-1
 352 612 l 1,18,19
 322 547 322 547 310 484 c 1,20,21
 339 462 339 462 361 428 c 1,11,12
EndSplineSet
EndChar

StartChar: quotedblright
Encoding: 8221 8221 67
Width: 391
Flags: MW
HStem: 353 21G<73 73 253 253> 611 20G
LayerCount: 2
Fore
SplineSet
210 561 m 1,0,1
 239 602 239 602 280 631 c 1,2,3
 325 600 325 600 351 561 c 1,4,5
 328 462 328 462 253 353 c 1,6,-1
 219 377 l 1,7,8
 249 442 249 442 261 505 c 1,9,10
 232 527 232 527 210 561 c 1,0,1
30 561 m 1,11,12
 59 602 59 602 100 631 c 1,13,14
 145 600 145 600 171 561 c 1,15,16
 148 462 148 462 73 353 c 1,17,-1
 39 377 l 1,18,19
 69 442 69 442 81 505 c 1,20,21
 52 527 52 527 30 561 c 1,11,12
EndSplineSet
EndChar

StartChar: quoteleft
Encoding: 8216 8216 68
Width: 211
Flags: MW
HStem: 358 21G 616 20G<138 138>
LayerCount: 2
Fore
SplineSet
181 428 m 1,0,1
 152 387 152 387 111 358 c 1,2,3
 66 389 66 389 40 428 c 1,4,5
 63 527 63 527 138 636 c 1,6,-1
 172 612 l 1,7,8
 142 547 142 547 130 484 c 1,9,10
 159 462 159 462 181 428 c 1,0,1
EndSplineSet
EndChar

StartChar: quoteright
Encoding: 8217 8217 69
Width: 211
Flags: MW
HStem: 353 21G<73 73> 611 20G
LayerCount: 2
Fore
SplineSet
30 561 m 1,0,1
 59 602 59 602 100 631 c 1,2,3
 145 600 145 600 171 561 c 1,4,5
 148 462 148 462 73 353 c 1,6,-1
 39 377 l 1,7,8
 69 442 69 442 81 505 c 1,9,10
 52 527 52 527 30 561 c 1,0,1
EndSplineSet
EndChar

StartChar: quotesinglbase
Encoding: 8218 8218 70
Width: 226
Flags: MW
HStem: -154 21G<78 78> 104 20G
LayerCount: 2
Fore
SplineSet
35 54 m 1,0,1
 64 95 64 95 105 124 c 1,2,3
 150 93 150 93 176 54 c 1,4,5
 153 -45 153 -45 78 -154 c 1,6,-1
 44 -130 l 1,7,8
 74 -65 74 -65 86 -2 c 1,9,10
 57 20 57 20 35 54 c 1,0,1
EndSplineSet
EndChar

StartChar: quotesingle
Encoding: 39 39 71
Width: 204
Flags: MW
HStem: 372 21G<65 65> 613 20G<154 154>
LayerCount: 2
Fore
SplineSet
65 372 m 1,0,-1
 50 625 l 1,1,-1
 154 633 l 1,2,-1
 108 375 l 1,3,-1
 65 372 l 1,0,-1
EndSplineSet
EndChar

StartChar: r
Encoding: 114 114 72
Width: 334
Flags: MW
HStem: 0 21G<66 66 66 168> 434 20G<261 290>
VStem: 73 89
LayerCount: 2
Fore
SplineSet
66 0 m 1,0,-1
 80 198 l 1,1,-1
 80 338 l 1,2,-1
 65 441 l 1,3,-1
 166 451 l 1,4,-1
 162 376 l 1,5,6
 197 418 197 418 224 436 c 128,-1,7
 251 454 251 454 281 454 c 0,8,9
 310 454 310 454 339 441 c 1,10,-1
 312 355 l 1,11,-1
 222 382 l 1,12,13
 185 349 185 349 157 298 c 1,14,-1
 157 197 l 1,15,-1
 168 0 l 1,16,-1
 66 0 l 1,0,-1
EndSplineSet
EndChar

StartChar: s
Encoding: 115 115 73
Width: 390
Flags: MW
HStem: -15 61<173.5 205.5 173.5 215> 393 61<184.5 213.5>
VStem: 53 72<350 361> 269 76<88.5 113.5>
LayerCount: 2
Fore
SplineSet
40 9 m 1,0,-1
 67 96 l 1,1,2
 138 46 138 46 193 46 c 0,3,4
 234 46 234 46 267 69 c 1,5,6
 269 75 269 75 269 93 c 0,7,8
 269 124 269 124 250.5 141.5 c 128,-1,9
 232 159 232 159 157 198 c 0,10,11
 100 227 100 227 76.5 255.5 c 128,-1,12
 53 284 53 284 53 324 c 0,13,14
 53 380 53 380 102.5 417 c 128,-1,15
 152 454 152 454 227 454 c 0,16,17
 285 454 285 454 331 434 c 1,18,-1
 307 356 l 1,19,20
 244 393 244 393 197 393 c 0,21,22
 159 393 159 393 125 373 c 1,23,24
 125 338 125 338 143.5 317 c 128,-1,25
 162 296 162 296 217 268 c 0,26,27
 288 231 288 231 316.5 200 c 128,-1,28
 345 169 345 169 345 129 c 0,29,30
 345 68 345 68 292.5 26.5 c 128,-1,31
 240 -15 240 -15 164 -15 c 0,32,33
 99 -15 99 -15 40 9 c 1,0,-1
EndSplineSet
EndChar

StartChar: semicolon
Encoding: 59 59 74
Width: 226
Flags: MW
HStem: -154 21G<78 78> 386 20G
LayerCount: 2
Fore
SplineSet
35 54 m 1,0,1
 64 95 64 95 105 124 c 1,2,3
 150 93 150 93 176 54 c 1,4,5
 153 -45 153 -45 78 -154 c 1,6,-1
 44 -130 l 1,7,8
 74 -65 74 -65 86 -2 c 1,9,10
 57 20 57 20 35 54 c 1,0,1
35 336 m 1,11,12
 64 377 64 377 105 406 c 1,13,14
 148 376 148 376 175 336 c 1,15,16
 146 293 146 293 105 266 c 1,17,18
 64 293 64 293 35 336 c 1,11,12
EndSplineSet
EndChar

StartChar: seven
Encoding: 55 55 75
Width: 516
Flags: MW
HStem: -125 21G<179 179> 464 83<187 352 187 187>
LayerCount: 2
Fore
SplineSet
66 448 m 1,0,-1
 76 547 l 1,1,-1
 450 547 l 1,2,-1
 455 516 l 1,3,-1
 179 -125 l 1,4,-1
 99 -90 l 1,5,-1
 193 85 l 1,6,-1
 352 464 l 1,7,-1
 187 464 l 1,8,-1
 66 448 l 1,0,-1
EndSplineSet
EndChar

StartChar: six
Encoding: 54 54 76
Width: 516
Flags: MW
HStem: -15 65<225 284 225 322.5> 320 58<242.5 347> 637 20G<418 418>
VStem: 52 90<193 377 193 377> 375 90<163.5 233>
LayerCount: 2
Fore
SplineSet
265 -15 m 0,0,1
 164 -15 164 -15 108 56 c 128,-1,2
 52 127 52 127 52 255 c 0,3,4
 52 438 52 438 146 541 c 128,-1,5
 240 644 240 644 418 657 c 1,6,-1
 422 598 l 1,7,8
 273 582 273 582 207.5 506 c 128,-1,9
 142 430 142 430 142 271 c 0,10,11
 142 154 142 154 172 102 c 128,-1,12
 202 50 202 50 270 50 c 0,13,14
 315 50 315 50 351 72 c 1,15,16
 375 106 375 106 375 188 c 0,17,18
 375 255 375 255 344.5 287.5 c 128,-1,19
 314 320 314 320 250 320 c 0,20,21
 232 320 232 320 197 315 c 1,22,-1
 192 351 l 1,23,-1
 299 378 l 1,24,25
 371 378 371 378 418 329 c 128,-1,26
 465 280 465 280 465 204 c 0,27,28
 465 110 465 110 408 47.5 c 128,-1,29
 351 -15 351 -15 265 -15 c 0,0,1
EndSplineSet
EndChar

StartChar: t
Encoding: 116 116 77
Width: 348
Flags: MW
HStem: -15 64<224.5 239.5> 396 58 548 20G<148 191 191 191>
VStem: 114 80<386 386>
LayerCount: 2
Fore
SplineSet
28 386 m 1,0,-1
 25 425 l 1,1,-1
 115 454 l 1,2,-1
 148 568 l 1,3,-1
 191 568 l 1,4,-1
 197 454 l 1,5,-1
 323 454 l 1,6,-1
 320 401 l 1,7,-1
 194 392 l 1,8,-1
 194 143 l 2,9,10
 194 90 194 90 204.5 69.5 c 128,-1,11
 215 49 215 49 243 49 c 0,12,13
 278 49 278 49 314 59 c 1,14,-1
 305 2 l 1,15,16
 271 -15 271 -15 226 -15 c 0,17,18
 161 -15 161 -15 134.5 15 c 128,-1,19
 108 45 108 45 108 118 c 0,20,21
 108 143 108 143 114 386 c 1,22,-1
 28 386 l 1,0,-1
EndSplineSet
EndChar

StartChar: three
Encoding: 51 51 78
Width: 516
Flags: MW
HStem: -126 58<67 71> 223 37 482 65<204 241>
VStem: 312 88<384.5 429.5> 324 76 324 92<56.5 143 35 145.5>
LayerCount: 2
Fore
SplineSet
71 -126 m 1,0,-1
 67 -68 l 1,1,2
 189 -60 189 -60 256.5 -14 c 128,-1,3
 324 32 324 32 324 106 c 0,4,5
 324 165 324 165 283 191.5 c 128,-1,6
 242 218 242 218 143 223 c 1,7,-1
 138 279 l 1,8,9
 312 305 312 305 312 402 c 0,10,11
 312 482 312 482 204 482 c 1,12,-1
 92 439 l 1,13,-1
 64 516 l 1,14,15
 131 547 131 547 219 547 c 0,16,17
 304 547 304 547 352 513 c 128,-1,18
 400 479 400 479 400 420 c 0,19,20
 400 367 400 367 363 325.5 c 128,-1,21
 326 284 326 284 257 260 c 1,22,23
 329 255 329 255 372.5 210.5 c 128,-1,24
 416 166 416 166 416 98 c 0,25,26
 416 3 416 3 318.5 -60.5 c 128,-1,27
 221 -124 221 -124 71 -126 c 1,0,-1
EndSplineSet
EndChar

StartChar: tilde
Encoding: 732 732 79
Width: 430
Flags: MW
HStem: 523 21G<276 291> 627 20G<139 154>
LayerCount: 2
Fore
SplineSet
339 642 m 1,0,-1
 361 625 l 1,1,2
 320 548 320 548 291 523 c 1,3,4
 268 523 268 523 248 531.5 c 128,-1,5
 228 540 228 540 151 583 c 1,6,-1
 91 528 l 1,7,-1
 69 545 l 1,8,9
 113 623 113 623 139 647 c 1,10,11
 161 647 161 647 183 637.5 c 128,-1,12
 205 628 205 628 279 587 c 1,13,-1
 339 642 l 1,0,-1
EndSplineSet
EndChar

StartChar: two
Encoding: 50 50 80
Width: 516
Flags: MW
HStem: 0 70<168 330 168 443> 482 65<220 257.5>
VStem: 322 94<377.5 419.5>
LayerCount: 2
Fore
SplineSet
79 0 m 1,0,-1
 68 37 l 1,1,2
 243 216 243 216 291 294 c 0,3,4
 322 344 322 344 322 391 c 0,5,6
 322 434 322 434 297 458 c 128,-1,7
 272 482 272 482 228 482 c 0,8,9
 169 482 169 482 107 453 c 1,10,-1
 85 512 l 1,11,12
 157 547 157 547 250 547 c 0,13,14
 327 547 327 547 371.5 508 c 128,-1,15
 416 469 416 469 416 400 c 0,16,17
 416 334 416 334 369 269 c 0,18,19
 327 212 327 212 168 70 c 1,20,-1
 330 70 l 1,21,-1
 451 86 l 1,22,-1
 443 0 l 1,23,-1
 79 0 l 1,0,-1
EndSplineSet
EndChar

StartChar: u
Encoding: 117 117 81
Width: 502
Flags: MW
HStem: -15 69<192 206> 422 20G<173 173 427 427>
VStem: 75 84<123 227> 337 90
LayerCount: 2
Fore
SplineSet
75 123 m 2,0,-1
 75 437 l 1,1,-1
 173 442 l 1,2,-1
 159 227 l 1,3,-1
 159 122 l 2,4,5
 159 85 159 85 171 69.5 c 128,-1,6
 183 54 183 54 211 54 c 0,7,8
 271 54 271 54 343 91 c 1,9,-1
 331 437 l 1,10,-1
 427 442 l 1,11,-1
 427 101 l 1,12,-1
 442 -2 l 1,13,-1
 343 -12 l 1,14,-1
 343 38 l 1,15,16
 262 -15 262 -15 180 -15 c 0,17,18
 129 -15 129 -15 102 20.5 c 128,-1,19
 75 56 75 56 75 123 c 2,0,-1
EndSplineSet
EndChar

StartChar: v
Encoding: 118 118 82
Width: 450
Flags: MW
HStem: -5 21G<174 174> 419 20G<20 20 326 430 430 430> 426 20G<126 126>
LayerCount: 2
Fore
SplineSet
174 -5 m 1,0,-1
 20 439 l 1,1,-1
 126 446 l 1,2,-1
 138 355 l 1,3,-1
 220 86 l 1,4,-1
 315 340 l 1,5,-1
 326 439 l 1,6,-1
 430 439 l 1,7,-1
 252 1 l 1,8,-1
 174 -5 l 1,0,-1
EndSplineSet
EndChar

StartChar: w
Encoding: 119 119 83
Width: 682
Flags: MW
HStem: -5 21G<171 171 413 413> 419 20G<20 20 558 662 662 662> 426 20G<126 126 380 380>
LayerCount: 2
Fore
SplineSet
171 -5 m 1,0,-1
 20 439 l 1,1,-1
 126 446 l 1,2,-1
 138 355 l 1,3,-1
 219 78 l 1,4,-1
 308 339 l 1,5,-1
 277 440 l 1,6,-1
 380 446 l 1,7,-1
 390 355 l 1,8,-1
 458 90 l 1,9,-1
 547 340 l 1,10,-1
 558 439 l 1,11,-1
 662 439 l 1,12,-1
 488 1 l 1,13,-1
 413 -5 l 1,14,-1
 338 239 l 1,15,-1
 251 1 l 1,16,-1
 171 -5 l 1,0,-1
EndSplineSet
EndChar

StartChar: x
Encoding: 120 120 84
Width: 421
Flags: MW
HStem: -5 21G<300 300> 0 21G<15 126 15 15 416 416> 419 20G<290 401 401 401> 426 20G<137 137>
LayerCount: 2
Fore
SplineSet
261 80 m 1,0,-1
 204 168 l 1,1,-1
 153 80 l 1,2,-1
 126 0 l 1,3,-1
 15 0 l 1,4,-1
 15 7 l 1,5,-1
 169 223 l 1,6,-1
 95 341 l 1,7,-1
 22 431 l 1,8,-1
 22 441 l 1,9,-1
 137 446 l 1,10,-1
 178 357 l 1,11,-1
 219 293 l 1,12,-1
 263 359 l 1,13,-1
 290 439 l 1,14,-1
 401 439 l 1,15,-1
 401 432 l 1,16,-1
 254 238 l 1,17,-1
 343 100 l 1,18,-1
 416 10 l 1,19,-1
 416 0 l 1,20,-1
 300 -5 l 1,21,-1
 261 80 l 1,0,-1
EndSplineSet
EndChar

StartChar: y
Encoding: 121 121 85
Width: 426
Flags: MW
HStem: -200 21G<43 43> 419 20G<10 10 317 421 421 421> 426 20G<117 117>
LayerCount: 2
Fore
SplineSet
15 -111 m 1,0,-1
 112 -102 l 1,1,2
 151 -48 151 -48 179 10 c 1,3,-1
 10 439 l 1,4,-1
 117 446 l 1,5,-1
 129 352 l 1,6,-1
 219 104 l 1,7,8
 264 220 264 220 306 340 c 1,9,-1
 317 439 l 1,10,-1
 421 439 l 1,11,-1
 272 59 l 2,12,13
 219 -77 219 -77 167.5 -135 c 128,-1,14
 116 -193 116 -193 43 -200 c 1,15,-1
 15 -111 l 1,0,-1
EndSplineSet
EndChar

StartChar: z
Encoding: 122 122 86
Width: 411
Flags: MW
HStem: -6 21G<37 37> 0 65 374 65 425 20G<370 370>
LayerCount: 2
Fore
SplineSet
37 -6 m 1,0,-1
 30 28 l 1,1,-1
 255 374 l 1,2,-1
 162 374 l 1,3,-1
 58 351 l 1,4,-1
 51 444 l 1,5,-1
 300 434 l 1,6,-1
 370 445 l 1,7,-1
 377 411 l 1,8,-1
 152 65 l 1,9,-1
 275 65 l 1,10,-1
 377 87 l 1,11,-1
 386 -5 l 1,12,-1
 105 5 l 1,13,-1
 37 -6 l 1,0,-1
EndSplineSet
EndChar

StartChar: zero
Encoding: 48 48 87
Width: 516
Flags: MW
HStem: -15 66<207.5 304 207.5 330.5> 481 66<211.5 308>
VStem: 34 83<202.5 324 202.5 340.5> 399 83<207 329.5>
LayerCount: 2
Fore
SplineSet
34 261 m 0,0,1
 34 387 34 387 92.5 467 c 128,-1,2
 151 547 151 547 261 547 c 0,3,4
 368 547 368 547 425 469 c 128,-1,5
 482 391 482 391 482 270 c 0,6,7
 482 145 482 145 423 65 c 128,-1,8
 364 -15 364 -15 254 -15 c 0,9,10
 148 -15 148 -15 91 62.5 c 128,-1,11
 34 140 34 140 34 261 c 0,0,1
117 262 m 0,12,13
 117 168 117 168 152 109.5 c 128,-1,14
 187 51 187 51 255 51 c 0,15,16
 326 51 326 51 362.5 111 c 128,-1,17
 399 171 399 171 399 269 c 0,18,19
 399 365 399 365 364 423 c 128,-1,20
 329 481 329 481 260 481 c 0,21,22
 190 481 190 481 153.5 420.5 c 128,-1,23
 117 360 117 360 117 262 c 0,12,13
EndSplineSet
EndChar

StartChar: ae
Encoding: 230 230 88
Width: 707
Flags: MW
HStem: -15 61<465 517.5 458 528.5> 228 52 395 59 435 20G<192.5 253>
VStem: 40 85<96 123.5 96 153> 295 84<184.5 204 167.5 276 167.5 311.5> 566 91<284 347.5>
LayerCount: 2
Fore
SplineSet
40 110 m 0,0,1
 40 174 40 174 89 203 c 128,-1,2
 138 232 138 232 295 261 c 1,3,4
 295 337 295 337 278 366 c 128,-1,5
 261 395 261 395 217 395 c 0,6,7
 193 395 193 395 179 393 c 1,8,-1
 95 319 l 1,9,-1
 50 394 l 1,10,11
 127 455 127 455 222 455 c 0,12,13
 315 455 315 455 355 382 c 1,14,15
 406 454 406 454 497 454 c 0,16,17
 573 454 573 454 615 413 c 128,-1,18
 657 372 657 372 657 298 c 0,19,20
 657 271 657 271 652 233 c 1,21,-1
 379 224 l 1,22,23
 379 139 379 139 409.5 92.5 c 128,-1,24
 440 46 440 46 495 46 c 0,25,26
 566 46 566 46 626 97 c 1,27,-1
 653 23 l 1,28,29
 585 -15 585 -15 501 -15 c 0,30,31
 391 -15 391 -15 337 62 c 1,32,33
 247 -15 247 -15 166 -15 c 0,34,35
 109 -15 109 -15 74.5 19.5 c 128,-1,36
 40 54 40 54 40 110 c 0,0,1
125 118 m 0,37,38
 125 85 125 85 145.5 66 c 128,-1,39
 166 47 166 47 202 47 c 0,40,41
 265 47 265 47 317 96 c 1,42,43
 295 144 295 144 295 204 c 1,44,45
 199 190 199 190 132 161 c 1,46,47
 125 134 125 134 125 118 c 0,37,38
379 276 m 1,48,-1
 566 284 l 1,49,50
 565 345 565 345 546 369 c 128,-1,51
 527 393 527 393 480 393 c 0,52,53
 441 393 441 393 417 384 c 1,54,55
 382 351 382 351 379 276 c 1,48,-1
EndSplineSet
EndChar

StartChar: grave
Encoding: 96 96 89
Width: 430
Flags: MW
HStem: 502 21G<285 285> 649 20G<170 170>
LayerCount: 2
Fore
SplineSet
308 534 m 1,0,-1
 285 502 l 1,1,-1
 111 605 l 1,2,-1
 170 669 l 1,3,-1
 308 534 l 1,0,-1
EndSplineSet
EndChar

StartChar: agrave
Encoding: 224 224 90
Width: 454
Flags: MW
HStem: -15 62<178 189> 395 60<209 246.5> 649 20G<154 154>
VStem: 40 85<96 123.5 96 153> 295 84<112 204 204 204 261 297 112 311.5>
LayerCount: 2
Fore
SplineSet
40 110 m 0,0,1
 40 174 40 174 89 203 c 128,-1,2
 138 232 138 232 295 261 c 1,3,4
 295 337 295 337 278 366 c 128,-1,5
 261 395 261 395 217 395 c 0,6,7
 193 395 193 395 179 393 c 1,8,-1
 95 319 l 1,9,-1
 50 394 l 1,10,11
 127 455 127 455 222 455 c 0,12,13
 379 455 379 455 379 297 c 2,14,-1
 379 112 l 1,15,-1
 397 -1 l 1,16,-1
 304 -15 l 1,17,-1
 300 35 l 1,18,19
 238 -15 238 -15 166 -15 c 0,20,21
 109 -15 109 -15 74.5 19.5 c 128,-1,22
 40 54 40 54 40 110 c 0,0,1
125 118 m 0,23,24
 125 85 125 85 145.5 66 c 128,-1,25
 166 47 166 47 202 47 c 0,26,27
 253 47 253 47 295 78 c 1,28,-1
 295 204 l 1,29,30
 199 190 199 190 132 161 c 1,31,32
 125 134 125 134 125 118 c 0,23,24
292 534 m 1,33,-1
 269 502 l 1,34,-1
 95 605 l 1,35,-1
 154 669 l 1,36,-1
 292 534 l 1,33,-1
EndSplineSet
EndChar

StartChar: aacute
Encoding: 225 225 91
Width: 454
Flags: MW
HStem: -15 62<178 189> 395 60<209 246.5> 649 20G<274 274>
VStem: 40 85<96 123.5 96 153> 295 84<112 204 204 204 261 297 112 311.5>
LayerCount: 2
Fore
SplineSet
40 110 m 0,0,1
 40 174 40 174 89 203 c 128,-1,2
 138 232 138 232 295 261 c 1,3,4
 295 337 295 337 278 366 c 128,-1,5
 261 395 261 395 217 395 c 0,6,7
 193 395 193 395 179 393 c 1,8,-1
 95 319 l 1,9,-1
 50 394 l 1,10,11
 127 455 127 455 222 455 c 0,12,13
 379 455 379 455 379 297 c 2,14,-1
 379 112 l 1,15,-1
 397 -1 l 1,16,-1
 304 -15 l 1,17,-1
 300 35 l 1,18,19
 238 -15 238 -15 166 -15 c 0,20,21
 109 -15 109 -15 74.5 19.5 c 128,-1,22
 40 54 40 54 40 110 c 0,0,1
125 118 m 0,23,24
 125 85 125 85 145.5 66 c 128,-1,25
 166 47 166 47 202 47 c 0,26,27
 253 47 253 47 295 78 c 1,28,-1
 295 204 l 1,29,30
 199 190 199 190 132 161 c 1,31,32
 125 134 125 134 125 118 c 0,23,24
158 502 m 1,33,-1
 135 534 l 1,34,-1
 274 669 l 1,35,-1
 333 604 l 1,36,-1
 158 502 l 1,33,-1
EndSplineSet
EndChar

StartChar: circumflex
Encoding: 710 710 92
Width: 430
Flags: MW
HStem: 502 21G<93 93 323 323> 644 20G<208 208>
LayerCount: 2
Fore
SplineSet
93 502 m 1,0,-1
 70 534 l 1,1,-1
 208 664 l 1,2,-1
 346 534 l 1,3,-1
 323 502 l 1,4,-1
 208 578 l 1,5,-1
 93 502 l 1,0,-1
EndSplineSet
EndChar

StartChar: caron
Encoding: 711 711 93
Width: 430
Flags: MW
HStem: 504 21G<215 215> 646 20G<100 100 330 330>
LayerCount: 2
Fore
SplineSet
77 634 m 1,0,-1
 100 666 l 1,1,-1
 215 589 l 1,2,-1
 330 666 l 1,3,-1
 353 634 l 1,4,-1
 215 504 l 1,5,-1
 77 634 l 1,0,-1
EndSplineSet
EndChar

StartChar: ring
Encoding: 730 730 94
Width: 430
Flags: MW
HStem: 502 35<202.5 227 202.5 240> 632 37<202.5 227.5>
VStem: 129 43<571 599 571 610> 257 44<571 599>
LayerCount: 2
Fore
SplineSet
215 669 m 128,-1,1
 252 669 252 669 276.5 645.5 c 128,-1,2
 301 622 301 622 301 586 c 128,-1,3
 301 550 301 550 276.5 526 c 128,-1,4
 252 502 252 502 215 502 c 128,-1,5
 178 502 178 502 153.5 526 c 128,-1,6
 129 550 129 550 129 586 c 128,-1,7
 129 622 129 622 153.5 645.5 c 128,-1,0
 178 669 178 669 215 669 c 128,-1,1
215 537 m 0,8,9
 233 537 233 537 245 550.5 c 128,-1,10
 257 564 257 564 257 585 c 128,-1,11
 257 606 257 606 245.5 619 c 128,-1,12
 234 632 234 632 215 632 c 128,-1,13
 196 632 196 632 184 619 c 128,-1,14
 172 606 172 606 172 585 c 128,-1,15
 172 564 172 564 184 550.5 c 128,-1,16
 196 537 196 537 215 537 c 0,8,9
EndSplineSet
EndChar

StartChar: breve
Encoding: 728 728 95
Width: 430
Flags: MW
HStem: 520 60<195.5 234.5 195.5 248.5> 639 20G<110 110 320 320>
LayerCount: 2
Fore
SplineSet
215 580 m 0,0,1
 275 580 275 580 320 659 c 1,2,-1
 357 637 l 1,3,4
 332 575 332 575 298.5 547.5 c 128,-1,5
 265 520 265 520 215 520 c 128,-1,6
 165 520 165 520 131 548 c 128,-1,7
 97 576 97 576 73 637 c 1,8,-1
 110 659 l 1,9,10
 153 580 153 580 215 580 c 0,0,1
EndSplineSet
EndChar

StartChar: cedilla
Encoding: 184 184 96
Width: 430
Flags: MW
HStem: -224 59<199 223.5 199 236> -22 20G<223 223>
VStem: 255 59<-143.5 -115>
LayerCount: 2
Fore
SplineSet
177 -89 m 1,0,-1
 223 -2 l 1,1,-1
 256 -11 l 1,2,-1
 232 -59 l 1,3,4
 314 -68 314 -68 314 -132 c 0,5,6
 314 -176 314 -176 284 -200 c 128,-1,7
 254 -224 254 -224 199 -224 c 0,8,9
 152 -224 152 -224 116 -210 c 1,10,-1
 147 -154 l 1,11,12
 176 -165 176 -165 207 -165 c 0,13,14
 255 -165 255 -165 255 -132 c 0,15,16
 255 -106 255 -106 239 -97.5 c 128,-1,17
 223 -89 223 -89 177 -89 c 1,0,-1
EndSplineSet
EndChar

StartChar: macron
Encoding: 175 175 97
Width: 430
Flags: MW
HStem: 552 72<82 348 82 348>
LayerCount: 2
Fore
SplineSet
348 552 m 1,0,-1
 82 552 l 1,1,-1
 82 624 l 1,2,-1
 348 624 l 1,3,-1
 348 552 l 1,0,-1
EndSplineSet
EndChar

StartChar: hungarumlaut
Encoding: 733 733 98
Width: 430
Flags: MW
HStem: 502 21G<229 229> 654 20G<173 173>
LayerCount: 2
Fore
SplineSet
229 502 m 1,0,-1
 202 535 l 1,1,-1
 337 673 l 1,2,-1
 391 622 l 1,3,-1
 229 502 l 1,0,-1
66 503 m 1,4,-1
 39 535 l 1,5,-1
 173 674 l 1,6,-1
 227 622 l 1,7,-1
 66 503 l 1,4,-1
EndSplineSet
EndChar

StartChar: oe
Encoding: 339 339 99
Width: 775
Flags: MW
HStem: -15 61<220 271.5 220 280.5 531 585.5> 228 52 393 61<228 277 534.5 579.5>
VStem: 50 92<164.5 259.5 164.5 284.5> 358 92<177.5 224 167.5 281.5> 634 91<284 347.5>
LayerCount: 2
Fore
SplineSet
50 210 m 0,0,1
 50 322 50 322 105 388 c 128,-1,2
 160 454 160 454 252 454 c 0,3,4
 359 454 359 454 411 365 c 1,5,6
 464 454 464 454 565 454 c 0,7,8
 641 454 641 454 683 413 c 128,-1,9
 725 372 725 372 725 298 c 0,10,11
 725 290 725 290 720 233 c 1,12,-1
 450 224 l 1,13,14
 450 139 450 139 479.5 92.5 c 128,-1,15
 509 46 509 46 563 46 c 0,16,17
 634 46 634 46 694 97 c 1,18,-1
 721 23 l 1,19,20
 653 -15 653 -15 569 -15 c 0,21,22
 456 -15 456 -15 401 73 c 1,23,24
 348 -15 348 -15 247 -15 c 0,25,26
 153 -15 153 -15 101.5 44 c 128,-1,27
 50 103 50 103 50 210 c 0,0,1
261 46 m 0,28,29
 291 46 291 46 325 56 c 1,30,31
 358 105 358 105 358 221 c 0,32,33
 358 310 358 310 328 351.5 c 128,-1,34
 298 393 298 393 237 393 c 0,35,36
 214 393 214 393 175 383 c 1,37,38
 142 337 142 337 142 227 c 0,39,40
 142 133 142 133 170.5 89.5 c 128,-1,41
 199 46 199 46 261 46 c 0,28,29
449 276 m 1,42,-1
 634 284 l 1,43,44
 633 345 633 345 614 369 c 128,-1,45
 595 393 595 393 548 393 c 0,46,47
 504 393 504 393 482 384 c 1,48,49
 457 359 457 359 449 276 c 1,42,-1
EndSplineSet
EndChar

StartChar: cent
Encoding: 162 162 100
Width: 516
Flags: MW
HStem: -47 21G<235 287 235 235> 537 20G<282 334 334 334>
VStem: 93 92<215.5 309.5> 236 98
LayerCount: 2
Fore
SplineSet
185 256 m 0,0,1
 185 131 185 131 246 95 c 1,2,-1
 272 428 l 1,3,4
 226 418 226 418 205.5 377.5 c 128,-1,5
 185 337 185 337 185 256 c 0,0,1
93 246 m 0,6,7
 93 341 93 341 143 407 c 128,-1,8
 193 473 193 473 276 487 c 1,9,-1
 282 557 l 1,10,-1
 334 557 l 1,11,-1
 329 491 l 1,12,13
 399 488 399 488 444 468 c 1,14,-1
 420 391 l 1,15,-1
 324 426 l 1,16,-1
 297 83 l 1,17,18
 357 83 357 83 426 124 c 1,19,-1
 450 60 l 1,20,21
 377 22 377 22 298 22 c 2,22,-1
 292 22 l 1,23,-1
 287 -47 l 1,24,-1
 235 -47 l 1,25,-1
 241 28 l 1,26,27
 172 45 172 45 132.5 103.5 c 128,-1,28
 93 162 93 162 93 246 c 0,6,7
EndSplineSet
EndChar

StartChar: sterling
Encoding: 163 163 101
Width: 516
Flags: MW
HStem: -6 21G<112 112 433 433> 0 65<214 331 214 214> 259 61<100 168 109 168 109 178 258 258 258 280> 527 20G<291.5 361>
VStem: 165 76<374.5 420.5 374.5 424> 189 77<165.5 176>
LayerCount: 2
Fore
SplineSet
100 259 m 1,0,-1
 109 320 l 1,1,-1
 168 320 l 1,2,3
 165 344 165 344 165 369 c 0,4,5
 165 451 165 451 214 499 c 128,-1,6
 263 547 263 547 348 547 c 0,7,8
 383 547 383 547 427 533 c 1,9,-1
 404 460 l 1,10,-1
 324 491 l 1,11,12
 278 485 278 485 259.5 461.5 c 128,-1,13
 241 438 241 438 241 385 c 0,14,15
 241 360 241 360 246 320 c 1,16,-1
 280 320 l 1,17,-1
 369 329 l 1,18,-1
 361 259 l 1,19,-1
 258 259 l 1,20,21
 266 210 266 210 266 189 c 0,22,23
 266 121 266 121 187 65 c 1,24,-1
 340 65 l 1,25,-1
 442 76 l 1,26,-1
 433 -6 l 1,27,-1
 331 0 l 1,28,-1
 214 0 l 1,29,-1
 112 -6 l 1,30,-1
 112 65 l 1,31,32
 189 102 189 102 189 167 c 0,33,34
 189 189 189 189 178 259 c 1,35,-1
 100 259 l 1,0,-1
EndSplineSet
EndChar

StartChar: yen
Encoding: 165 165 102
Width: 516
Flags: MW
HStem: 0 179<213 225 302 314 213 213> 132 47<67 222 67 225 305 458 305 305> 234 48<67 188 67 188 67 216 328 458> 534 20G<156 156>
VStem: 217 92
LayerCount: 2
Fore
SplineSet
67 234 m 1,0,-1
 67 282 l 1,1,-1
 188 282 l 1,2,-1
 36 546 l 1,3,-1
 156 554 l 1,4,-1
 177 465 l 1,5,-1
 267 299 l 1,6,-1
 350 458 l 1,7,-1
 372 547 l 1,8,-1
 480 547 l 1,9,-1
 328 282 l 1,10,-1
 458 282 l 1,11,-1
 458 234 l 1,12,-1
 302 234 l 1,13,-1
 302 179 l 1,14,-1
 458 179 l 1,15,-1
 458 132 l 1,16,-1
 305 132 l 1,17,-1
 314 0 l 1,18,-1
 213 0 l 1,19,-1
 222 132 l 1,20,-1
 67 132 l 1,21,-1
 67 179 l 1,22,-1
 225 179 l 1,23,-1
 225 219 l 1,24,-1
 216 234 l 1,25,-1
 67 234 l 1,0,-1
EndSplineSet
EndChar

StartChar: florin
Encoding: 402 402 103
Width: 516
Flags: MW
HStem: -216 21G<59 131.5> 255 55 527 20G<339.5 412>
VStem: 195 74
LayerCount: 2
Fore
SplineSet
116 245 m 1,0,-1
 114 283 l 1,1,-1
 202 310 l 1,2,3
 202 422 202 422 255.5 484.5 c 128,-1,4
 309 547 309 547 397 547 c 0,5,6
 441 547 441 547 486 533 c 1,7,-1
 460 459 l 1,8,-1
 370 490 l 1,9,10
 321 485 321 485 300.5 445.5 c 128,-1,11
 280 406 280 406 280 310 c 1,12,-1
 397 310 l 1,13,-1
 394 260 l 1,14,-1
 278 251 l 1,15,-1
 269 4 l 2,16,17
 265 -98 265 -98 212.5 -157 c 128,-1,18
 160 -216 160 -216 74 -216 c 0,19,20
 32 -216 32 -216 -12 -202 c 1,21,-1
 14 -128 l 1,22,-1
 101 -159 l 1,23,24
 148 -152 148 -152 168.5 -119 c 128,-1,25
 189 -86 189 -86 191 -12 c 2,26,-1
 200 245 l 1,27,-1
 116 245 l 1,0,-1
EndSplineSet
EndChar

StartChar: lslash
Encoding: 322 322 104
Width: 242
Flags: MW
HStem: 0 21G<66 66 66 173> 660 20G<173 173>
VStem: 80 86
LayerCount: 2
Fore
SplineSet
66 0 m 1,0,-1
 80 198 l 1,1,-1
 80 309 l 1,2,-1
 30 282 l 1,3,-1
 2 333 l 1,4,-1
 80 375 l 1,5,-1
 80 567 l 1,6,-1
 65 670 l 1,7,-1
 173 680 l 1,8,-1
 162 484 l 1,9,-1
 162 420 l 1,10,-1
 225 454 l 1,11,-1
 253 403 l 1,12,-1
 162 353 l 1,13,-1
 162 197 l 1,14,-1
 173 0 l 1,15,-1
 66 0 l 1,0,-1
EndSplineSet
EndChar

StartChar: Lslash
Encoding: 321 321 105
Width: 400
Flags: MW
HStem: -6 21G<80 80 393 393> -3 73 0 21G<189 284 189 189> 585 20G<80 192 192 192>
VStem: 87 91
LayerCount: 2
Fore
SplineSet
80 -6 m 1,0,-1
 94 198 l 1,1,-1
 94 305 l 1,2,-1
 40 276 l 1,3,-1
 12 327 l 1,4,-1
 94 372 l 1,5,-1
 94 408 l 1,6,-1
 80 605 l 1,7,-1
 192 605 l 1,8,-1
 179 418 l 1,9,-1
 255 460 l 1,10,-1
 283 409 l 1,11,-1
 178 351 l 1,12,-1
 178 197 l 1,13,-1
 187 70 l 1,14,-1
 294 70 l 1,15,-1
 403 82 l 1,16,-1
 393 -6 l 1,17,-1
 284 0 l 1,18,-1
 189 0 l 1,19,-1
 80 -6 l 1,0,-1
EndSplineSet
EndChar

StartChar: oslash
Encoding: 248 248 106
Width: 500
Flags: MW
HStem: -98 21G<218 218> -15 21G<233 247 233 233> 393 61<228 240> 433 20G<264 266> 517 20G<282 282>
VStem: 50 92<184 259.5 184 284.5> 358 92<177.5 253.5>
LayerCount: 2
Fore
SplineSet
261 46 m 0,0,1
 289 46 289 46 325 56 c 1,2,3
 358 103 358 103 358 212 c 0,4,5
 358 336 358 336 305 374 c 1,6,-1
 245 47 l 1,7,8
 249 46 249 46 261 46 c 0,0,1
142 227 m 0,9,10
 142 101 142 101 194 64 c 1,11,-1
 255 392 l 1,12,13
 252 392 252 392 246 392.5 c 128,-1,14
 240 393 240 393 237 393 c 0,15,16
 215 393 215 393 175 383 c 1,17,18
 142 337 142 337 142 227 c 0,9,10
50 210 m 0,19,20
 50 322 50 322 105 388 c 128,-1,21
 160 454 160 454 252 454 c 0,22,23
 255 454 255 454 259.5 453.5 c 128,-1,24
 264 453 264 453 266 453 c 1,25,-1
 282 537 l 1,26,-1
 334 528 l 1,27,-1
 318 445 l 1,28,29
 382 426 382 426 416 371 c 128,-1,30
 450 316 450 316 450 230 c 0,31,32
 450 118 450 118 395 51.5 c 128,-1,33
 340 -15 340 -15 247 -15 c 2,34,-1
 233 -15 l 1,35,-1
 218 -98 l 1,36,-1
 166 -89 l 1,37,-1
 181 -6 l 1,38,39
 118 12 118 12 84 68 c 128,-1,40
 50 124 50 124 50 210 c 0,19,20
EndSplineSet
EndChar

StartChar: Oslash
Encoding: 216 216 107
Width: 688
Flags: MW
HStem: -98 21G<296 296> -15 66<349 375.5 349 424.5> 554 66<308.5 333> 683 20G<391 391>
VStem: 55 101<239 344.5 239 393.5> 532 101<258.5 366>
LayerCount: 2
Fore
SplineSet
156 297 m 0,0,1
 156 118 156 118 273 67 c 1,2,-1
 363 551 l 1,3,4
 345 554 345 554 327 554 c 0,5,6
 268 554 268 554 219 531 c 1,7,8
 193 506 193 506 174.5 437 c 128,-1,9
 156 368 156 368 156 297 c 0,0,1
532 306 m 0,10,11
 532 490 532 490 414 538 c 1,12,-1
 324 53 l 1,13,14
 332 51 332 51 358 51 c 0,15,16
 413 51 413 51 469 74 c 1,17,18
 495 100 495 100 513.5 167.5 c 128,-1,19
 532 235 532 235 532 306 c 0,10,11
55 293 m 0,20,21
 55 444 55 444 136 532 c 128,-1,22
 217 620 217 620 354 620 c 0,23,24
 370 620 370 620 375 619 c 1,25,-1
 391 703 l 1,26,-1
 443 694 l 1,27,-1
 428 612 l 1,28,29
 526 590 526 590 579.5 511.5 c 128,-1,30
 633 433 633 433 633 311 c 0,31,32
 633 162 633 162 551.5 73.5 c 128,-1,33
 470 -15 470 -15 333 -15 c 0,34,35
 316 -15 316 -15 311 -14 c 1,36,-1
 296 -98 l 1,37,-1
 244 -89 l 1,38,-1
 259 -7 l 1,39,40
 162 15 162 15 108.5 93.5 c 128,-1,41
 55 172 55 172 55 293 c 0,20,21
EndSplineSet
EndChar

StartChar: OE
Encoding: 338 338 108
Width: 895
Flags: MW
HStem: -15 66<294 363.5> 0 70<609 726 609 609> 279 65<595 691 595 778 595 691> 535 70<604 715 604 604> 553 67<315.5 362.5>
VStem: 55 101<219 344.5 219 392.5> 511 88
LayerCount: 2
Fore
SplineSet
497 -6 m 1,0,-1
 500 37 l 1,1,2
 424 -15 424 -15 333 -15 c 0,3,4
 203 -15 203 -15 129 67.5 c 128,-1,5
 55 150 55 150 55 293 c 0,6,7
 55 442 55 442 136.5 531 c 128,-1,8
 218 620 218 620 354 620 c 0,9,10
 433 620 433 620 499 578 c 1,11,-1
 497 605 l 1,12,-1
 836 605 l 1,13,-1
 827 523 l 1,14,-1
 715 535 l 1,15,-1
 604 535 l 1,16,-1
 595 407 l 1,17,-1
 595 344 l 1,18,-1
 691 344 l 1,19,-1
 786 354 l 1,20,-1
 778 279 l 1,21,-1
 595 279 l 1,22,-1
 595 197 l 1,23,-1
 604 70 l 1,24,-1
 736 70 l 1,25,-1
 845 82 l 1,26,-1
 835 -6 l 1,27,-1
 726 0 l 1,28,-1
 609 0 l 1,29,-1
 497 -6 l 1,0,-1
156 297 m 0,30,31
 156 180 156 180 209 115.5 c 128,-1,32
 262 51 262 51 358 51 c 0,33,34
 387 51 387 51 429.5 62 c 128,-1,35
 472 73 472 73 503 89 c 1,36,-1
 511 198 l 1,37,-1
 511 408 l 1,38,-1
 504 511 l 1,39,40
 418 553 418 553 335 553 c 0,41,42
 275 553 275 553 219 531 c 1,43,44
 193 506 193 506 174.5 437 c 128,-1,45
 156 368 156 368 156 297 c 0,30,31
EndSplineSet
EndChar

StartChar: at
Encoding: 64 64 109
Width: 786
Flags: MW
HStem: -173 59<337.5 455> 6 58<366.5 379.5> 368 56<396.5 432.5> 519 64<330 493.5>
VStem: 35 76<113.5 297.5 113.5 312.5> 240 80<101.5 125 101.5 144.5> 478 78<116 190 190 190 243 277 116 290> 676 75<192.5 329.5>
LayerCount: 2
Fore
SplineSet
323 150 m 1,0,1
 320 132 320 132 320 121 c 0,2,3
 320 64 320 64 391 64 c 0,4,5
 434 64 434 64 478 87 c 1,6,-1
 478 190 l 1,7,8
 387 178 387 178 323 150 c 1,0,1
240 103 m 0,9,10
 240 165 240 165 285 191.5 c 128,-1,11
 330 218 330 218 478 243 c 1,12,13
 478 314 478 314 462 341 c 128,-1,14
 446 368 446 368 405 368 c 0,15,16
 395 368 395 368 383 367 c 128,-1,17
 371 366 371 366 370 366 c 2,18,-1
 292 297 l 1,19,-1
 250 367 l 1,20,21
 322 424 322 424 410 424 c 0,22,23
 556 424 556 424 556 277 c 2,24,-1
 556 116 l 1,25,-1
 567 57 l 1,26,27
 618 61 618 61 647 112 c 128,-1,28
 676 163 676 163 676 251 c 0,29,30
 676 369 676 369 603.5 444 c 128,-1,31
 531 519 531 519 418 519 c 0,32,33
 286 519 286 519 198.5 430.5 c 128,-1,34
 111 342 111 342 111 209 c 0,35,36
 111 66 111 66 200.5 -24 c 128,-1,37
 290 -114 290 -114 433 -114 c 0,38,39
 516 -114 516 -114 609 -76 c 1,40,-1
 629 -120 l 1,41,42
 532 -173 532 -173 418 -173 c 0,43,44
 250 -173 250 -173 142.5 -67.5 c 128,-1,45
 35 38 35 38 35 203 c 0,46,47
 35 367 35 367 143 475 c 128,-1,48
 251 583 251 583 416 583 c 0,49,50
 564 583 564 583 657.5 491.5 c 128,-1,51
 751 400 751 400 751 256 c 0,52,53
 751 153 751 153 694 79.5 c 128,-1,54
 637 6 637 6 557 6 c 0,55,56
 524 6 524 6 508.5 15.5 c 128,-1,57
 493 25 493 25 482 53 c 1,58,59
 426 6 426 6 358 6 c 0,60,61
 305 6 305 6 272.5 32.5 c 128,-1,62
 240 59 240 59 240 103 c 0,9,10
EndSplineSet
EndChar

StartChar: question
Encoding: 63 63 110
Width: 367
Flags: MW
HStem: -16 21G 611 20G<133.5 204>
VStem: 237 88<465 528.5>
LayerCount: 2
Fore
SplineSet
325 512 m 0,0,1
 325 480 325 480 301.5 438.5 c 128,-1,2
 278 397 278 397 250 366 c 128,-1,3
 222 335 222 335 197.5 306.5 c 128,-1,4
 173 278 173 278 171 270 c 1,5,6
 185 250 185 250 241 221 c 1,7,-1
 220 171 l 1,8,9
 168 182 168 182 127.5 206 c 128,-1,10
 87 230 87 230 87 255 c 0,11,12
 87 273 87 273 110.5 301.5 c 128,-1,13
 134 330 134 330 162 356.5 c 128,-1,14
 190 383 190 383 213.5 421.5 c 128,-1,15
 237 460 237 460 237 495 c 0,16,17
 237 519 237 519 225.5 534.5 c 128,-1,18
 214 550 214 550 192.5 557 c 128,-1,19
 171 564 171 564 155 566.5 c 128,-1,20
 139 569 139 569 117 570 c 1,21,-1
 34 538 l 1,22,-1
 10 616 l 1,23,24
 93 631 93 631 156 631 c 0,25,26
 325 631 325 631 325 512 c 0,0,1
96 54 m 1,27,28
 124 97 124 97 166 124 c 1,29,30
 208 97 208 97 236 54 c 1,31,32
 208 11 208 11 166 -16 c 1,33,34
 124 11 124 11 96 54 c 1,27,28
EndSplineSet
EndChar

StartChar: questiondown
Encoding: 191 191 111
Width: 367
Flags: MW
HStem: -170 21G<163 233.5> 457 20G
VStem: 42 88<-67.5 -4>
LayerCount: 2
Fore
SplineSet
42 -51 m 0,0,1
 42 -19 42 -19 65.5 22.5 c 128,-1,2
 89 64 89 64 117 95 c 128,-1,3
 145 126 145 126 169.5 154.5 c 128,-1,4
 194 183 194 183 196 191 c 1,5,6
 182 211 182 211 126 240 c 1,7,-1
 147 290 l 1,8,9
 199 279 199 279 239.5 255 c 128,-1,10
 280 231 280 231 280 206 c 0,11,12
 280 188 280 188 256.5 159.5 c 128,-1,13
 233 131 233 131 205 104.5 c 128,-1,14
 177 78 177 78 153.5 39.5 c 128,-1,15
 130 1 130 1 130 -34 c 0,16,17
 130 -58 130 -58 141.5 -73.5 c 128,-1,18
 153 -89 153 -89 174.5 -96 c 128,-1,19
 196 -103 196 -103 212 -105.5 c 128,-1,20
 228 -108 228 -108 250 -109 c 1,21,-1
 333 -77 l 1,22,-1
 357 -155 l 1,23,24
 274 -170 274 -170 211 -170 c 0,25,26
 42 -170 42 -170 42 -51 c 0,0,1
271 407 m 1,27,28
 243 364 243 364 201 337 c 1,29,30
 159 364 159 364 131 407 c 1,31,32
 159 450 159 450 201 477 c 1,33,34
 243 450 243 450 271 407 c 1,27,28
EndSplineSet
EndChar

StartChar: Eth
Encoding: 208 208 112
Width: 650
Flags: MW
HStem: -15 66<267 310 267 350.5> 277 65<36 98 46 98 46 98 182 238> 554 66<260 350.5>
VStem: 91 95 494 101<264 393>
LayerCount: 2
Fore
SplineSet
36 277 m 1,0,-1
 46 342 l 1,1,-1
 98 342 l 1,2,-1
 98 467 l 1,3,-1
 80 599 l 1,4,5
 185 620 185 620 279 620 c 0,6,7
 440 620 440 620 517.5 546.5 c 128,-1,8
 595 473 595 473 595 320 c 128,-1,9
 595 167 595 167 499.5 76 c 128,-1,10
 404 -15 404 -15 243 -15 c 0,11,12
 164 -15 164 -15 84 0 c 1,13,-1
 98 198 l 1,14,-1
 98 277 l 1,15,-1
 36 277 l 1,0,-1
191 64 m 1,16,17
 231 51 231 51 283 51 c 0,18,19
 366 51 366 51 441 86 c 1,20,21
 465 120 465 120 479.5 181 c 128,-1,22
 494 242 494 242 494 307 c 0,23,24
 494 436 494 436 441.5 495 c 128,-1,25
 389 554 389 554 274 554 c 0,26,27
 234 554 234 554 192 546 c 1,28,-1
 182 407 l 1,29,-1
 182 342 l 1,30,-1
 238 342 l 1,31,-1
 333 352 l 1,32,-1
 325 277 l 1,33,-1
 182 277 l 1,34,-1
 182 197 l 1,35,-1
 191 64 l 1,16,17
EndSplineSet
EndChar

StartChar: Thorn
Encoding: 222 222 113
Width: 511
Flags: MW
HStem: 0 21G<85 85 85 197> 159 42 454 60<256 289.5> 585 20G<85 197 197 197>
VStem: 99 84<198 407 197 408 197 408> 378 98<282.5 365.5>
LayerCount: 2
Fore
SplineSet
85 0 m 1,0,-1
 99 198 l 1,1,-1
 99 408 l 1,2,-1
 85 605 l 1,3,-1
 197 605 l 1,4,-1
 190 509 l 1,5,6
 240 514 240 514 267 514 c 0,7,8
 476 514 476 514 476 332 c 0,9,10
 476 258 476 258 434.5 213 c 128,-1,11
 393 168 393 168 316 157 c 1,12,-1
 218 162 l 1,13,-1
 215 201 l 1,14,15
 302 201 302 201 340 229 c 128,-1,16
 378 257 378 257 378 322 c 0,17,18
 378 454 378 454 246 454 c 0,19,20
 216 454 216 454 186 448 c 1,21,-1
 183 407 l 1,22,-1
 183 197 l 1,23,-1
 197 0 l 1,24,-1
 85 0 l 1,0,-1
EndSplineSet
EndChar

StartChar: thorn
Encoding: 254 254 114
Width: 492
Flags: MW
HStem: -219 21G<67 67> -15 61<214.5 243 214.5 283> 385 69<268.5 291.5> 660 20G<176 176>
VStem: 78 89 350 92<178.5 273>
LayerCount: 2
Fore
SplineSet
78 -21 m 1,0,-1
 78 567 l 1,1,-1
 65 670 l 1,2,-1
 176 680 l 1,3,-1
 162 482 l 1,4,-1
 162 407 l 1,5,6
 225 454 225 454 290 454 c 0,7,8
 360 454 360 454 401 398 c 128,-1,9
 442 342 442 342 442 246 c 0,10,11
 442 128 442 128 379.5 56.5 c 128,-1,12
 317 -15 317 -15 214 -15 c 0,13,14
 183 -15 183 -15 162 -11 c 1,15,-1
 172 -209 l 1,16,-1
 67 -219 l 1,17,-1
 78 -21 l 1,0,-1
162 57 m 1,18,19
 184 46 184 46 229 46 c 0,20,21
 272 46 272 46 313 56 c 1,22,23
 350 101 350 101 350 215 c 0,24,25
 350 385 350 385 261 385 c 0,26,27
 213 385 213 385 162 361 c 1,28,-1
 162 57 l 1,18,19
EndSplineSet
EndChar

StartChar: acircumflex
Encoding: 226 226 115
Width: 454
Flags: MW
HStem: -15 62<178 189> 395 60<209 246.5> 644 20G<210 210>
VStem: 40 85<96 123.5 96 153> 295 84<112 204 204 204 261 297 112 311.5>
LayerCount: 2
Fore
SplineSet
40 110 m 0,0,1
 40 174 40 174 89 203 c 128,-1,2
 138 232 138 232 295 261 c 1,3,4
 295 337 295 337 278 366 c 128,-1,5
 261 395 261 395 217 395 c 0,6,7
 193 395 193 395 179 393 c 1,8,-1
 95 319 l 1,9,-1
 50 394 l 1,10,11
 127 455 127 455 222 455 c 0,12,13
 379 455 379 455 379 297 c 2,14,-1
 379 112 l 1,15,-1
 397 -1 l 1,16,-1
 304 -15 l 1,17,-1
 300 35 l 1,18,19
 238 -15 238 -15 166 -15 c 0,20,21
 109 -15 109 -15 74.5 19.5 c 128,-1,22
 40 54 40 54 40 110 c 0,0,1
125 118 m 0,23,24
 125 85 125 85 145.5 66 c 128,-1,25
 166 47 166 47 202 47 c 0,26,27
 253 47 253 47 295 78 c 1,28,-1
 295 204 l 1,29,30
 199 190 199 190 132 161 c 1,31,32
 125 134 125 134 125 118 c 0,23,24
95 502 m 1,33,-1
 72 534 l 1,34,-1
 210 664 l 1,35,-1
 348 534 l 1,36,-1
 325 502 l 1,37,-1
 210 578 l 1,38,-1
 95 502 l 1,33,-1
EndSplineSet
EndChar

StartChar: aring
Encoding: 229 229 116
Width: 454
Flags: MW
HStem: -15 62<178 189> 395 60<209 246.5> 502 35<204.5 229 204.5 242> 632 37<204.5 229.5>
VStem: 40 85<96 123.5 96 153> 131 43<571 599 571 610> 259 44<571 599> 295 84<112 204 204 204 261 297 112 311.5>
LayerCount: 2
Fore
SplineSet
40 110 m 0,0,1
 40 174 40 174 89 203 c 128,-1,2
 138 232 138 232 295 261 c 1,3,4
 295 337 295 337 278 366 c 128,-1,5
 261 395 261 395 217 395 c 0,6,7
 193 395 193 395 179 393 c 1,8,-1
 95 319 l 1,9,-1
 50 394 l 1,10,11
 127 455 127 455 222 455 c 0,12,13
 379 455 379 455 379 297 c 2,14,-1
 379 112 l 1,15,-1
 397 -1 l 1,16,-1
 304 -15 l 1,17,-1
 300 35 l 1,18,19
 238 -15 238 -15 166 -15 c 0,20,21
 109 -15 109 -15 74.5 19.5 c 128,-1,22
 40 54 40 54 40 110 c 0,0,1
125 118 m 0,23,24
 125 85 125 85 145.5 66 c 128,-1,25
 166 47 166 47 202 47 c 0,26,27
 253 47 253 47 295 78 c 1,28,-1
 295 204 l 1,29,30
 199 190 199 190 132 161 c 1,31,32
 125 134 125 134 125 118 c 0,23,24
217 669 m 128,-1,34
 254 669 254 669 278.5 645.5 c 128,-1,35
 303 622 303 622 303 586 c 128,-1,36
 303 550 303 550 278.5 526 c 128,-1,37
 254 502 254 502 217 502 c 128,-1,38
 180 502 180 502 155.5 526 c 128,-1,39
 131 550 131 550 131 586 c 128,-1,40
 131 622 131 622 155.5 645.5 c 128,-1,33
 180 669 180 669 217 669 c 128,-1,34
217 537 m 0,41,42
 235 537 235 537 247 550.5 c 128,-1,43
 259 564 259 564 259 585 c 128,-1,44
 259 606 259 606 247.5 619 c 128,-1,45
 236 632 236 632 217 632 c 128,-1,46
 198 632 198 632 186 619 c 128,-1,47
 174 606 174 606 174 585 c 128,-1,48
 174 564 174 564 186 550.5 c 128,-1,49
 198 537 198 537 217 537 c 0,41,42
EndSplineSet
EndChar

StartChar: atilde
Encoding: 227 227 117
Width: 454
Flags: MW
HStem: -15 62<178 189> 395 60<209 246.5> 627 20G<141 156>
VStem: 40 85<96 123.5 96 153> 295 84<112 204 204 204 261 297 112 311.5>
LayerCount: 2
Fore
SplineSet
40 110 m 0,0,1
 40 174 40 174 89 203 c 128,-1,2
 138 232 138 232 295 261 c 1,3,4
 295 337 295 337 278 366 c 128,-1,5
 261 395 261 395 217 395 c 0,6,7
 193 395 193 395 179 393 c 1,8,-1
 95 319 l 1,9,-1
 50 394 l 1,10,11
 127 455 127 455 222 455 c 0,12,13
 379 455 379 455 379 297 c 2,14,-1
 379 112 l 1,15,-1
 397 -1 l 1,16,-1
 304 -15 l 1,17,-1
 300 35 l 1,18,19
 238 -15 238 -15 166 -15 c 0,20,21
 109 -15 109 -15 74.5 19.5 c 128,-1,22
 40 54 40 54 40 110 c 0,0,1
125 118 m 0,23,24
 125 85 125 85 145.5 66 c 128,-1,25
 166 47 166 47 202 47 c 0,26,27
 253 47 253 47 295 78 c 1,28,-1
 295 204 l 1,29,30
 199 190 199 190 132 161 c 1,31,32
 125 134 125 134 125 118 c 0,23,24
341 642 m 1,33,-1
 363 625 l 1,34,35
 322 548 322 548 293 523 c 1,36,37
 270 523 270 523 250 531.5 c 128,-1,38
 230 540 230 540 153 583 c 1,39,-1
 93 528 l 1,40,-1
 71 545 l 1,41,42
 115 623 115 623 141 647 c 1,43,44
 163 647 163 647 185 637.5 c 128,-1,45
 207 628 207 628 281 587 c 1,46,-1
 341 642 l 1,33,-1
EndSplineSet
EndChar

StartChar: adieresis
Encoding: 228 228 118
Width: 454
Flags: MW
HStem: -15 62<178 189> 395 60<209 246.5> 627 20G
VStem: 40 85<96 123.5 96 153> 295 84<112 204 204 204 261 297 112 311.5>
LayerCount: 2
Fore
SplineSet
40 110 m 0,0,1
 40 174 40 174 89 203 c 128,-1,2
 138 232 138 232 295 261 c 1,3,4
 295 337 295 337 278 366 c 128,-1,5
 261 395 261 395 217 395 c 0,6,7
 193 395 193 395 179 393 c 1,8,-1
 95 319 l 1,9,-1
 50 394 l 1,10,11
 127 455 127 455 222 455 c 0,12,13
 379 455 379 455 379 297 c 2,14,-1
 379 112 l 1,15,-1
 397 -1 l 1,16,-1
 304 -15 l 1,17,-1
 300 35 l 1,18,19
 238 -15 238 -15 166 -15 c 0,20,21
 109 -15 109 -15 74.5 19.5 c 128,-1,22
 40 54 40 54 40 110 c 0,0,1
125 118 m 0,23,24
 125 85 125 85 145.5 66 c 128,-1,25
 166 47 166 47 202 47 c 0,26,27
 253 47 253 47 295 78 c 1,28,-1
 295 204 l 1,29,30
 199 190 199 190 132 161 c 1,31,32
 125 134 125 134 125 118 c 0,23,24
67 586 m 1,33,34
 93 624 93 624 128 647 c 1,35,36
 159 624 159 624 186 586 c 1,37,38
 159 547 159 547 128 525 c 1,39,40
 91 549 91 549 67 586 c 1,33,34
248 586 m 1,41,42
 275 626 275 626 306 647 c 1,43,44
 342 622 342 622 367 586 c 1,45,46
 344 551 344 551 306 525 c 1,47,48
 273 547 273 547 248 586 c 1,41,42
EndSplineSet
EndChar

StartChar: eacute
Encoding: 233 233 119
Width: 467
Flags: MW
HStem: -15 61<219 277.5 219 288.5> 228 52 393 61<227.5 271.5> 649 20G<323 323>
VStem: 50 92<167.5 224 167.5 280> 326 91<284 347.5>
LayerCount: 2
Fore
SplineSet
50 208 m 0,0,1
 50 316 50 316 108 385 c 128,-1,2
 166 454 166 454 257 454 c 0,3,4
 333 454 333 454 375 413 c 128,-1,5
 417 372 417 372 417 298 c 0,6,7
 417 271 417 271 412 233 c 1,8,-1
 142 224 l 1,9,10
 142 139 142 139 171.5 92.5 c 128,-1,11
 201 46 201 46 255 46 c 0,12,13
 326 46 326 46 386 97 c 1,14,-1
 413 23 l 1,15,16
 345 -15 345 -15 261 -15 c 0,17,18
 164 -15 164 -15 107 45 c 128,-1,19
 50 105 50 105 50 208 c 0,0,1
144 276 m 1,20,-1
 326 284 l 1,21,22
 325 345 325 345 306 369 c 128,-1,23
 287 393 287 393 240 393 c 0,24,25
 201 393 201 393 177 384 c 1,26,27
 152 357 152 357 144 276 c 1,20,-1
207 502 m 1,28,-1
 184 534 l 1,29,-1
 323 669 l 1,30,-1
 382 604 l 1,31,-1
 207 502 l 1,28,-1
EndSplineSet
EndChar

StartChar: egrave
Encoding: 232 232 120
Width: 467
Flags: MW
HStem: -15 61<219 277.5 219 288.5> 228 52 393 61<227.5 271.5> 649 20G<194 194>
VStem: 50 92<167.5 224 167.5 280> 326 91<284 347.5>
LayerCount: 2
Fore
SplineSet
50 208 m 0,0,1
 50 316 50 316 108 385 c 128,-1,2
 166 454 166 454 257 454 c 0,3,4
 333 454 333 454 375 413 c 128,-1,5
 417 372 417 372 417 298 c 0,6,7
 417 271 417 271 412 233 c 1,8,-1
 142 224 l 1,9,10
 142 139 142 139 171.5 92.5 c 128,-1,11
 201 46 201 46 255 46 c 0,12,13
 326 46 326 46 386 97 c 1,14,-1
 413 23 l 1,15,16
 345 -15 345 -15 261 -15 c 0,17,18
 164 -15 164 -15 107 45 c 128,-1,19
 50 105 50 105 50 208 c 0,0,1
144 276 m 1,20,-1
 326 284 l 1,21,22
 325 345 325 345 306 369 c 128,-1,23
 287 393 287 393 240 393 c 0,24,25
 201 393 201 393 177 384 c 1,26,27
 152 357 152 357 144 276 c 1,20,-1
332 534 m 1,28,-1
 309 502 l 1,29,-1
 135 605 l 1,30,-1
 194 669 l 1,31,-1
 332 534 l 1,28,-1
EndSplineSet
EndChar

StartChar: ecircumflex
Encoding: 234 234 121
Width: 467
Flags: MW
HStem: -15 61<219 277.5 219 288.5> 228 52 393 61<227.5 271.5> 644 20G<243 243>
VStem: 50 92<167.5 224 167.5 280> 326 91<284 347.5>
LayerCount: 2
Fore
SplineSet
50 208 m 0,0,1
 50 316 50 316 108 385 c 128,-1,2
 166 454 166 454 257 454 c 0,3,4
 333 454 333 454 375 413 c 128,-1,5
 417 372 417 372 417 298 c 0,6,7
 417 271 417 271 412 233 c 1,8,-1
 142 224 l 1,9,10
 142 139 142 139 171.5 92.5 c 128,-1,11
 201 46 201 46 255 46 c 0,12,13
 326 46 326 46 386 97 c 1,14,-1
 413 23 l 1,15,16
 345 -15 345 -15 261 -15 c 0,17,18
 164 -15 164 -15 107 45 c 128,-1,19
 50 105 50 105 50 208 c 0,0,1
144 276 m 1,20,-1
 326 284 l 1,21,22
 325 345 325 345 306 369 c 128,-1,23
 287 393 287 393 240 393 c 0,24,25
 201 393 201 393 177 384 c 1,26,27
 152 357 152 357 144 276 c 1,20,-1
128 502 m 1,28,-1
 105 534 l 1,29,-1
 243 664 l 1,30,-1
 381 534 l 1,31,-1
 358 502 l 1,32,-1
 243 578 l 1,33,-1
 128 502 l 1,28,-1
EndSplineSet
EndChar

StartChar: iacute
Encoding: 237 237 122
Width: 229
Flags: MW
HStem: 0 21G<58 58 58 160> 649 20G<167 167>
VStem: 65 89
LayerCount: 2
Fore
SplineSet
58 0 m 1,0,-1
 72 198 l 1,1,-1
 72 338 l 1,2,-1
 57 441 l 1,3,-1
 160 451 l 1,4,-1
 149 255 l 1,5,-1
 149 197 l 1,6,-1
 160 0 l 1,7,-1
 58 0 l 1,0,-1
51 502 m 1,8,-1
 28 534 l 1,9,-1
 167 669 l 1,10,-1
 226 604 l 1,11,-1
 51 502 l 1,8,-1
EndSplineSet
EndChar

StartChar: edieresis
Encoding: 235 235 123
Width: 467
Flags: MW
HStem: -15 61<219 277.5 219 288.5> 228 52 393 61<227.5 271.5> 627 20G
VStem: 50 92<167.5 224 167.5 280> 326 91<284 347.5>
LayerCount: 2
Fore
SplineSet
50 208 m 0,0,1
 50 316 50 316 108 385 c 128,-1,2
 166 454 166 454 257 454 c 0,3,4
 333 454 333 454 375 413 c 128,-1,5
 417 372 417 372 417 298 c 0,6,7
 417 271 417 271 412 233 c 1,8,-1
 142 224 l 1,9,10
 142 139 142 139 171.5 92.5 c 128,-1,11
 201 46 201 46 255 46 c 0,12,13
 326 46 326 46 386 97 c 1,14,-1
 413 23 l 1,15,16
 345 -15 345 -15 261 -15 c 0,17,18
 164 -15 164 -15 107 45 c 128,-1,19
 50 105 50 105 50 208 c 0,0,1
144 276 m 1,20,-1
 326 284 l 1,21,22
 325 345 325 345 306 369 c 128,-1,23
 287 393 287 393 240 393 c 0,24,25
 201 393 201 393 177 384 c 1,26,27
 152 357 152 357 144 276 c 1,20,-1
284 586 m 1,28,29
 311 626 311 626 342 647 c 1,30,31
 378 622 378 622 403 586 c 1,32,33
 380 551 380 551 342 525 c 1,34,35
 309 547 309 547 284 586 c 1,28,29
103 586 m 1,36,37
 129 624 129 624 164 647 c 1,38,39
 195 624 195 624 222 586 c 1,40,41
 195 547 195 547 164 525 c 1,42,43
 127 549 127 549 103 586 c 1,36,37
EndSplineSet
EndChar

StartChar: Aacute
Encoding: 193 193 124
Width: 551
Flags: MW
HStem: -1 21G<10 10 10 111> 0 21G<424 541 424 424> 151 70<175 371 175 394 147 371> 800 20G<375 375>
LayerCount: 2
Fore
SplineSet
10 -1 m 1,0,-1
 223 534 l 1,1,-1
 242 603 l 1,2,-1
 321 609 l 1,3,-1
 541 0 l 1,4,-1
 424 0 l 1,5,-1
 394 151 l 1,6,-1
 147 151 l 1,7,-1
 111 -1 l 1,8,-1
 10 -1 l 1,0,-1
276 507 m 1,9,-1
 175 221 l 1,10,-1
 371 221 l 1,11,-1
 276 507 l 1,9,-1
259 653 m 1,12,-1
 236 685 l 1,13,-1
 375 820 l 1,14,-1
 434 755 l 1,15,-1
 259 653 l 1,12,-1
EndSplineSet
EndChar

StartChar: Acircumflex
Encoding: 194 194 125
Width: 551
Flags: MW
HStem: -1 21G<10 10 10 111> 0 21G<424 541 424 424> 151 70<175 371 175 394 147 371> 795 20G<285 285>
LayerCount: 2
Fore
SplineSet
10 -1 m 1,0,-1
 223 534 l 1,1,-1
 242 603 l 1,2,-1
 321 609 l 1,3,-1
 541 0 l 1,4,-1
 424 0 l 1,5,-1
 394 151 l 1,6,-1
 147 151 l 1,7,-1
 111 -1 l 1,8,-1
 10 -1 l 1,0,-1
276 507 m 1,9,-1
 175 221 l 1,10,-1
 371 221 l 1,11,-1
 276 507 l 1,9,-1
170 653 m 1,12,-1
 147 685 l 1,13,-1
 285 815 l 1,14,-1
 423 685 l 1,15,-1
 400 653 l 1,16,-1
 285 729 l 1,17,-1
 170 653 l 1,12,-1
EndSplineSet
EndChar

StartChar: Adieresis
Encoding: 196 196 126
Width: 551
Flags: MW
HStem: -1 21G<10 10 10 111> 0 21G<424 541 424 424> 151 70<175 371 175 394 147 371> 778 20G
LayerCount: 2
Fore
SplineSet
10 -1 m 1,0,-1
 223 534 l 1,1,-1
 242 603 l 1,2,-1
 321 609 l 1,3,-1
 541 0 l 1,4,-1
 424 0 l 1,5,-1
 394 151 l 1,6,-1
 147 151 l 1,7,-1
 111 -1 l 1,8,-1
 10 -1 l 1,0,-1
276 507 m 1,9,-1
 175 221 l 1,10,-1
 371 221 l 1,11,-1
 276 507 l 1,9,-1
312 737 m 1,12,13
 339 777 339 777 370 798 c 1,14,15
 406 773 406 773 431 737 c 1,16,17
 408 702 408 702 370 676 c 1,18,19
 337 698 337 698 312 737 c 1,12,13
131 737 m 1,20,21
 157 775 157 775 192 798 c 1,22,23
 223 775 223 775 250 737 c 1,24,25
 223 698 223 698 192 676 c 1,26,27
 155 700 155 700 131 737 c 1,20,21
EndSplineSet
EndChar

StartChar: Agrave
Encoding: 192 192 127
Width: 551
Flags: MW
HStem: -1 21G<10 10 10 111> 0 21G<424 541 424 424> 151 70<175 371 175 394 147 371> 800 20G<196 196>
LayerCount: 2
Fore
SplineSet
10 -1 m 1,0,-1
 223 534 l 1,1,-1
 242 603 l 1,2,-1
 321 609 l 1,3,-1
 541 0 l 1,4,-1
 424 0 l 1,5,-1
 394 151 l 1,6,-1
 147 151 l 1,7,-1
 111 -1 l 1,8,-1
 10 -1 l 1,0,-1
276 507 m 1,9,-1
 175 221 l 1,10,-1
 371 221 l 1,11,-1
 276 507 l 1,9,-1
334 685 m 1,12,-1
 311 653 l 1,13,-1
 137 756 l 1,14,-1
 196 820 l 1,15,-1
 334 685 l 1,12,-1
EndSplineSet
EndChar

StartChar: Aring
Encoding: 197 197 128
Width: 551
Flags: MW
HStem: -1 21G<10 10 10 111> 0 21G<424 541 424 424> 151 70<175 371 175 394 147 371> 653 35<272.5 297 272.5 310> 783 37<272.5 297.5>
VStem: 199 43<722 750> 327 44<722 750>
LayerCount: 2
Fore
SplineSet
10 -1 m 1,0,-1
 223 534 l 1,1,-1
 242 603 l 1,2,-1
 321 609 l 1,3,-1
 541 0 l 1,4,-1
 424 0 l 1,5,-1
 394 151 l 1,6,-1
 147 151 l 1,7,-1
 111 -1 l 1,8,-1
 10 -1 l 1,0,-1
276 507 m 1,9,-1
 175 221 l 1,10,-1
 371 221 l 1,11,-1
 276 507 l 1,9,-1
285 820 m 128,-1,13
 322 820 322 820 346.5 796.5 c 128,-1,14
 371 773 371 773 371 737 c 128,-1,15
 371 701 371 701 346.5 677 c 128,-1,16
 322 653 322 653 285 653 c 128,-1,17
 248 653 248 653 223.5 677 c 128,-1,18
 199 701 199 701 199 737 c 128,-1,19
 199 773 199 773 223.5 796.5 c 128,-1,12
 248 820 248 820 285 820 c 128,-1,13
285 688 m 0,20,21
 303 688 303 688 315 701.5 c 128,-1,22
 327 715 327 715 327 736 c 128,-1,23
 327 757 327 757 315.5 770 c 128,-1,24
 304 783 304 783 285 783 c 128,-1,25
 266 783 266 783 254 770 c 128,-1,26
 242 757 242 757 242 736 c 128,-1,27
 242 715 242 715 254 701.5 c 128,-1,28
 266 688 266 688 285 688 c 0,20,21
EndSplineSet
EndChar

StartChar: Atilde
Encoding: 195 195 129
Width: 551
Flags: MW
HStem: -1 21G<10 10 10 111> 0 21G<424 541 424 424> 151 70<175 371 175 394 147 371> 654 20G<346 361> 778 20G<209 224>
LayerCount: 2
Fore
SplineSet
10 -1 m 1,0,-1
 223 534 l 1,1,-1
 242 603 l 1,2,-1
 321 609 l 1,3,-1
 541 0 l 1,4,-1
 424 0 l 1,5,-1
 394 151 l 1,6,-1
 147 151 l 1,7,-1
 111 -1 l 1,8,-1
 10 -1 l 1,0,-1
276 507 m 1,9,-1
 175 221 l 1,10,-1
 371 221 l 1,11,-1
 276 507 l 1,9,-1
409 793 m 1,12,-1
 431 776 l 1,13,14
 390 699 390 699 361 674 c 1,15,16
 338 674 338 674 318 682.5 c 128,-1,17
 298 691 298 691 221 734 c 1,18,-1
 161 679 l 1,19,-1
 139 696 l 1,20,21
 183 774 183 774 209 798 c 1,22,23
 231 798 231 798 253 788.5 c 128,-1,24
 275 779 275 779 349 738 c 1,25,-1
 409 793 l 1,12,-1
EndSplineSet
EndChar

StartChar: Eacute
Encoding: 201 201 130
Width: 478
Flags: MW
HStem: -6 21G<80 80 418 418> 0 70<192 309 192 192> 279 65<178 274 178 361 178 274> 535 70<187 298 187 187> 800 20G<319 319>
VStem: 94 88
LayerCount: 2
Fore
SplineSet
178 407 m 1,0,-1
 178 344 l 1,1,-1
 274 344 l 1,2,-1
 369 354 l 1,3,-1
 361 279 l 1,4,-1
 178 279 l 1,5,-1
 178 197 l 1,6,-1
 187 70 l 1,7,-1
 319 70 l 1,8,-1
 428 82 l 1,9,-1
 418 -6 l 1,10,-1
 309 0 l 1,11,-1
 192 0 l 1,12,-1
 80 -6 l 1,13,-1
 94 198 l 1,14,-1
 94 408 l 1,15,-1
 80 605 l 1,16,-1
 419 605 l 1,17,-1
 410 523 l 1,18,-1
 298 535 l 1,19,-1
 187 535 l 1,20,-1
 178 407 l 1,0,-1
203 653 m 1,21,-1
 180 685 l 1,22,-1
 319 820 l 1,23,-1
 378 755 l 1,24,-1
 203 653 l 1,21,-1
EndSplineSet
EndChar

StartChar: Ecircumflex
Encoding: 202 202 131
Width: 478
Flags: MW
HStem: -6 21G<80 80 418 418> 0 70<192 309 192 192> 279 65<178 274 178 361 178 274> 535 70<187 298 187 187> 795 20G<249 249>
VStem: 94 88
LayerCount: 2
Fore
SplineSet
178 407 m 1,0,-1
 178 344 l 1,1,-1
 274 344 l 1,2,-1
 369 354 l 1,3,-1
 361 279 l 1,4,-1
 178 279 l 1,5,-1
 178 197 l 1,6,-1
 187 70 l 1,7,-1
 319 70 l 1,8,-1
 428 82 l 1,9,-1
 418 -6 l 1,10,-1
 309 0 l 1,11,-1
 192 0 l 1,12,-1
 80 -6 l 1,13,-1
 94 198 l 1,14,-1
 94 408 l 1,15,-1
 80 605 l 1,16,-1
 419 605 l 1,17,-1
 410 523 l 1,18,-1
 298 535 l 1,19,-1
 187 535 l 1,20,-1
 178 407 l 1,0,-1
134 653 m 1,21,-1
 111 685 l 1,22,-1
 249 815 l 1,23,-1
 387 685 l 1,24,-1
 364 653 l 1,25,-1
 249 729 l 1,26,-1
 134 653 l 1,21,-1
EndSplineSet
EndChar

StartChar: Edieresis
Encoding: 203 203 132
Width: 478
Flags: MW
HStem: -6 21G<80 80 418 418> 0 70<192 309 192 192> 279 65<178 274 178 361 178 274> 535 70<187 298 187 187> 778 20G
VStem: 94 88
LayerCount: 2
Fore
SplineSet
178 407 m 1,0,-1
 178 344 l 1,1,-1
 274 344 l 1,2,-1
 369 354 l 1,3,-1
 361 279 l 1,4,-1
 178 279 l 1,5,-1
 178 197 l 1,6,-1
 187 70 l 1,7,-1
 319 70 l 1,8,-1
 428 82 l 1,9,-1
 418 -6 l 1,10,-1
 309 0 l 1,11,-1
 192 0 l 1,12,-1
 80 -6 l 1,13,-1
 94 198 l 1,14,-1
 94 408 l 1,15,-1
 80 605 l 1,16,-1
 419 605 l 1,17,-1
 410 523 l 1,18,-1
 298 535 l 1,19,-1
 187 535 l 1,20,-1
 178 407 l 1,0,-1
278 737 m 1,21,22
 305 777 305 777 336 798 c 1,23,24
 372 773 372 773 397 737 c 1,25,26
 374 702 374 702 336 676 c 1,27,28
 303 698 303 698 278 737 c 1,21,22
97 737 m 1,29,30
 123 775 123 775 158 798 c 1,31,32
 189 775 189 775 216 737 c 1,33,34
 189 698 189 698 158 676 c 1,35,36
 121 700 121 700 97 737 c 1,29,30
EndSplineSet
EndChar

StartChar: Egrave
Encoding: 200 200 133
Width: 478
Flags: MW
HStem: -6 21G<80 80 418 418> 0 70<192 309 192 192> 279 65<178 274 178 361 178 274> 535 70<187 298 187 187> 800 20G<179 179>
VStem: 94 88
LayerCount: 2
Fore
SplineSet
178 407 m 1,0,-1
 178 344 l 1,1,-1
 274 344 l 1,2,-1
 369 354 l 1,3,-1
 361 279 l 1,4,-1
 178 279 l 1,5,-1
 178 197 l 1,6,-1
 187 70 l 1,7,-1
 319 70 l 1,8,-1
 428 82 l 1,9,-1
 418 -6 l 1,10,-1
 309 0 l 1,11,-1
 192 0 l 1,12,-1
 80 -6 l 1,13,-1
 94 198 l 1,14,-1
 94 408 l 1,15,-1
 80 605 l 1,16,-1
 419 605 l 1,17,-1
 410 523 l 1,18,-1
 298 535 l 1,19,-1
 187 535 l 1,20,-1
 178 407 l 1,0,-1
317 685 m 1,21,-1
 294 653 l 1,22,-1
 120 756 l 1,23,-1
 179 820 l 1,24,-1
 317 685 l 1,21,-1
EndSplineSet
EndChar

StartChar: Iacute
Encoding: 205 205 134
Width: 282
Flags: MW
HStem: 0 21G<85 85 85 197> 585 20G<85 197 197 197> 800 20G<211 211>
VStem: 99 84<198 407 197 408 197 408>
LayerCount: 2
Fore
SplineSet
85 0 m 1,0,-1
 99 198 l 1,1,-1
 99 408 l 1,2,-1
 85 605 l 1,3,-1
 197 605 l 1,4,-1
 183 407 l 1,5,-1
 183 197 l 1,6,-1
 197 0 l 1,7,-1
 85 0 l 1,0,-1
95 653 m 1,8,-1
 72 685 l 1,9,-1
 211 820 l 1,10,-1
 270 755 l 1,11,-1
 95 653 l 1,8,-1
EndSplineSet
EndChar

StartChar: Icircumflex
Encoding: 206 206 135
Width: 282
Flags: MW
HStem: 0 21G<85 85 85 197> 585 20G<85 197 197 197> 795 20G<141 141>
VStem: 99 84<198 407 197 408 197 408>
LayerCount: 2
Fore
SplineSet
85 0 m 1,0,-1
 99 198 l 1,1,-1
 99 408 l 1,2,-1
 85 605 l 1,3,-1
 197 605 l 1,4,-1
 183 407 l 1,5,-1
 183 197 l 1,6,-1
 197 0 l 1,7,-1
 85 0 l 1,0,-1
26 653 m 1,8,-1
 3 685 l 1,9,-1
 141 815 l 1,10,-1
 279 685 l 1,11,-1
 256 653 l 1,12,-1
 141 729 l 1,13,-1
 26 653 l 1,8,-1
EndSplineSet
EndChar

StartChar: Idieresis
Encoding: 207 207 136
Width: 282
Flags: MW
HStem: 0 21G<85 85 85 197> 585 20G<85 197 197 197> 778 20G
VStem: 99 84<198 407 197 408 197 408>
LayerCount: 2
Fore
SplineSet
85 0 m 1,0,-1
 99 198 l 1,1,-1
 99 408 l 1,2,-1
 85 605 l 1,3,-1
 197 605 l 1,4,-1
 183 407 l 1,5,-1
 183 197 l 1,6,-1
 197 0 l 1,7,-1
 85 0 l 1,0,-1
172 737 m 1,8,9
 199 777 199 777 230 798 c 1,10,11
 266 773 266 773 291 737 c 1,12,13
 268 702 268 702 230 676 c 1,14,15
 197 698 197 698 172 737 c 1,8,9
-9 737 m 1,16,17
 17 775 17 775 52 798 c 1,18,19
 83 775 83 775 110 737 c 1,20,21
 83 698 83 698 52 676 c 1,22,23
 15 700 15 700 -9 737 c 1,16,17
EndSplineSet
EndChar

StartChar: Igrave
Encoding: 204 204 137
Width: 282
Flags: MW
HStem: 0 21G<85 85 85 197> 585 20G<85 197 197 197> 800 20G<72 72>
VStem: 99 84<198 407 197 408 197 408>
LayerCount: 2
Fore
SplineSet
85 0 m 1,0,-1
 99 198 l 1,1,-1
 99 408 l 1,2,-1
 85 605 l 1,3,-1
 197 605 l 1,4,-1
 183 407 l 1,5,-1
 183 197 l 1,6,-1
 197 0 l 1,7,-1
 85 0 l 1,0,-1
210 685 m 1,8,-1
 187 653 l 1,9,-1
 13 756 l 1,10,-1
 72 820 l 1,11,-1
 210 685 l 1,8,-1
EndSplineSet
EndChar

StartChar: Ntilde
Encoding: 209 209 138
Width: 656
Flags: MW
HStem: -3 21G<500 500> 0 21G<80 180 80 80 576 576> 585 20G<476 576 576 576> 654 20G<389 404> 778 20G<252 267>
VStem: 94 72<198 408 408 408> 490 79
LayerCount: 2
Fore
SplineSet
500 -3 m 1,0,-1
 472 62 l 1,1,-1
 166 446 l 1,2,-1
 166 197 l 1,3,-1
 180 0 l 1,4,-1
 80 0 l 1,5,-1
 94 198 l 1,6,-1
 94 408 l 1,7,-1
 80 603 l 1,8,-1
 174 607 l 1,9,-1
 202 540 l 1,10,-1
 490 178 l 1,11,-1
 490 408 l 1,12,-1
 476 605 l 1,13,-1
 576 605 l 1,14,-1
 562 407 l 1,15,-1
 562 221 l 1,16,-1
 576 0 l 1,17,-1
 500 -3 l 1,0,-1
452 793 m 1,18,-1
 474 776 l 1,19,20
 433 699 433 699 404 674 c 1,21,22
 381 674 381 674 361 682.5 c 128,-1,23
 341 691 341 691 264 734 c 1,24,-1
 204 679 l 1,25,-1
 182 696 l 1,26,27
 226 774 226 774 252 798 c 1,28,29
 274 798 274 798 296 788.5 c 128,-1,30
 318 779 318 779 392 738 c 1,31,-1
 452 793 l 1,18,-1
EndSplineSet
EndChar

StartChar: Oacute
Encoding: 211 211 139
Width: 688
Flags: MW
HStem: -15 66<294 376 294 424.5> 554 66<309 393.5> 800 20G<434 434>
VStem: 55 101<219 344.5 219 393.5> 532 101<258.5 386.5>
LayerCount: 2
Fore
SplineSet
55 293 m 0,0,1
 55 444 55 444 136 532 c 128,-1,2
 217 620 217 620 354 620 c 0,3,4
 485 620 485 620 559 538 c 128,-1,5
 633 456 633 456 633 311 c 0,6,7
 633 162 633 162 551.5 73.5 c 128,-1,8
 470 -15 470 -15 333 -15 c 0,9,10
 203 -15 203 -15 129 67.5 c 128,-1,11
 55 150 55 150 55 293 c 0,0,1
156 297 m 0,12,13
 156 180 156 180 209 115.5 c 128,-1,14
 262 51 262 51 358 51 c 0,15,16
 415 51 415 51 469 74 c 1,17,18
 495 100 495 100 513.5 167.5 c 128,-1,19
 532 235 532 235 532 306 c 0,20,21
 532 427 532 427 479.5 490.5 c 128,-1,22
 427 554 427 554 327 554 c 0,23,24
 270 554 270 554 219 531 c 1,25,26
 193 506 193 506 174.5 437 c 128,-1,27
 156 368 156 368 156 297 c 0,12,13
318 653 m 1,28,-1
 295 685 l 1,29,-1
 434 820 l 1,30,-1
 493 755 l 1,31,-1
 318 653 l 1,28,-1
EndSplineSet
EndChar

StartChar: Ocircumflex
Encoding: 212 212 140
Width: 688
Flags: MW
HStem: -15 66<294 376 294 424.5> 554 66<309 393.5> 795 20G<344 344>
VStem: 55 101<219 344.5 219 393.5> 532 101<258.5 386.5>
LayerCount: 2
Fore
SplineSet
55 293 m 0,0,1
 55 444 55 444 136 532 c 128,-1,2
 217 620 217 620 354 620 c 0,3,4
 485 620 485 620 559 538 c 128,-1,5
 633 456 633 456 633 311 c 0,6,7
 633 162 633 162 551.5 73.5 c 128,-1,8
 470 -15 470 -15 333 -15 c 0,9,10
 203 -15 203 -15 129 67.5 c 128,-1,11
 55 150 55 150 55 293 c 0,0,1
156 297 m 0,12,13
 156 180 156 180 209 115.5 c 128,-1,14
 262 51 262 51 358 51 c 0,15,16
 415 51 415 51 469 74 c 1,17,18
 495 100 495 100 513.5 167.5 c 128,-1,19
 532 235 532 235 532 306 c 0,20,21
 532 427 532 427 479.5 490.5 c 128,-1,22
 427 554 427 554 327 554 c 0,23,24
 270 554 270 554 219 531 c 1,25,26
 193 506 193 506 174.5 437 c 128,-1,27
 156 368 156 368 156 297 c 0,12,13
229 653 m 1,28,-1
 206 685 l 1,29,-1
 344 815 l 1,30,-1
 482 685 l 1,31,-1
 459 653 l 1,32,-1
 344 729 l 1,33,-1
 229 653 l 1,28,-1
EndSplineSet
EndChar

StartChar: Odieresis
Encoding: 214 214 141
Width: 688
Flags: MW
HStem: -15 66<294 376 294 424.5> 554 66<309 393.5> 778 20G
VStem: 55 101<219 344.5 219 393.5> 532 101<258.5 386.5>
LayerCount: 2
Fore
SplineSet
55 293 m 0,0,1
 55 444 55 444 136 532 c 128,-1,2
 217 620 217 620 354 620 c 0,3,4
 485 620 485 620 559 538 c 128,-1,5
 633 456 633 456 633 311 c 0,6,7
 633 162 633 162 551.5 73.5 c 128,-1,8
 470 -15 470 -15 333 -15 c 0,9,10
 203 -15 203 -15 129 67.5 c 128,-1,11
 55 150 55 150 55 293 c 0,0,1
156 297 m 0,12,13
 156 180 156 180 209 115.5 c 128,-1,14
 262 51 262 51 358 51 c 0,15,16
 415 51 415 51 469 74 c 1,17,18
 495 100 495 100 513.5 167.5 c 128,-1,19
 532 235 532 235 532 306 c 0,20,21
 532 427 532 427 479.5 490.5 c 128,-1,22
 427 554 427 554 327 554 c 0,23,24
 270 554 270 554 219 531 c 1,25,26
 193 506 193 506 174.5 437 c 128,-1,27
 156 368 156 368 156 297 c 0,12,13
194 737 m 1,28,29
 220 775 220 775 255 798 c 1,30,31
 286 775 286 775 313 737 c 1,32,33
 286 698 286 698 255 676 c 1,34,35
 218 700 218 700 194 737 c 1,28,29
375 737 m 1,36,37
 402 777 402 777 433 798 c 1,38,39
 469 773 469 773 494 737 c 1,40,41
 471 702 471 702 433 676 c 1,42,43
 400 698 400 698 375 737 c 1,36,37
EndSplineSet
EndChar

StartChar: Ograve
Encoding: 210 210 142
Width: 688
Flags: MW
HStem: -15 66<294 376 294 424.5> 554 66<309 393.5> 800 20G<284 284>
VStem: 55 101<219 344.5 219 393.5> 532 101<258.5 386.5>
LayerCount: 2
Fore
SplineSet
55 293 m 0,0,1
 55 444 55 444 136 532 c 128,-1,2
 217 620 217 620 354 620 c 0,3,4
 485 620 485 620 559 538 c 128,-1,5
 633 456 633 456 633 311 c 0,6,7
 633 162 633 162 551.5 73.5 c 128,-1,8
 470 -15 470 -15 333 -15 c 0,9,10
 203 -15 203 -15 129 67.5 c 128,-1,11
 55 150 55 150 55 293 c 0,0,1
156 297 m 0,12,13
 156 180 156 180 209 115.5 c 128,-1,14
 262 51 262 51 358 51 c 0,15,16
 415 51 415 51 469 74 c 1,17,18
 495 100 495 100 513.5 167.5 c 128,-1,19
 532 235 532 235 532 306 c 0,20,21
 532 427 532 427 479.5 490.5 c 128,-1,22
 427 554 427 554 327 554 c 0,23,24
 270 554 270 554 219 531 c 1,25,26
 193 506 193 506 174.5 437 c 128,-1,27
 156 368 156 368 156 297 c 0,12,13
422 685 m 1,28,-1
 399 653 l 1,29,-1
 225 756 l 1,30,-1
 284 820 l 1,31,-1
 422 685 l 1,28,-1
EndSplineSet
EndChar

StartChar: Otilde
Encoding: 213 213 143
Width: 688
Flags: MW
HStem: -15 66<294 376 294 424.5> 554 66<309 393.5> 654 20G<415 430> 778 20G<278 293>
VStem: 55 101<219 344.5 219 393.5> 532 101<258.5 386.5>
LayerCount: 2
Fore
SplineSet
55 293 m 0,0,1
 55 444 55 444 136 532 c 128,-1,2
 217 620 217 620 354 620 c 0,3,4
 485 620 485 620 559 538 c 128,-1,5
 633 456 633 456 633 311 c 0,6,7
 633 162 633 162 551.5 73.5 c 128,-1,8
 470 -15 470 -15 333 -15 c 0,9,10
 203 -15 203 -15 129 67.5 c 128,-1,11
 55 150 55 150 55 293 c 0,0,1
156 297 m 0,12,13
 156 180 156 180 209 115.5 c 128,-1,14
 262 51 262 51 358 51 c 0,15,16
 415 51 415 51 469 74 c 1,17,18
 495 100 495 100 513.5 167.5 c 128,-1,19
 532 235 532 235 532 306 c 0,20,21
 532 427 532 427 479.5 490.5 c 128,-1,22
 427 554 427 554 327 554 c 0,23,24
 270 554 270 554 219 531 c 1,25,26
 193 506 193 506 174.5 437 c 128,-1,27
 156 368 156 368 156 297 c 0,12,13
478 793 m 1,28,-1
 500 776 l 1,29,30
 459 699 459 699 430 674 c 1,31,32
 407 674 407 674 387 682.5 c 128,-1,33
 367 691 367 691 290 734 c 1,34,-1
 230 679 l 1,35,-1
 208 696 l 1,36,37
 252 774 252 774 278 798 c 1,38,39
 300 798 300 798 322 788.5 c 128,-1,40
 344 779 344 779 418 738 c 1,41,-1
 478 793 l 1,28,-1
EndSplineSet
EndChar

StartChar: Scaron
Encoding: 352 352 144
Width: 502
Flags: MW
HStem: -15 67<233 278.5 233 284.5> 551 66<231.5 269.5> 797 20G<136 136 366 366>
VStem: 61 83<410.5 500> 366 81<118 209>
LayerCount: 2
Fore
SplineSet
55 17 m 1,0,-1
 89 118 l 1,1,2
 147 80 147 80 183.5 66 c 128,-1,3
 220 52 220 52 259 52 c 0,4,5
 325 52 325 52 363 92 c 1,6,7
 366 107 366 107 366 123 c 0,8,9
 366 170 366 170 334.5 202 c 128,-1,10
 303 234 303 234 258.5 253 c 128,-1,11
 214 272 214 272 169 293 c 128,-1,12
 124 314 124 314 92.5 353 c 128,-1,13
 61 392 61 392 61 450 c 0,14,15
 61 525 61 525 123.5 571 c 128,-1,16
 186 617 186 617 288 617 c 0,17,18
 359 617 359 617 421 589 c 1,19,-1
 392 495 l 1,20,21
 308 551 308 551 248 551 c 0,22,23
 199 551 199 551 144 517 c 1,24,25
 144 458 144 458 175 420.5 c 128,-1,26
 206 383 206 383 251 363 c 128,-1,27
 296 343 296 343 340.5 323 c 128,-1,28
 385 303 385 303 416 265.5 c 128,-1,29
 447 228 447 228 447 169 c 0,30,31
 447 89 447 89 382.5 37 c 128,-1,32
 318 -15 318 -15 218 -15 c 0,33,34
 136 -15 136 -15 55 17 c 1,0,-1
113 785 m 1,35,-1
 136 817 l 1,36,-1
 251 740 l 1,37,-1
 366 817 l 1,38,-1
 389 785 l 1,39,-1
 251 655 l 1,40,-1
 113 785 l 1,35,-1
EndSplineSet
EndChar

StartChar: Uacute
Encoding: 218 218 145
Width: 631
Flags: MW
HStem: -15 75<268 371.5 268 385.5> 585 20G<70 191 191 191 456 561 561 561> 800 20G<405 405>
VStem: 84 94<263 300 300 407> 462 85
LayerCount: 2
Fore
SplineSet
84 263 m 2,0,-1
 84 408 l 1,1,-1
 70 605 l 1,2,-1
 191 605 l 1,3,-1
 178 407 l 1,4,-1
 178 300 l 2,5,6
 178 171 178 171 210.5 115.5 c 128,-1,7
 243 60 243 60 318 60 c 0,8,9
 398 60 398 60 433.5 109 c 128,-1,10
 469 158 469 158 469 268 c 2,11,-1
 469 407 l 1,12,-1
 456 605 l 1,13,-1
 561 605 l 1,14,-1
 547 408 l 1,15,-1
 547 275 l 2,16,17
 547 -15 547 -15 304 -15 c 0,18,19
 84 -15 84 -15 84 263 c 2,0,-1
289 653 m 1,20,-1
 266 685 l 1,21,-1
 405 820 l 1,22,-1
 464 755 l 1,23,-1
 289 653 l 1,20,-1
EndSplineSet
EndChar

StartChar: Ucircumflex
Encoding: 219 219 146
Width: 631
Flags: MW
HStem: -15 75<268 371.5 268 385.5> 585 20G<70 191 191 191 456 561 561 561> 795 20G<315 315>
VStem: 84 94<263 300 300 407> 462 85
LayerCount: 2
Fore
SplineSet
84 263 m 2,0,-1
 84 408 l 1,1,-1
 70 605 l 1,2,-1
 191 605 l 1,3,-1
 178 407 l 1,4,-1
 178 300 l 2,5,6
 178 171 178 171 210.5 115.5 c 128,-1,7
 243 60 243 60 318 60 c 0,8,9
 398 60 398 60 433.5 109 c 128,-1,10
 469 158 469 158 469 268 c 2,11,-1
 469 407 l 1,12,-1
 456 605 l 1,13,-1
 561 605 l 1,14,-1
 547 408 l 1,15,-1
 547 275 l 2,16,17
 547 -15 547 -15 304 -15 c 0,18,19
 84 -15 84 -15 84 263 c 2,0,-1
200 653 m 1,20,-1
 177 685 l 1,21,-1
 315 815 l 1,22,-1
 453 685 l 1,23,-1
 430 653 l 1,24,-1
 315 729 l 1,25,-1
 200 653 l 1,20,-1
EndSplineSet
EndChar

StartChar: Udieresis
Encoding: 220 220 147
Width: 631
Flags: MW
HStem: -15 75<268 371.5 268 385.5> 585 20G<70 191 191 191 456 561 561 561> 778 20G
VStem: 84 94<263 300 300 407> 462 85
LayerCount: 2
Fore
SplineSet
84 263 m 2,0,-1
 84 408 l 1,1,-1
 70 605 l 1,2,-1
 191 605 l 1,3,-1
 178 407 l 1,4,-1
 178 300 l 2,5,6
 178 171 178 171 210.5 115.5 c 128,-1,7
 243 60 243 60 318 60 c 0,8,9
 398 60 398 60 433.5 109 c 128,-1,10
 469 158 469 158 469 268 c 2,11,-1
 469 407 l 1,12,-1
 456 605 l 1,13,-1
 561 605 l 1,14,-1
 547 408 l 1,15,-1
 547 275 l 2,16,17
 547 -15 547 -15 304 -15 c 0,18,19
 84 -15 84 -15 84 263 c 2,0,-1
346 737 m 1,20,21
 373 777 373 777 404 798 c 1,22,23
 440 773 440 773 465 737 c 1,24,25
 442 702 442 702 404 676 c 1,26,27
 371 698 371 698 346 737 c 1,20,21
165 737 m 1,28,29
 191 775 191 775 226 798 c 1,30,31
 257 775 257 775 284 737 c 1,32,33
 257 698 257 698 226 676 c 1,34,35
 189 700 189 700 165 737 c 1,28,29
EndSplineSet
EndChar

StartChar: Ugrave
Encoding: 217 217 148
Width: 631
Flags: MW
HStem: -15 75<268 371.5 268 385.5> 585 20G<70 191 191 191 456 561 561 561> 800 20G<256 256>
VStem: 84 94<263 300 300 407> 462 85
LayerCount: 2
Fore
SplineSet
84 263 m 2,0,-1
 84 408 l 1,1,-1
 70 605 l 1,2,-1
 191 605 l 1,3,-1
 178 407 l 1,4,-1
 178 300 l 2,5,6
 178 171 178 171 210.5 115.5 c 128,-1,7
 243 60 243 60 318 60 c 0,8,9
 398 60 398 60 433.5 109 c 128,-1,10
 469 158 469 158 469 268 c 2,11,-1
 469 407 l 1,12,-1
 456 605 l 1,13,-1
 561 605 l 1,14,-1
 547 408 l 1,15,-1
 547 275 l 2,16,17
 547 -15 547 -15 304 -15 c 0,18,19
 84 -15 84 -15 84 263 c 2,0,-1
394 685 m 1,20,-1
 371 653 l 1,21,-1
 197 756 l 1,22,-1
 256 820 l 1,23,-1
 394 685 l 1,20,-1
EndSplineSet
EndChar

StartChar: Yacute
Encoding: 221 221 149
Width: 495
Flags: MW
HStem: 0 21G<203 203 203 315> 585 20G<372 490 490 490> 800 20G<337 337>
VStem: 210 98
LayerCount: 2
Fore
SplineSet
203 0 m 1,0,-1
 217 198 l 1,1,-1
 217 242 l 1,2,-1
 15 603 l 1,3,-1
 147 612 l 1,4,-1
 171 514 l 1,5,-1
 262 330 l 1,6,-1
 348 505 l 1,7,-1
 372 605 l 1,8,-1
 490 605 l 1,9,-1
 301 262 l 1,10,-1
 301 197 l 1,11,-1
 315 0 l 1,12,-1
 203 0 l 1,0,-1
221 653 m 1,13,-1
 198 685 l 1,14,-1
 337 820 l 1,15,-1
 396 755 l 1,16,-1
 221 653 l 1,13,-1
EndSplineSet
EndChar

StartChar: Ydieresis
Encoding: 376 376 150
Width: 495
Flags: MW
HStem: 0 21G<203 203 203 315> 585 20G<372 490 490 490> 778 20G
VStem: 210 98
LayerCount: 2
Fore
SplineSet
203 0 m 1,0,-1
 217 198 l 1,1,-1
 217 242 l 1,2,-1
 15 603 l 1,3,-1
 147 612 l 1,4,-1
 171 514 l 1,5,-1
 262 330 l 1,6,-1
 348 505 l 1,7,-1
 372 605 l 1,8,-1
 490 605 l 1,9,-1
 301 262 l 1,10,-1
 301 197 l 1,11,-1
 315 0 l 1,12,-1
 203 0 l 1,0,-1
291 737 m 1,13,14
 318 777 318 777 349 798 c 1,15,16
 385 773 385 773 410 737 c 1,17,18
 387 702 387 702 349 676 c 1,19,20
 316 698 316 698 291 737 c 1,13,14
110 737 m 1,21,22
 136 775 136 775 171 798 c 1,23,24
 202 775 202 775 229 737 c 1,25,26
 202 698 202 698 171 676 c 1,27,28
 134 700 134 700 110 737 c 1,21,22
EndSplineSet
EndChar

StartChar: Zcaron
Encoding: 381 381 151
Width: 496
Flags: MW
HStem: -8 21G<31 31> 0 70<138 324 138 465 99 324> 536 69<162 349 162 162> 797 20G<133 133 363 363>
LayerCount: 2
Fore
SplineSet
110 785 m 1,0,-1
 133 817 l 1,1,-1
 248 740 l 1,2,-1
 363 817 l 1,3,-1
 386 785 l 1,4,-1
 248 655 l 1,5,-1
 110 785 l 1,0,-1
31 -8 m 1,6,-1
 20 38 l 1,7,-1
 349 536 l 1,8,-1
 162 536 l 1,9,-1
 40 500 l 1,10,-1
 28 605 l 1,11,-1
 380 605 l 1,12,-1
 454 614 l 1,13,-1
 465 567 l 1,14,-1
 138 70 l 1,15,-1
 324 70 l 1,16,-1
 453 110 l 1,17,-1
 465 0 l 1,18,-1
 99 0 l 1,19,-1
 31 -8 l 1,6,-1
EndSplineSet
EndChar

StartChar: icircumflex
Encoding: 238 238 152
Width: 229
Flags: MW
HStem: 0 21G<58 58 58 160> 644 20G<111 111>
VStem: 65 89
LayerCount: 2
Fore
SplineSet
58 0 m 1,0,-1
 72 198 l 1,1,-1
 72 338 l 1,2,-1
 57 441 l 1,3,-1
 160 451 l 1,4,-1
 149 255 l 1,5,-1
 149 197 l 1,6,-1
 160 0 l 1,7,-1
 58 0 l 1,0,-1
-4 502 m 1,8,-1
 -27 534 l 1,9,-1
 111 664 l 1,10,-1
 249 534 l 1,11,-1
 226 502 l 1,12,-1
 111 578 l 1,13,-1
 -4 502 l 1,8,-1
EndSplineSet
EndChar

StartChar: idieresis
Encoding: 239 239 153
Width: 229
Flags: MW
HStem: 0 21G<58 58 58 160> 627 20G
VStem: 65 89
LayerCount: 2
Fore
SplineSet
58 0 m 1,0,-1
 72 198 l 1,1,-1
 72 338 l 1,2,-1
 57 441 l 1,3,-1
 160 451 l 1,4,-1
 149 255 l 1,5,-1
 149 197 l 1,6,-1
 160 0 l 1,7,-1
 58 0 l 1,0,-1
142 586 m 1,8,9
 169 626 169 626 200 647 c 1,10,11
 236 622 236 622 261 586 c 1,12,13
 238 551 238 551 200 525 c 1,14,15
 167 547 167 547 142 586 c 1,8,9
-39 586 m 1,16,17
 -13 624 -13 624 22 647 c 1,18,19
 53 624 53 624 80 586 c 1,20,21
 53 547 53 547 22 525 c 1,22,23
 -15 549 -15 549 -39 586 c 1,16,17
EndSplineSet
EndChar

StartChar: igrave
Encoding: 236 236 154
Width: 229
Flags: MW
HStem: 0 21G<58 58 58 160> 649 20G<44 44>
VStem: 65 89
LayerCount: 2
Fore
SplineSet
58 0 m 1,0,-1
 72 198 l 1,1,-1
 72 338 l 1,2,-1
 57 441 l 1,3,-1
 160 451 l 1,4,-1
 149 255 l 1,5,-1
 149 197 l 1,6,-1
 160 0 l 1,7,-1
 58 0 l 1,0,-1
182 534 m 1,8,-1
 159 502 l 1,9,-1
 -15 605 l 1,10,-1
 44 669 l 1,11,-1
 182 534 l 1,8,-1
EndSplineSet
EndChar

StartChar: ntilde
Encoding: 241 241 155
Width: 505
Flags: MW
HStem: -5 21G<332 332> 0 21G<66 66 66 162 430 430> 385 69<299 313> 627 20G<176 191>
VStem: 73 89 346 84<210 316 0 317 0 341.5>
LayerCount: 2
Fore
SplineSet
66 0 m 1,0,-1
 80 198 l 1,1,-1
 80 339 l 1,2,-1
 65 442 l 1,3,-1
 162 452 l 1,4,-1
 162 401 l 1,5,6
 243 454 243 454 325 454 c 0,7,8
 376 454 376 454 403 418.5 c 128,-1,9
 430 383 430 383 430 316 c 2,10,-1
 430 0 l 1,11,-1
 332 -5 l 1,12,-1
 346 210 l 1,13,-1
 346 317 l 2,14,15
 346 354 346 354 334 369.5 c 128,-1,16
 322 385 322 385 294 385 c 0,17,18
 233 385 233 385 162 348 c 1,19,-1
 162 0 l 1,20,-1
 66 0 l 1,0,-1
376 642 m 1,21,-1
 398 625 l 1,22,23
 357 548 357 548 328 523 c 1,24,25
 305 523 305 523 285 531.5 c 128,-1,26
 265 540 265 540 188 583 c 1,27,-1
 128 528 l 1,28,-1
 106 545 l 1,29,30
 150 623 150 623 176 647 c 1,31,32
 198 647 198 647 220 637.5 c 128,-1,33
 242 628 242 628 316 587 c 1,34,-1
 376 642 l 1,21,-1
EndSplineSet
EndChar

StartChar: oacute
Encoding: 243 243 156
Width: 500
Flags: MW
HStem: -15 61<220 271.5 220 309> 393 61<228 278.5> 649 20G<320 320>
VStem: 50 92<164.5 259.5 164.5 284.5> 358 92<178 274.5>
LayerCount: 2
Fore
SplineSet
50 210 m 0,0,1
 50 322 50 322 105 388 c 128,-1,2
 160 454 160 454 252 454 c 0,3,4
 347 454 347 454 398.5 395.5 c 128,-1,5
 450 337 450 337 450 230 c 0,6,7
 450 118 450 118 395 51.5 c 128,-1,8
 340 -15 340 -15 247 -15 c 0,9,10
 153 -15 153 -15 101.5 44 c 128,-1,11
 50 103 50 103 50 210 c 0,0,1
261 46 m 0,12,13
 291 46 291 46 325 56 c 1,14,15
 358 103 358 103 358 212 c 0,16,17
 358 306 358 306 328.5 349.5 c 128,-1,18
 299 393 299 393 237 393 c 0,19,20
 214 393 214 393 175 383 c 1,21,22
 142 337 142 337 142 227 c 0,23,24
 142 133 142 133 170.5 89.5 c 128,-1,25
 199 46 199 46 261 46 c 0,12,13
204 502 m 1,26,-1
 181 534 l 1,27,-1
 320 669 l 1,28,-1
 379 604 l 1,29,-1
 204 502 l 1,26,-1
EndSplineSet
EndChar

StartChar: ocircumflex
Encoding: 244 244 157
Width: 500
Flags: MW
HStem: -15 61<220 271.5 220 309> 393 61<228 278.5> 644 20G<250 250>
VStem: 50 92<164.5 259.5 164.5 284.5> 358 92<178 274.5>
LayerCount: 2
Fore
SplineSet
50 210 m 0,0,1
 50 322 50 322 105 388 c 128,-1,2
 160 454 160 454 252 454 c 0,3,4
 347 454 347 454 398.5 395.5 c 128,-1,5
 450 337 450 337 450 230 c 0,6,7
 450 118 450 118 395 51.5 c 128,-1,8
 340 -15 340 -15 247 -15 c 0,9,10
 153 -15 153 -15 101.5 44 c 128,-1,11
 50 103 50 103 50 210 c 0,0,1
261 46 m 0,12,13
 291 46 291 46 325 56 c 1,14,15
 358 103 358 103 358 212 c 0,16,17
 358 306 358 306 328.5 349.5 c 128,-1,18
 299 393 299 393 237 393 c 0,19,20
 214 393 214 393 175 383 c 1,21,22
 142 337 142 337 142 227 c 0,23,24
 142 133 142 133 170.5 89.5 c 128,-1,25
 199 46 199 46 261 46 c 0,12,13
135 502 m 1,26,-1
 112 534 l 1,27,-1
 250 664 l 1,28,-1
 388 534 l 1,29,-1
 365 502 l 1,30,-1
 250 578 l 1,31,-1
 135 502 l 1,26,-1
EndSplineSet
EndChar

StartChar: odieresis
Encoding: 246 246 158
Width: 500
Flags: MW
HStem: -15 61<220 271.5 220 309> 393 61<228 278.5> 627 20G
VStem: 50 92<164.5 259.5 164.5 284.5> 358 92<178 274.5>
LayerCount: 2
Fore
SplineSet
50 210 m 0,0,1
 50 322 50 322 105 388 c 128,-1,2
 160 454 160 454 252 454 c 0,3,4
 347 454 347 454 398.5 395.5 c 128,-1,5
 450 337 450 337 450 230 c 0,6,7
 450 118 450 118 395 51.5 c 128,-1,8
 340 -15 340 -15 247 -15 c 0,9,10
 153 -15 153 -15 101.5 44 c 128,-1,11
 50 103 50 103 50 210 c 0,0,1
261 46 m 0,12,13
 291 46 291 46 325 56 c 1,14,15
 358 103 358 103 358 212 c 0,16,17
 358 306 358 306 328.5 349.5 c 128,-1,18
 299 393 299 393 237 393 c 0,19,20
 214 393 214 393 175 383 c 1,21,22
 142 337 142 337 142 227 c 0,23,24
 142 133 142 133 170.5 89.5 c 128,-1,25
 199 46 199 46 261 46 c 0,12,13
100 586 m 1,26,27
 126 624 126 624 161 647 c 1,28,29
 192 624 192 624 219 586 c 1,30,31
 192 547 192 547 161 525 c 1,32,33
 124 549 124 549 100 586 c 1,26,27
281 586 m 1,34,35
 308 626 308 626 339 647 c 1,36,37
 375 622 375 622 400 586 c 1,38,39
 377 551 377 551 339 525 c 1,40,41
 306 547 306 547 281 586 c 1,34,35
EndSplineSet
EndChar

StartChar: ograve
Encoding: 242 242 159
Width: 500
Flags: MW
HStem: -15 61<220 271.5 220 309> 393 61<228 278.5> 649 20G<190 190>
VStem: 50 92<164.5 259.5 164.5 284.5> 358 92<178 274.5>
LayerCount: 2
Fore
SplineSet
50 210 m 0,0,1
 50 322 50 322 105 388 c 128,-1,2
 160 454 160 454 252 454 c 0,3,4
 347 454 347 454 398.5 395.5 c 128,-1,5
 450 337 450 337 450 230 c 0,6,7
 450 118 450 118 395 51.5 c 128,-1,8
 340 -15 340 -15 247 -15 c 0,9,10
 153 -15 153 -15 101.5 44 c 128,-1,11
 50 103 50 103 50 210 c 0,0,1
261 46 m 0,12,13
 291 46 291 46 325 56 c 1,14,15
 358 103 358 103 358 212 c 0,16,17
 358 306 358 306 328.5 349.5 c 128,-1,18
 299 393 299 393 237 393 c 0,19,20
 214 393 214 393 175 383 c 1,21,22
 142 337 142 337 142 227 c 0,23,24
 142 133 142 133 170.5 89.5 c 128,-1,25
 199 46 199 46 261 46 c 0,12,13
328 534 m 1,26,-1
 305 502 l 1,27,-1
 131 605 l 1,28,-1
 190 669 l 1,29,-1
 328 534 l 1,26,-1
EndSplineSet
EndChar

StartChar: otilde
Encoding: 245 245 160
Width: 500
Flags: MW
HStem: -15 61<220 271.5 220 309> 393 61<228 278.5> 627 20G<181 196>
VStem: 50 92<164.5 259.5 164.5 284.5> 358 92<178 274.5>
LayerCount: 2
Fore
SplineSet
50 210 m 0,0,1
 50 322 50 322 105 388 c 128,-1,2
 160 454 160 454 252 454 c 0,3,4
 347 454 347 454 398.5 395.5 c 128,-1,5
 450 337 450 337 450 230 c 0,6,7
 450 118 450 118 395 51.5 c 128,-1,8
 340 -15 340 -15 247 -15 c 0,9,10
 153 -15 153 -15 101.5 44 c 128,-1,11
 50 103 50 103 50 210 c 0,0,1
261 46 m 0,12,13
 291 46 291 46 325 56 c 1,14,15
 358 103 358 103 358 212 c 0,16,17
 358 306 358 306 328.5 349.5 c 128,-1,18
 299 393 299 393 237 393 c 0,19,20
 214 393 214 393 175 383 c 1,21,22
 142 337 142 337 142 227 c 0,23,24
 142 133 142 133 170.5 89.5 c 128,-1,25
 199 46 199 46 261 46 c 0,12,13
381 642 m 1,26,-1
 403 625 l 1,27,28
 362 548 362 548 333 523 c 1,29,30
 310 523 310 523 290 531.5 c 128,-1,31
 270 540 270 540 193 583 c 1,32,-1
 133 528 l 1,33,-1
 111 545 l 1,34,35
 155 623 155 623 181 647 c 1,36,37
 203 647 203 647 225 637.5 c 128,-1,38
 247 628 247 628 321 587 c 1,39,-1
 381 642 l 1,26,-1
EndSplineSet
EndChar

StartChar: scaron
Encoding: 353 353 161
Width: 390
Flags: MW
HStem: -15 61<173.5 205.5 173.5 215> 393 61<184.5 213.5> 646 20G<92 92 322 322>
VStem: 53 72<350 361> 269 76<88.5 113.5>
LayerCount: 2
Fore
SplineSet
40 9 m 1,0,-1
 67 96 l 1,1,2
 138 46 138 46 193 46 c 0,3,4
 234 46 234 46 267 69 c 1,5,6
 269 75 269 75 269 93 c 0,7,8
 269 124 269 124 250.5 141.5 c 128,-1,9
 232 159 232 159 157 198 c 0,10,11
 100 227 100 227 76.5 255.5 c 128,-1,12
 53 284 53 284 53 324 c 0,13,14
 53 380 53 380 102.5 417 c 128,-1,15
 152 454 152 454 227 454 c 0,16,17
 285 454 285 454 331 434 c 1,18,-1
 307 356 l 1,19,20
 244 393 244 393 197 393 c 0,21,22
 159 393 159 393 125 373 c 1,23,24
 125 338 125 338 143.5 317 c 128,-1,25
 162 296 162 296 217 268 c 0,26,27
 288 231 288 231 316.5 200 c 128,-1,28
 345 169 345 169 345 129 c 0,29,30
 345 68 345 68 292.5 26.5 c 128,-1,31
 240 -15 240 -15 164 -15 c 0,32,33
 99 -15 99 -15 40 9 c 1,0,-1
69 634 m 1,34,-1
 92 666 l 1,35,-1
 207 589 l 1,36,-1
 322 666 l 1,37,-1
 345 634 l 1,38,-1
 207 504 l 1,39,-1
 69 634 l 1,34,-1
EndSplineSet
EndChar

StartChar: uacute
Encoding: 250 250 162
Width: 502
Flags: MW
HStem: -15 69<192 206> 649 20G<312 312>
VStem: 75 84<123 227> 337 90
LayerCount: 2
Fore
SplineSet
75 123 m 2,0,-1
 75 437 l 1,1,-1
 173 442 l 1,2,-1
 159 227 l 1,3,-1
 159 122 l 2,4,5
 159 85 159 85 171 69.5 c 128,-1,6
 183 54 183 54 211 54 c 0,7,8
 271 54 271 54 343 91 c 1,9,-1
 331 437 l 1,10,-1
 427 442 l 1,11,-1
 427 101 l 1,12,-1
 442 -2 l 1,13,-1
 343 -12 l 1,14,-1
 343 38 l 1,15,16
 262 -15 262 -15 180 -15 c 0,17,18
 129 -15 129 -15 102 20.5 c 128,-1,19
 75 56 75 56 75 123 c 2,0,-1
196 502 m 1,20,-1
 173 534 l 1,21,-1
 312 669 l 1,22,-1
 371 604 l 1,23,-1
 196 502 l 1,20,-1
EndSplineSet
EndChar

StartChar: ucircumflex
Encoding: 251 251 163
Width: 502
Flags: MW
HStem: -15 69<192 206> 644 20G<251 251>
VStem: 75 84<123 227> 337 90
LayerCount: 2
Fore
SplineSet
75 123 m 2,0,-1
 75 437 l 1,1,-1
 173 442 l 1,2,-1
 159 227 l 1,3,-1
 159 122 l 2,4,5
 159 85 159 85 171 69.5 c 128,-1,6
 183 54 183 54 211 54 c 0,7,8
 271 54 271 54 343 91 c 1,9,-1
 331 437 l 1,10,-1
 427 442 l 1,11,-1
 427 101 l 1,12,-1
 442 -2 l 1,13,-1
 343 -12 l 1,14,-1
 343 38 l 1,15,16
 262 -15 262 -15 180 -15 c 0,17,18
 129 -15 129 -15 102 20.5 c 128,-1,19
 75 56 75 56 75 123 c 2,0,-1
136 502 m 1,20,-1
 113 534 l 1,21,-1
 251 664 l 1,22,-1
 389 534 l 1,23,-1
 366 502 l 1,24,-1
 251 578 l 1,25,-1
 136 502 l 1,20,-1
EndSplineSet
EndChar

StartChar: udieresis
Encoding: 252 252 164
Width: 502
Flags: MW
HStem: -15 69<192 206> 627 20G
VStem: 75 84<123 227> 337 90
LayerCount: 2
Fore
SplineSet
75 123 m 2,0,-1
 75 437 l 1,1,-1
 173 442 l 1,2,-1
 159 227 l 1,3,-1
 159 122 l 2,4,5
 159 85 159 85 171 69.5 c 128,-1,6
 183 54 183 54 211 54 c 0,7,8
 271 54 271 54 343 91 c 1,9,-1
 331 437 l 1,10,-1
 427 442 l 1,11,-1
 427 101 l 1,12,-1
 442 -2 l 1,13,-1
 343 -12 l 1,14,-1
 343 38 l 1,15,16
 262 -15 262 -15 180 -15 c 0,17,18
 129 -15 129 -15 102 20.5 c 128,-1,19
 75 56 75 56 75 123 c 2,0,-1
282 586 m 1,20,21
 309 626 309 626 340 647 c 1,22,23
 376 622 376 622 401 586 c 1,24,25
 378 551 378 551 340 525 c 1,26,27
 307 547 307 547 282 586 c 1,20,21
101 586 m 1,28,29
 127 624 127 624 162 647 c 1,30,31
 193 624 193 624 220 586 c 1,32,33
 193 547 193 547 162 525 c 1,34,35
 125 549 125 549 101 586 c 1,28,29
EndSplineSet
EndChar

StartChar: ugrave
Encoding: 249 249 165
Width: 502
Flags: MW
HStem: -15 69<192 206> 649 20G<182 182>
VStem: 75 84<123 227> 337 90
LayerCount: 2
Fore
SplineSet
75 123 m 2,0,-1
 75 437 l 1,1,-1
 173 442 l 1,2,-1
 159 227 l 1,3,-1
 159 122 l 2,4,5
 159 85 159 85 171 69.5 c 128,-1,6
 183 54 183 54 211 54 c 0,7,8
 271 54 271 54 343 91 c 1,9,-1
 331 437 l 1,10,-1
 427 442 l 1,11,-1
 427 101 l 1,12,-1
 442 -2 l 1,13,-1
 343 -12 l 1,14,-1
 343 38 l 1,15,16
 262 -15 262 -15 180 -15 c 0,17,18
 129 -15 129 -15 102 20.5 c 128,-1,19
 75 56 75 56 75 123 c 2,0,-1
320 534 m 1,20,-1
 297 502 l 1,21,-1
 123 605 l 1,22,-1
 182 669 l 1,23,-1
 320 534 l 1,20,-1
EndSplineSet
EndChar

StartChar: yacute
Encoding: 253 253 166
Width: 426
Flags: MW
HStem: -200 21G<43 43> 419 20G<10 10 317 421 421 421> 649 20G<302 302>
LayerCount: 2
Fore
SplineSet
15 -111 m 1,0,-1
 112 -102 l 1,1,2
 151 -48 151 -48 179 10 c 1,3,-1
 10 439 l 1,4,-1
 117 446 l 1,5,-1
 129 352 l 1,6,-1
 219 104 l 1,7,8
 264 220 264 220 306 340 c 1,9,-1
 317 439 l 1,10,-1
 421 439 l 1,11,-1
 272 59 l 2,12,13
 219 -77 219 -77 167.5 -135 c 128,-1,14
 116 -193 116 -193 43 -200 c 1,15,-1
 15 -111 l 1,0,-1
186 502 m 1,16,-1
 163 534 l 1,17,-1
 302 669 l 1,18,-1
 361 604 l 1,19,-1
 186 502 l 1,16,-1
EndSplineSet
EndChar

StartChar: ydieresis
Encoding: 255 255 167
Width: 426
Flags: MW
HStem: -200 21G<43 43> 419 20G<10 10 317 421 421 421> 627 20G
LayerCount: 2
Fore
SplineSet
15 -111 m 1,0,-1
 112 -102 l 1,1,2
 151 -48 151 -48 179 10 c 1,3,-1
 10 439 l 1,4,-1
 117 446 l 1,5,-1
 129 352 l 1,6,-1
 219 104 l 1,7,8
 264 220 264 220 306 340 c 1,9,-1
 317 439 l 1,10,-1
 421 439 l 1,11,-1
 272 59 l 2,12,13
 219 -77 219 -77 167.5 -135 c 128,-1,14
 116 -193 116 -193 43 -200 c 1,15,-1
 15 -111 l 1,0,-1
250 586 m 1,16,17
 277 626 277 626 308 647 c 1,18,19
 344 622 344 622 369 586 c 1,20,21
 346 551 346 551 308 525 c 1,22,23
 275 547 275 547 250 586 c 1,16,17
69 586 m 1,24,25
 95 624 95 624 130 647 c 1,26,27
 161 624 161 624 188 586 c 1,28,29
 161 547 161 547 130 525 c 1,30,31
 93 549 93 549 69 586 c 1,24,25
EndSplineSet
EndChar

StartChar: zcaron
Encoding: 382 382 168
Width: 411
Flags: MW
HStem: -6 21G<37 37> 0 65 374 65 646 20G<94 94 324 324>
LayerCount: 2
Fore
SplineSet
37 -6 m 1,0,-1
 30 28 l 1,1,-1
 255 374 l 1,2,-1
 162 374 l 1,3,-1
 58 351 l 1,4,-1
 51 444 l 1,5,-1
 300 434 l 1,6,-1
 370 445 l 1,7,-1
 377 411 l 1,8,-1
 152 65 l 1,9,-1
 275 65 l 1,10,-1
 377 87 l 1,11,-1
 386 -5 l 1,12,-1
 105 5 l 1,13,-1
 37 -6 l 1,0,-1
71 634 m 1,14,-1
 94 666 l 1,15,-1
 209 589 l 1,16,-1
 324 666 l 1,17,-1
 347 634 l 1,18,-1
 209 504 l 1,19,-1
 71 634 l 1,14,-1
EndSplineSet
EndChar

StartChar: twosuperior
Encoding: 178 178 169
Width: 400
Flags: MW
HStem: 191 58<160 254 160 342> 490 57<169.5 198.5>
VStem: 248 77<437 455.5>
LayerCount: 2
Fore
SplineSet
61 191 m 1,0,-1
 53 224 l 1,1,2
 190 335 190 335 224 380 c 0,3,4
 248 412 248 412 248 440 c 0,5,6
 248 463 248 463 229 476.5 c 128,-1,7
 210 490 210 490 176 490 c 0,8,9
 131 490 131 490 82 467 c 1,10,-1
 62 519 l 1,11,12
 118 547 118 547 193 547 c 0,13,14
 254 547 254 547 289.5 521 c 128,-1,15
 325 495 325 495 325 451 c 0,16,17
 325 410 325 410 290 366 c 0,18,19
 258 327 258 327 160 249 c 1,20,-1
 254 249 l 1,21,-1
 348 262 l 1,22,-1
 342 191 l 1,23,-1
 61 191 l 1,0,-1
EndSplineSet
EndChar

StartChar: threesuperior
Encoding: 179 179 170
Width: 400
Flags: MW
HStem: 180 53<75 205> 355 42<114 167.5> 490 57<178 195.5>
VStem: 247 82
LayerCount: 2
Fore
SplineSet
71 186 m 1,0,-1
 75 233 l 1,1,2
 254 233 254 233 254 306 c 0,3,4
 254 333 254 333 223.5 344 c 128,-1,5
 193 355 193 355 116 355 c 1,6,-1
 114 397 l 1,7,8
 191 403 191 403 219 415 c 128,-1,9
 247 427 247 427 247 453 c 0,10,11
 247 475 247 475 229.5 482.5 c 128,-1,12
 212 490 212 490 162 490 c 1,13,-1
 95 466 l 1,14,-1
 73 528 l 1,15,16
 132 547 132 547 197 547 c 0,17,18
 320 547 320 547 320 470 c 0,19,20
 320 411 320 411 244 381 c 1,21,22
 282 377 282 377 305.5 353 c 128,-1,23
 329 329 329 329 329 294 c 0,24,25
 329 246 329 246 279 213 c 128,-1,26
 229 180 229 180 157 180 c 0,27,28
 118 180 118 180 71 186 c 1,0,-1
EndSplineSet
EndChar

StartChar: onesuperior
Encoding: 185 185 171
Width: 400
Flags: MW
HStem: 191 41 527 20G<232 248 248 248>
VStem: 180 68<346 470 470 470>
LayerCount: 2
Fore
SplineSet
99 450 m 1,0,-1
 91 486 l 1,1,-1
 232 547 l 1,2,-1
 248 547 l 1,3,-1
 248 242 l 1,4,-1
 324 249 l 1,5,-1
 327 191 l 1,6,-1
 95 191 l 1,7,-1
 97 229 l 1,8,-1
 172 235 l 1,9,-1
 180 346 l 1,10,-1
 180 470 l 1,11,-1
 99 450 l 1,0,-1
EndSplineSet
EndChar

StartChar: slash
Encoding: 47 47 172
Width: 309
Flags: MW
HStem: -40 21G<40 112 40 40> 640 20G<227 299 299 299>
LayerCount: 2
Fore
SplineSet
112 -40 m 1,0,-1
 40 -40 l 1,1,-1
 227 660 l 1,2,-1
 299 660 l 1,3,-1
 112 -40 l 1,0,-1
EndSplineSet
EndChar

StartChar: onehalf
Encoding: 189 189 173
Width: 848
Flags: MW
HStem: -35 21G<284 284> 0 58<595 689 595 777> 260 41 299 57<604.5 633.5> 596 20G<201 217 217 217> 621 20G
VStem: 149 68<415 539 539 539> 683 77<246 264.5>
LayerCount: 2
Fore
SplineSet
284 -35 m 1,0,-1
 217 -15 l 1,1,-1
 495 641 l 1,2,-1
 562 621 l 1,3,-1
 284 -35 l 1,0,-1
496 0 m 1,4,-1
 488 33 l 1,5,6
 625 144 625 144 659 189 c 0,7,8
 683 220 683 220 683 249 c 0,9,10
 683 272 683 272 664 285.5 c 128,-1,11
 645 299 645 299 611 299 c 0,12,13
 566 299 566 299 517 276 c 1,14,-1
 497 328 l 1,15,16
 553 356 553 356 628 356 c 0,17,18
 689 356 689 356 724.5 330 c 128,-1,19
 760 304 760 304 760 260 c 0,20,21
 760 219 760 219 725 175 c 0,22,23
 693 136 693 136 595 58 c 1,24,-1
 689 58 l 1,25,-1
 783 71 l 1,26,-1
 777 0 l 1,27,-1
 496 0 l 1,4,-1
68 519 m 1,28,-1
 60 555 l 1,29,-1
 201 616 l 1,30,-1
 217 616 l 1,31,-1
 217 311 l 1,32,-1
 293 318 l 1,33,-1
 296 260 l 1,34,-1
 64 260 l 1,35,-1
 66 298 l 1,36,-1
 141 304 l 1,37,-1
 149 415 l 1,38,-1
 149 539 l 1,39,-1
 68 519 l 1,28,-1
EndSplineSet
EndChar

StartChar: fraction
Encoding: 8260 8260 174
Width: 225
Flags: MW
HStem: -35 21G<7 7> 621 20G
LayerCount: 2
Fore
SplineSet
7 -35 m 1,0,-1
 -60 -15 l 1,1,-1
 218 641 l 1,2,-1
 285 621 l 1,3,-1
 7 -35 l 1,0,-1
EndSplineSet
EndChar

StartChar: onequarter
Encoding: 188 188 175
Width: 848
Flags: MW
HStem: -35 21G<337 337> 1 153<620 629 542 697 620 620> 101 53<542 629 542 629> 260 41 596 20G<254 270 270 270> 621 20G
VStem: 202 68<415 539 539 539> 629 68<86 101 1 101 159 270 270 270>
LayerCount: 2
Fore
SplineSet
337 -35 m 1,0,-1
 270 -15 l 1,1,-1
 548 641 l 1,2,-1
 615 621 l 1,3,-1
 337 -35 l 1,0,-1
488 101 m 1,4,-1
 482 145 l 1,5,-1
 643 357 l 1,6,-1
 697 357 l 1,7,-1
 697 159 l 1,8,-1
 742 167 l 1,9,-1
 736 101 l 1,10,-1
 697 101 l 1,11,-1
 697 1 l 1,12,-1
 620 1 l 1,13,-1
 629 86 l 1,14,-1
 629 101 l 1,15,-1
 488 101 l 1,4,-1
121 519 m 1,16,-1
 113 555 l 1,17,-1
 254 616 l 1,18,-1
 270 616 l 1,19,-1
 270 311 l 1,20,-1
 346 318 l 1,21,-1
 349 260 l 1,22,-1
 117 260 l 1,23,-1
 119 298 l 1,24,-1
 194 304 l 1,25,-1
 202 415 l 1,26,-1
 202 539 l 1,27,-1
 121 519 l 1,16,-1
542 154 m 1,28,-1
 629 154 l 1,29,-1
 629 270 l 1,30,-1
 542 154 l 1,28,-1
EndSplineSet
EndChar

StartChar: threequarters
Encoding: 190 190 176
Width: 848
Flags: MW
HStem: -35 21G<344 344> 1 153<627 636 549 704 627 627> 101 53<549 636 549 636> 253 53<111 241> 428 42<150 203.5> 563 57<214 231.5> 621 20G
VStem: 283 82 636 68<86 101 1 101 159 270 270 270>
LayerCount: 2
Fore
SplineSet
344 -35 m 1,0,-1
 277 -15 l 1,1,-1
 555 641 l 1,2,-1
 622 621 l 1,3,-1
 344 -35 l 1,0,-1
495 101 m 1,4,-1
 489 145 l 1,5,-1
 650 357 l 1,6,-1
 704 357 l 1,7,-1
 704 159 l 1,8,-1
 749 167 l 1,9,-1
 743 101 l 1,10,-1
 704 101 l 1,11,-1
 704 1 l 1,12,-1
 627 1 l 1,13,-1
 636 86 l 1,14,-1
 636 101 l 1,15,-1
 495 101 l 1,4,-1
107 259 m 1,16,-1
 111 306 l 1,17,18
 290 306 290 306 290 379 c 0,19,20
 290 406 290 406 259.5 417 c 128,-1,21
 229 428 229 428 152 428 c 1,22,-1
 150 470 l 1,23,24
 227 476 227 476 255 488 c 128,-1,25
 283 500 283 500 283 526 c 0,26,27
 283 548 283 548 265.5 555.5 c 128,-1,28
 248 563 248 563 198 563 c 1,29,-1
 131 539 l 1,30,-1
 109 601 l 1,31,32
 168 620 168 620 233 620 c 0,33,34
 356 620 356 620 356 543 c 0,35,36
 356 484 356 484 280 454 c 1,37,38
 318 450 318 450 341.5 426 c 128,-1,39
 365 402 365 402 365 367 c 0,40,41
 365 319 365 319 315 286 c 128,-1,42
 265 253 265 253 193 253 c 0,43,44
 154 253 154 253 107 259 c 1,16,-1
549 154 m 1,45,-1
 636 154 l 1,46,-1
 636 270 l 1,47,-1
 549 154 l 1,45,-1
EndSplineSet
EndChar

StartChar: perthousand
Encoding: 8240 8240 177
Width: 1189
Flags: MW
HStem: -26 21G<309 309> -15 52<617.5 662.5 617.5 682.5 958.5 1003.5> 216 52<182.5 227.5 182.5 247.5> 264 52<620 665 961 1006> 495 52<185 230> 538 20G<539 539>
VStem: 67 70<343.5 416.5 343.5 430.5> 276 70<345.5 419> 502 70<112.5 185.5 112.5 199.5> 711 70<114.5 188> 843 70<112.5 185.5 112.5 199.5> 1052 70<114.5 188>
LayerCount: 2
Fore
SplineSet
502 147 m 0,0,1
 502 226 502 226 540 271 c 128,-1,2
 578 316 578 316 644 316 c 0,3,4
 706 316 706 316 743.5 271.5 c 128,-1,5
 781 227 781 227 781 153 c 0,6,7
 781 75 781 75 743 30 c 128,-1,8
 705 -15 705 -15 638 -15 c 0,9,10
 576 -15 576 -15 539 29.5 c 128,-1,11
 502 74 502 74 502 147 c 0,0,1
843 147 m 0,12,13
 843 226 843 226 881 271 c 128,-1,14
 919 316 919 316 985 316 c 0,15,16
 1047 316 1047 316 1084.5 271.5 c 128,-1,17
 1122 227 1122 227 1122 153 c 0,18,19
 1122 75 1122 75 1084 30 c 128,-1,20
 1046 -15 1046 -15 979 -15 c 0,21,22
 917 -15 917 -15 880 29.5 c 128,-1,23
 843 74 843 74 843 147 c 0,12,13
67 378 m 0,24,25
 67 457 67 457 105 502 c 128,-1,26
 143 547 143 547 209 547 c 0,27,28
 271 547 271 547 308.5 502.5 c 128,-1,29
 346 458 346 458 346 384 c 0,30,31
 346 306 346 306 308 261 c 128,-1,32
 270 216 270 216 203 216 c 0,33,34
 141 216 141 216 104 260.5 c 128,-1,35
 67 305 67 305 67 378 c 0,24,25
309 -26 m 1,36,-1
 249 -2 l 1,37,-1
 539 558 l 1,38,-1
 599 534 l 1,39,-1
 309 -26 l 1,36,-1
137 379 m 0,40,41
 137 326 137 326 154.5 297 c 128,-1,42
 172 268 172 268 204 268 c 0,43,44
 276 268 276 268 276 383 c 0,45,46
 276 495 276 495 208 495 c 0,47,48
 137 495 137 495 137 379 c 0,40,41
913 148 m 0,49,50
 913 95 913 95 930.5 66 c 128,-1,51
 948 37 948 37 980 37 c 0,52,53
 1052 37 1052 37 1052 152 c 0,54,55
 1052 264 1052 264 984 264 c 0,56,57
 913 264 913 264 913 148 c 0,49,50
572 148 m 0,58,59
 572 95 572 95 589.5 66 c 128,-1,60
 607 37 607 37 639 37 c 0,61,62
 711 37 711 37 711 152 c 0,63,64
 711 264 711 264 643 264 c 0,65,66
 572 264 572 264 572 148 c 0,58,59
EndSplineSet
EndChar

StartChar: minus
Encoding: 8722 8722 178
Width: 516
Flags: MW
HStem: 196 69<79 437 83 433>
LayerCount: 2
Fore
SplineSet
79 196 m 1,0,-1
 83 265 l 1,1,-1
 437 265 l 1,2,-1
 433 196 l 1,3,-1
 79 196 l 1,0,-1
EndSplineSet
EndChar

StartChar: underscore
Encoding: 95 95 179
Width: 380
Flags: MW
HStem: -95 69<15 365 15 365>
LayerCount: 2
Fore
SplineSet
15 -95 m 1,0,-1
 15 -26 l 1,1,-1
 365 -26 l 1,2,-1
 365 -95 l 1,3,-1
 15 -95 l 1,0,-1
EndSplineSet
EndChar

StartChar: plus
Encoding: 43 43 180
Width: 516
Flags: MW
HStem: 53 21G<223 292 223 223> 196 69<81 223 81 223 292 435> 387 20G<223 292 292 292>
VStem: 223 69<53 196 53 196 265 407>
LayerCount: 2
Fore
SplineSet
81 196 m 1,0,-1
 81 265 l 1,1,-1
 223 265 l 1,2,-1
 223 407 l 1,3,-1
 292 407 l 1,4,-1
 292 265 l 1,5,-1
 435 265 l 1,6,-1
 435 196 l 1,7,-1
 292 196 l 1,8,-1
 292 53 l 1,9,-1
 223 53 l 1,10,-1
 223 196 l 1,11,-1
 81 196 l 1,0,-1
EndSplineSet
EndChar

StartChar: equal
Encoding: 61 61 181
Width: 516
Flags: MW
HStem: 101 69<81 435 81 435> 291 69<81 435 81 435>
LayerCount: 2
Fore
SplineSet
81 101 m 1,0,-1
 81 170 l 1,1,-1
 435 170 l 1,2,-1
 435 101 l 1,3,-1
 81 101 l 1,0,-1
81 291 m 1,4,-1
 81 360 l 1,5,-1
 435 360 l 1,6,-1
 435 291 l 1,7,-1
 81 291 l 1,4,-1
EndSplineSet
EndChar

StartChar: multiply
Encoding: 215 215 182
Width: 516
Flags: MW
HStem: 53 21G<130 130 386 386> 388 20G<130 130 386 386>
LayerCount: 2
Fore
SplineSet
130 53 m 1,0,-1
 81 102 l 1,1,-1
 209 230 l 1,2,-1
 81 359 l 1,3,-1
 130 408 l 1,4,-1
 258 279 l 1,5,-1
 386 408 l 1,6,-1
 435 359 l 1,7,-1
 307 230 l 1,8,-1
 435 102 l 1,9,-1
 386 53 l 1,10,-1
 258 181 l 1,11,-1
 130 53 l 1,0,-1
EndSplineSet
EndChar

StartChar: plusminus
Encoding: 177 177 183
Width: 516
Flags: MW
HStem: 0 69<79 437 83 433> 243 69<81 223 81 223 292 435> 434 20G<223 292 292 292>
VStem: 223 69<110 243 110 243 312 454>
LayerCount: 2
Fore
SplineSet
81 243 m 1,0,-1
 81 312 l 1,1,-1
 223 312 l 1,2,-1
 223 454 l 1,3,-1
 292 454 l 1,4,-1
 292 312 l 1,5,-1
 435 312 l 1,6,-1
 435 243 l 1,7,-1
 292 243 l 1,8,-1
 292 110 l 1,9,-1
 223 110 l 1,10,-1
 223 243 l 1,11,-1
 81 243 l 1,0,-1
79 0 m 1,12,-1
 83 69 l 1,13,-1
 437 69 l 1,14,-1
 433 0 l 1,15,-1
 79 0 l 1,12,-1
EndSplineSet
EndChar

StartChar: divide
Encoding: 247 247 184
Width: 516
Flags: MW
HStem: 21 21G 196 69<79 437 83 433> 422 20G
LayerCount: 2
Fore
SplineSet
79 196 m 1,0,-1
 83 265 l 1,1,-1
 437 265 l 1,2,-1
 433 196 l 1,3,-1
 79 196 l 1,0,-1
201 81 m 1,4,5
 225 116 225 116 260 140 c 1,6,7
 293 118 293 118 320 81 c 1,8,9
 297 46 297 46 260 21 c 1,10,11
 224 46 224 46 201 81 c 1,4,5
201 383 m 1,12,13
 225 418 225 418 260 442 c 1,14,15
 293 420 293 420 320 383 c 1,16,17
 297 348 297 348 260 323 c 1,18,19
 224 348 224 348 201 383 c 1,12,13
EndSplineSet
EndChar

StartChar: notequal
Encoding: 8800 8800 185
Width: 516
Flags: MW
HStem: -22 21G<228 228> 101 69<81 205 81 218 263 435 81 250> 291 69<81 253 81 240 81 286 298 435> 441 20G<272 272>
LayerCount: 2
Fore
SplineSet
81 291 m 1,0,-1
 81 360 l 1,1,-1
 253 360 l 1,2,-1
 272 461 l 1,3,-1
 316 454 l 1,4,-1
 298 360 l 1,5,-1
 435 360 l 1,6,-1
 435 291 l 1,7,-1
 286 291 l 1,8,-1
 263 170 l 1,9,-1
 435 170 l 1,10,-1
 435 101 l 1,11,-1
 250 101 l 1,12,-1
 228 -22 l 1,13,-1
 184 -15 l 1,14,-1
 205 101 l 1,15,-1
 81 101 l 1,16,-1
 81 170 l 1,17,-1
 218 170 l 1,18,-1
 240 291 l 1,19,-1
 81 291 l 1,0,-1
EndSplineSet
EndChar

StartChar: less
Encoding: 60 60 186
Width: 516
Flags: MW
HStem: 47 21G<428 428> 394 20G<428 428>
LayerCount: 2
Fore
SplineSet
155 230 m 1,0,-1
 437 112 l 1,1,-1
 428 47 l 1,2,-1
 79 202 l 1,3,-1
 79 259 l 1,4,-1
 428 414 l 1,5,-1
 437 349 l 1,6,-1
 155 230 l 1,0,-1
EndSplineSet
EndChar

StartChar: greater
Encoding: 62 62 187
Width: 516
Flags: MW
HStem: 47 21G<76 76> 394 20G<76 76>
LayerCount: 2
Fore
SplineSet
67 112 m 1,0,-1
 349 230 l 1,1,-1
 67 349 l 1,2,-1
 76 414 l 1,3,-1
 425 259 l 1,4,-1
 425 202 l 1,5,-1
 76 47 l 1,6,-1
 67 112 l 1,0,-1
EndSplineSet
EndChar

StartChar: lessequal
Encoding: 8804 8804 188
Width: 516
Flags: MW
HStem: 0 69<79 437 83 433> 434 20G<428 428>
LayerCount: 2
Fore
SplineSet
155 270 m 1,0,-1
 437 152 l 1,1,-1
 428 87 l 1,2,-1
 79 242 l 1,3,-1
 79 299 l 1,4,-1
 428 454 l 1,5,-1
 437 389 l 1,6,-1
 155 270 l 1,0,-1
79 0 m 1,7,-1
 83 69 l 1,8,-1
 437 69 l 1,9,-1
 433 0 l 1,10,-1
 79 0 l 1,7,-1
EndSplineSet
EndChar

StartChar: greaterequal
Encoding: 8805 8805 189
Width: 516
Flags: MW
HStem: 0 69<79 437 83 433> 434 20G<88 88>
LayerCount: 2
Fore
SplineSet
79 152 m 1,0,-1
 361 270 l 1,1,-1
 79 389 l 1,2,-1
 88 454 l 1,3,-1
 437 299 l 1,4,-1
 437 242 l 1,5,-1
 88 87 l 1,6,-1
 79 152 l 1,0,-1
79 0 m 1,7,-1
 83 69 l 1,8,-1
 437 69 l 1,9,-1
 433 0 l 1,10,-1
 79 0 l 1,7,-1
EndSplineSet
EndChar

StartChar: bar
Encoding: 124 124 190
Width: 382
Flags: MW
HStem: -145 21G<150 150 150 232> 669 20G<232 232>
VStem: 150 82<-145 681 681 681>
LayerCount: 2
Fore
SplineSet
150 -145 m 1,0,-1
 150 681 l 1,1,-1
 232 689 l 1,2,-1
 232 -145 l 1,3,-1
 150 -145 l 1,0,-1
EndSplineSet
EndChar

StartChar: brokenbar
Encoding: 166 166 191
Width: 382
Flags: MW
HStem: -145 21G<150 150 150 232> 224 96<150 232 150 232> 669 20G<232 232>
VStem: 150 82<-145 224 -145 224 320 681 681 681>
LayerCount: 2
Fore
SplineSet
150 -145 m 1,0,-1
 150 224 l 1,1,-1
 232 224 l 1,2,-1
 232 -145 l 1,3,-1
 150 -145 l 1,0,-1
150 320 m 1,4,-1
 150 681 l 1,5,-1
 232 689 l 1,6,-1
 232 320 l 1,7,-1
 150 320 l 1,4,-1
EndSplineSet
EndChar

StartChar: backslash
Encoding: 92 92 192
Width: 309
Flags: MW
HStem: -40 21G<197 269 197 197> 640 20G<10 82 82 82>
LayerCount: 2
Fore
SplineSet
269 -40 m 1,0,-1
 197 -40 l 1,1,-1
 10 660 l 1,2,-1
 82 660 l 1,3,-1
 269 -40 l 1,0,-1
EndSplineSet
EndChar

StartChar: ordfeminine
Encoding: 170 170 193
Width: 370
Flags: MW
HStem: 143 21G<49 49> 149 55 253 57<156.5 165> 564 56<177.5 208>
VStem: 40 75<343 361.5 343 386.5> 248 68<352 420 420 420 473 497>
LayerCount: 2
Fore
SplineSet
40 352 m 0,0,1
 40 404 40 404 79.5 427 c 128,-1,2
 119 450 119 450 248 473 c 1,3,4
 248 525 248 525 234 544.5 c 128,-1,5
 220 564 220 564 184 564 c 0,6,7
 176 564 176 564 163.5 563.5 c 128,-1,8
 151 563 151 563 150 563 c 2,9,-1
 87 505 l 1,10,-1
 48 572 l 1,11,12
 74 594 74 594 113 607 c 128,-1,13
 152 620 152 620 188 620 c 0,14,15
 316 620 316 620 316 497 c 2,16,-1
 316 352 l 1,17,-1
 330 264 l 1,18,-1
 255 253 l 1,19,-1
 252 292 l 1,20,21
 202 253 202 253 147 253 c 0,22,23
 97 253 97 253 68.5 279.5 c 128,-1,24
 40 306 40 306 40 352 c 0,0,1
49 143 m 1,25,-1
 49 198 l 1,26,-1
 316 210 l 1,27,-1
 316 155 l 1,28,-1
 49 143 l 1,25,-1
115 358 m 0,29,30
 115 336 115 336 131 323 c 128,-1,31
 147 310 147 310 175 310 c 0,32,33
 217 310 217 310 248 332 c 1,34,-1
 248 420 l 1,35,36
 170 408 170 408 121 386 c 1,37,38
 115 366 115 366 115 358 c 0,29,30
EndSplineSet
EndChar

StartChar: ordmasculine
Encoding: 186 186 194
Width: 393
Flags: MW
HStem: 143 21G<55 55> 149 55 253 56<174 213.5 174 242.5> 564 56<178.5 217.5>
VStem: 40 75<396 466 396 487.5> 278 75<406 477>
LayerCount: 2
Fore
SplineSet
40 429 m 0,0,1
 40 517 40 517 83 568.5 c 128,-1,2
 126 620 126 620 198 620 c 0,3,4
 272 620 272 620 312.5 574 c 128,-1,5
 353 528 353 528 353 445 c 0,6,7
 353 357 353 357 310 305 c 128,-1,8
 267 253 267 253 194 253 c 128,-1,9
 121 253 121 253 80.5 299 c 128,-1,10
 40 345 40 345 40 429 c 0,0,1
205 309 m 0,11,12
 229 309 229 309 253 317 c 1,13,14
 278 351 278 351 278 431 c 0,15,16
 278 500 278 500 255.5 532 c 128,-1,17
 233 564 233 564 186 564 c 0,18,19
 164 564 164 564 140 556 c 1,20,21
 115 523 115 523 115 442 c 0,22,23
 115 373 115 373 136.5 341 c 128,-1,24
 158 309 158 309 205 309 c 0,11,12
55 143 m 1,25,-1
 55 198 l 1,26,-1
 336 210 l 1,27,-1
 336 155 l 1,28,-1
 55 143 l 1,25,-1
EndSplineSet
EndChar

StartChar: asterisk
Encoding: 42 42 195
Width: 453
Flags: MW
HStem: 230 21G<126 126 328 328> 431 20G<209 245 209 209> 593 20G<185 269 269 269>
LayerCount: 2
Fore
SplineSet
193 399 m 1,0,-1
 221 375 l 1,1,-1
 126 230 l 1,2,-1
 62 285 l 1,3,-1
 193 399 l 1,0,-1
233 375 m 1,4,-1
 261 399 l 1,5,-1
 392 285 l 1,6,-1
 328 230 l 1,7,-1
 233 375 l 1,4,-1
245 451 m 1,8,-1
 209 451 l 1,9,-1
 185 613 l 1,10,-1
 269 613 l 1,11,-1
 245 451 l 1,8,-1
203 442 m 1,12,-1
 191 408 l 1,13,-1
 30 447 l 1,14,-1
 61 524 l 1,15,-1
 203 442 l 1,12,-1
262 408 m 1,16,-1
 250 442 l 1,17,-1
 392 524 l 1,18,-1
 423 447 l 1,19,-1
 262 408 l 1,16,-1
EndSplineSet
EndChar

StartChar: dagger
Encoding: 8224 8224 196
Width: 426
Flags: MW
HStem: 0 21G<161 265 161 161> 431 20G<195 230 195 195> 593 20G<167 260 260 260>
LayerCount: 2
Fore
SplineSet
195 397 m 1,0,-1
 231 397 l 1,1,-1
 265 0 l 1,2,-1
 161 0 l 1,3,-1
 195 397 l 1,0,-1
237 407 m 1,4,-1
 237 443 l 1,5,-1
 399 472 l 1,6,-1
 399 378 l 1,7,-1
 237 407 l 1,4,-1
189 443 m 1,8,-1
 189 407 l 1,9,-1
 27 378 l 1,10,-1
 27 472 l 1,11,-1
 189 443 l 1,8,-1
230 451 m 1,12,-1
 195 451 l 1,13,-1
 167 613 l 1,14,-1
 260 613 l 1,15,-1
 230 451 l 1,12,-1
EndSplineSet
EndChar

StartChar: daggerdbl
Encoding: 8225 8225 197
Width: 426
Flags: MW
HStem: 0 21G<161 265 161 161> 431 20G<195 230 195 195> 593 20G<161 265 265 265>
VStem: 27 162<170 206 170 235 170 235 407 443> 237 162<170 206 206 206 407 443 443 443>
LayerCount: 2
Fore
SplineSet
230 451 m 1,0,-1
 195 451 l 1,1,-1
 161 613 l 1,2,-1
 265 613 l 1,3,-1
 230 451 l 1,0,-1
196 162 m 1,4,-1
 231 162 l 1,5,-1
 265 0 l 1,6,-1
 161 0 l 1,7,-1
 196 162 l 1,4,-1
256 307 m 1,8,-1
 231 216 l 1,9,-1
 195 216 l 1,10,-1
 169 307 l 1,11,-1
 195 397 l 1,12,-1
 231 397 l 1,13,-1
 256 307 l 1,8,-1
189 206 m 1,14,-1
 189 170 l 1,15,-1
 27 141 l 1,16,-1
 27 235 l 1,17,-1
 189 206 l 1,14,-1
189 443 m 1,18,-1
 189 407 l 1,19,-1
 27 378 l 1,20,-1
 27 472 l 1,21,-1
 189 443 l 1,18,-1
237 407 m 1,22,-1
 237 443 l 1,23,-1
 399 472 l 1,24,-1
 399 378 l 1,25,-1
 237 407 l 1,22,-1
237 170 m 1,26,-1
 237 206 l 1,27,-1
 399 235 l 1,28,-1
 399 141 l 1,29,-1
 237 170 l 1,26,-1
EndSplineSet
EndChar

StartChar: AE
Encoding: 198 198 198
Width: 728
Flags: MW
HStem: -6 21G<330 330 668 668> -3 73 -1 21G<-10 90 -10 -10> 0 21G<442 559 442 442> 151 70<193 341 153 344> 279 65<428 524 428 611 428 524> 535 70<437 548 437 437>
VStem: 344 88
LayerCount: 2
Fore
SplineSet
428 344 m 1,0,-1
 524 344 l 1,1,-1
 619 354 l 1,2,-1
 611 279 l 1,3,-1
 428 279 l 1,4,-1
 428 197 l 1,5,-1
 437 70 l 1,6,-1
 569 70 l 1,7,-1
 678 82 l 1,8,-1
 668 -6 l 1,9,-1
 559 0 l 1,10,-1
 442 0 l 1,11,-1
 330 -6 l 1,12,-1
 341 151 l 1,13,-1
 153 151 l 1,14,-1
 90 -1 l 1,15,-1
 -10 -1 l 1,16,-1
 296 534 l 1,17,-1
 328 605 l 1,18,-1
 669 605 l 1,19,-1
 660 523 l 1,20,-1
 548 535 l 1,21,-1
 437 535 l 1,22,-1
 428 407 l 1,23,-1
 428 344 l 1,0,-1
193 221 m 1,24,-1
 344 221 l 1,25,-1
 344 507 l 1,26,-1
 193 221 l 1,24,-1
EndSplineSet
EndChar

StartChar: parenright
Encoding: 41 41 199
Width: 264
Flags: MW
HStem: -230 21G<17 17> 675 20G<17 17>
VStem: 104 90<144.5 322>
LayerCount: 2
Fore
SplineSet
-25 -186 m 1,0,1
 35 -128 35 -128 69.5 -16.5 c 128,-1,2
 104 95 104 95 104 232 c 0,3,4
 104 367 104 367 69.5 479 c 128,-1,5
 35 591 35 591 -25 651 c 1,6,-1
 17 695 l 1,7,8
 101 618 101 618 147.5 497.5 c 128,-1,9
 194 377 194 377 194 238 c 0,10,11
 194 98 194 98 147.5 -25 c 128,-1,12
 101 -148 101 -148 17 -230 c 1,13,-1
 -25 -186 l 1,0,1
EndSplineSet
EndChar

StartChar: parenleft
Encoding: 40 40 200
Width: 264
Flags: MW
HStem: -230 21G<247 247> 675 20G<247 247>
VStem: 70 90<144.5 322 141 330.5>
LayerCount: 2
Fore
SplineSet
289 -186 m 1,0,-1
 247 -230 l 1,1,2
 163 -148 163 -148 116.5 -25 c 128,-1,3
 70 98 70 98 70 238 c 0,4,5
 70 377 70 377 116.5 497.5 c 128,-1,6
 163 618 163 618 247 695 c 1,7,-1
 289 651 l 1,8,9
 229 591 229 591 194.5 479 c 128,-1,10
 160 367 160 367 160 232 c 0,11,12
 160 95 160 95 194.5 -16.5 c 128,-1,13
 229 -128 229 -128 289 -186 c 1,0,-1
EndSplineSet
EndChar

StartChar: logicalnot
Encoding: 172 172 201
Width: 516
Flags: MW
HStem: 93 172<366 435 366 366> 196 69<81 435 81 366>
VStem: 366 69<93 196 196 196>
LayerCount: 2
Fore
SplineSet
81 196 m 1,0,-1
 81 265 l 1,1,-1
 435 265 l 1,2,-1
 435 93 l 1,3,-1
 366 93 l 1,4,-1
 366 196 l 1,5,-1
 81 196 l 1,0,-1
EndSplineSet
EndChar

StartChar: mu
Encoding: 181 181 202
Width: 502
Flags: MW
HStem: -219 21G<64 64> -15 69<192 206> 431 20G<173 173 427 427>
VStem: 75 91 337 90
LayerCount: 2
Fore
SplineSet
75 -21 m 1,0,-1
 75 441 l 1,1,-1
 173 451 l 1,2,-1
 159 227 l 1,3,-1
 159 122 l 2,4,5
 159 85 159 85 171 69.5 c 128,-1,6
 183 54 183 54 211 54 c 0,7,8
 272 54 272 54 343 91 c 1,9,-1
 331 441 l 1,10,-1
 427 451 l 1,11,-1
 427 101 l 1,12,-1
 442 -2 l 1,13,-1
 343 -12 l 1,14,-1
 343 38 l 1,15,16
 262 -15 262 -15 180 -15 c 0,17,18
 163.5 -15 163.5 -15 150 -12 c 1,19,-1
 169 -209 l 1,20,-1
 64 -219 l 1,21,-1
 75 -21 l 1,0,-1
EndSplineSet
EndChar

StartChar: paragraph
Encoding: 182 182 203
Width: 500
Flags: MW
HStem: 0 21G<220 292 220 220 344 417 344 344> 600 20G<200.5 271>
VStem: 50 242<404 522> 220 72<0 302 302 302> 344 73<0 491 0 550 0 550>
LayerCount: 2
Fore
SplineSet
220 302 m 1,0,1
 129 302 129 302 89.5 338.5 c 128,-1,2
 50 375 50 375 50 461 c 0,3,4
 50 620 50 620 258 620 c 0,5,6
 292 620 292 620 435 603 c 1,7,-1
 417 491 l 1,8,-1
 417 0 l 1,9,-1
 344 0 l 1,10,-1
 344 550 l 1,11,12
 313 555 313 555 292 556 c 1,13,-1
 292 0 l 1,14,-1
 220 0 l 1,15,-1
 220 302 l 1,0,1
EndSplineSet
EndChar

StartChar: asciicircum
Encoding: 94 94 204
Width: 561
Flags: MW
HStem: 278 21G<80 80 80 160 401 401 401 481> 585 20G<252 309 309 309>
LayerCount: 2
Fore
SplineSet
80 278 m 1,0,-1
 252 605 l 1,1,-1
 309 605 l 1,2,-1
 481 278 l 1,3,-1
 401 278 l 1,4,-1
 282 515 l 1,5,-1
 160 278 l 1,6,-1
 80 278 l 1,0,-1
EndSplineSet
EndChar

StartChar: asciitilde
Encoding: 126 126 205
Width: 548
Flags: MW
HStem: 221 21G<102 102> 228 69<334 373> 263 34 319 20G<446 446>
LayerCount: 2
Fore
SplineSet
185 263 m 0,0,1
 144 263 144 263 102 221 c 1,2,-1
 70 270 l 1,3,4
 119 332 119 332 203 332 c 0,5,6
 226 332 226 332 279.5 314.5 c 128,-1,7
 333 297 333 297 363 297 c 0,8,9
 404 297 404 297 446 339 c 1,10,-1
 478 290 l 1,11,12
 428 228 428 228 345 228 c 0,13,14
 317 228 317 228 263 245.5 c 128,-1,15
 209 263 209 263 185 263 c 0,0,1
EndSplineSet
EndChar

StartChar: approxequal
Encoding: 8776 8776 206
Width: 548
Flags: MW
HStem: 89 21G<102 102> 96 69<334 374.5 334 377.5> 131 34 131 69<175 211> 258 69<334 374.5 334 377.5> 293 34 293 69<175 211> 349 20G<446 446>
LayerCount: 2
Fore
SplineSet
446 207 m 1,0,-1
 478 158 l 1,1,2
 425 96 425 96 354 96 c 0,3,4
 319 96 319 96 263.5 113.5 c 128,-1,5
 208 131 208 131 191 131 c 0,6,7
 144 131 144 131 102 89 c 1,8,-1
 70 138 l 1,9,10
 126 200 126 200 194 200 c 0,11,12
 231 200 231 200 283.5 182.5 c 128,-1,13
 336 165 336 165 359 165 c 0,14,15
 404 165 404 165 446 207 c 1,0,-1
446 369 m 1,16,-1
 478 320 l 1,17,18
 425 258 425 258 354 258 c 0,19,20
 319 258 319 258 263.5 275.5 c 128,-1,21
 208 293 208 293 191 293 c 0,22,23
 144 293 144 293 102 251 c 1,24,-1
 70 300 l 1,25,26
 126 362 126 362 194 362 c 0,27,28
 231 362 231 362 283.5 344.5 c 128,-1,29
 336 327 336 327 359 327 c 0,30,31
 404 327 404 327 446 369 c 1,16,-1
EndSplineSet
EndChar

StartChar: braceleft
Encoding: 123 123 207
Width: 286
Flags: MW
HStem: -198 21G<209 276> 665 20G<209 276>
VStem: 118 78<-126 -91.5 578.5 613>
LayerCount: 2
Fore
SplineSet
40 208 m 1,0,-1
 46 261 l 1,1,2
 76 268 76 268 102.5 288.5 c 128,-1,3
 129 309 129 309 129 326 c 0,4,5
 129 347 129 347 123.5 464.5 c 128,-1,6
 118 582 118 582 118 583 c 0,7,8
 118 648 118 648 146.5 666.5 c 128,-1,9
 175 685 175 685 276 685 c 1,10,-1
 267 603 l 1,11,-1
 196 613 l 1,12,-1
 196 324 l 2,13,14
 196 295 196 295 180.5 276 c 128,-1,15
 165 257 165 257 121 233 c 1,16,17
 163 212 163 212 179.5 192.5 c 128,-1,18
 196 173 196 173 196 143 c 2,19,-1
 196 -126 l 1,20,-1
 267 -116 l 1,21,-1
 276 -198 l 1,22,23
 175 -198 175 -198 146.5 -179.5 c 128,-1,24
 118 -161 118 -161 118 -96 c 0,25,26
 118 -94 118 -94 123.5 14 c 128,-1,27
 129 122 129 122 129 141 c 0,28,29
 129 159 129 159 101.5 179.5 c 128,-1,30
 74 200 74 200 40 208 c 1,0,-1
EndSplineSet
EndChar

StartChar: braceright
Encoding: 125 125 208
Width: 286
Flags: MW
HStem: -198 21G<10 77> 665 20G<10 77>
VStem: 90 78<-126 -91.5 -139.5 163 578.5 613 613 613>
LayerCount: 2
Fore
SplineSet
246 279 m 1,0,-1
 240 226 l 1,1,2
 210 219 210 219 183.5 198.5 c 128,-1,3
 157 178 157 178 157 161 c 0,4,5
 157 140 157 140 162.5 22.5 c 128,-1,6
 168 -95 168 -95 168 -96 c 0,7,8
 168 -161 168 -161 139.5 -179.5 c 128,-1,9
 111 -198 111 -198 10 -198 c 1,10,-1
 19 -116 l 1,11,-1
 90 -126 l 1,12,-1
 90 163 l 2,13,14
 90 192 90 192 105.5 211 c 128,-1,15
 121 230 121 230 165 254 c 1,16,17
 123 275 123 275 106.5 294.5 c 128,-1,18
 90 314 90 314 90 344 c 2,19,-1
 90 613 l 1,20,-1
 19 603 l 1,21,-1
 10 685 l 1,22,23
 111 685 111 685 139.5 666.5 c 128,-1,24
 168 648 168 648 168 583 c 0,25,26
 168 582 168 582 162.5 474 c 128,-1,27
 157 366 157 366 157 346 c 0,28,29
 157 328 157 328 184.5 307.5 c 128,-1,30
 212 287 212 287 246 279 c 1,0,-1
EndSplineSet
EndChar

StartChar: bracketright
Encoding: 93 93 209
Width: 233
Flags: MW
HStem: -198 21G<10 74.5> 665 20G<10 74.5>
VStem: 90 73<-126 -96 -96 583>
LayerCount: 2
Fore
SplineSet
19 603 m 1,0,-1
 10 685 l 1,1,2
 107 685 107 685 135 666.5 c 128,-1,3
 163 648 163 648 163 583 c 2,4,-1
 163 -96 l 2,5,6
 163 -160 163 -160 135 -179 c 128,-1,7
 107 -198 107 -198 10 -198 c 1,8,-1
 19 -116 l 1,9,-1
 90 -126 l 1,10,-1
 90 613 l 1,11,-1
 19 603 l 1,0,-1
EndSplineSet
EndChar

StartChar: bracketleft
Encoding: 91 91 210
Width: 233
Flags: MW
HStem: -198 21G<158.5 223> 665 20G<158.5 223>
VStem: 70 73<-96 583 583 613 -126 626>
LayerCount: 2
Fore
SplineSet
223 685 m 1,0,-1
 214 603 l 1,1,-1
 143 613 l 1,2,-1
 143 -126 l 1,3,-1
 214 -116 l 1,4,-1
 223 -198 l 1,5,6
 126 -198 126 -198 98 -179 c 128,-1,7
 70 -160 70 -160 70 -96 c 2,8,-1
 70 583 l 2,9,10
 70 648 70 648 98 666.5 c 128,-1,11
 126 685 126 685 223 685 c 1,0,-1
EndSplineSet
EndChar

StartChar: guilsinglleft
Encoding: 8249 8249 211
Width: 293
Flags: MW
HStem: 15 21G<223 223> 403 20G<223 223>
LayerCount: 2
Fore
SplineSet
258 45 m 1,0,-1
 223 15 l 1,1,-1
 30 206 l 1,2,-1
 33 235 l 1,3,-1
 223 423 l 1,4,-1
 258 393 l 1,5,-1
 129 219 l 1,6,-1
 258 45 l 1,0,-1
EndSplineSet
EndChar

StartChar: guilsinglright
Encoding: 8250 8250 212
Width: 293
Flags: MW
HStem: 15 21G<70 70> 403 20G<70 70>
LayerCount: 2
Fore
SplineSet
35 393 m 1,0,-1
 70 423 l 1,1,-1
 263 232 l 1,2,-1
 260 203 l 1,3,-1
 70 15 l 1,4,-1
 35 45 l 1,5,-1
 164 219 l 1,6,-1
 35 393 l 1,0,-1
EndSplineSet
EndChar

StartChar: guillemotright
Encoding: 187 187 213
Width: 500
Flags: MW
HStem: 15 21G<70 70 277 277> 403 20G<70 70 277 277>
LayerCount: 2
Fore
SplineSet
35 393 m 1,0,-1
 70 423 l 1,1,-1
 263 232 l 1,2,-1
 260 203 l 1,3,-1
 70 15 l 1,4,-1
 35 45 l 1,5,-1
 164 219 l 1,6,-1
 35 393 l 1,0,-1
242 393 m 1,7,-1
 277 423 l 1,8,-1
 470 232 l 1,9,-1
 467 203 l 1,10,-1
 277 15 l 1,11,-1
 242 45 l 1,12,-1
 371 219 l 1,13,-1
 242 393 l 1,7,-1
EndSplineSet
EndChar

StartChar: guillemotleft
Encoding: 171 171 214
Width: 500
Flags: MW
HStem: 15 21G<223 223 430 430> 403 20G<223 223 430 430>
LayerCount: 2
Fore
SplineSet
258 45 m 1,0,-1
 223 15 l 1,1,-1
 30 206 l 1,2,-1
 33 235 l 1,3,-1
 223 423 l 1,4,-1
 258 393 l 1,5,-1
 129 219 l 1,6,-1
 258 45 l 1,0,-1
465 45 m 1,7,-1
 430 15 l 1,8,-1
 237 206 l 1,9,-1
 240 235 l 1,10,-1
 430 423 l 1,11,-1
 465 393 l 1,12,-1
 336 219 l 1,13,-1
 465 45 l 1,7,-1
EndSplineSet
EndChar

StartChar: periodcentered
Encoding: 183 183 215
Width: 274
Flags: MW
HStem: 149 21G 269 20G
LayerCount: 2
Fore
SplineSet
67 219 m 1,0,1
 96 260 96 260 137 289 c 1,2,3
 180 259 180 259 207 219 c 1,4,5
 178 176 178 176 137 149 c 1,6,7
 96 176 96 176 67 219 c 1,0,1
EndSplineSet
EndChar

StartChar: ogonek
Encoding: 731 731 216
Width: 455
Flags: MW
HStem: -224 57<230 252.5> -224 224<222 252.5>
VStem: 129 69<-135 -107>
LayerCount: 2
Fore
SplineSet
222 0 m 1,0,-1
 324 0 l 1,1,2
 272 -13 272 -13 235 -48 c 128,-1,3
 198 -83 198 -83 198 -119 c 0,4,5
 198 -167 198 -167 246 -167 c 0,6,7
 273 -167 273 -167 301 -150 c 1,8,-1
 326 -188 l 1,9,10
 287 -224 287 -224 235 -224 c 0,11,12
 188 -224 188 -224 158.5 -198 c 128,-1,13
 129 -172 129 -172 129 -132 c 0,14,15
 129 -95 129 -95 154 -59 c 128,-1,16
 179 -23 179 -23 222 0 c 1,0,-1
EndSplineSet
EndChar

StartChar: degree
Encoding: 176 176 217
Width: 338
Flags: MW
HStem: 342 49<145 192.5 145 207.5> 570 50<145 192.5>
VStem: 30 57<454.5 507 454.5 519.5> 250 58<455 506.5>
LayerCount: 2
Fore
SplineSet
30 481 m 0,0,1
 30 539 30 539 70.5 579.5 c 128,-1,2
 111 620 111 620 169 620 c 0,3,4
 226 620 226 620 267 579 c 128,-1,5
 308 538 308 538 308 481 c 0,6,7
 308 423 308 423 267.5 382.5 c 128,-1,8
 227 342 227 342 169 342 c 0,9,10
 110 342 110 342 70 382 c 128,-1,11
 30 422 30 422 30 481 c 0,0,1
87 481 m 0,12,13
 87 441 87 441 110 416 c 128,-1,14
 133 391 133 391 169 391 c 0,15,16
 204 391 204 391 227 416.5 c 128,-1,17
 250 442 250 442 250 481 c 0,18,19
 250 519 250 519 227 544.5 c 128,-1,20
 204 570 204 570 169 570 c 0,21,22
 133 570 133 570 110 545 c 128,-1,23
 87 520 87 520 87 481 c 0,12,13
EndSplineSet
EndChar

StartChar: bullet
Encoding: 8226 8226 218
Width: 336
Flags: MW
HStem: 145 21G 321 20G
LayerCount: 2
Fore
SplineSet
70 243 m 1,0,1
 110 302 110 302 168 341 c 1,2,3
 229 299 229 299 266 243 c 1,4,5
 227 184 227 184 168 145 c 1,6,7
 110 182 110 182 70 243 c 1,0,1
EndSplineSet
EndChar

StartChar: registered
Encoding: 174 174 219
Width: 670
Flags: MW
HStem: 142 54<259 410.5 259 429.5> 254 175 566 42<317 340> 658 54<259 410.5>
VStem: 50 64<427 427> 233 57<369 487 368 521 368 521> 382 65<475 518> 556 64<427 427>
LayerCount: 2
Fore
SplineSet
620 427 m 128,-1,1
 620 142 620 142 335 142 c 128,-1,2
 50 142 50 142 50 427 c 128,-1,3
 50 712 50 712 335 712 c 128,-1,0
 620 712 620 712 620 427 c 128,-1,1
556 427 m 1,4,5
 552 551 552 551 500 604.5 c 128,-1,6
 448 658 448 658 335 658 c 0,7,8
 221 658 221 658 170 604 c 128,-1,9
 119 550 119 550 114 427 c 1,10,11
 119 304 119 304 170 250 c 128,-1,12
 221 196 221 196 335 196 c 0,13,14
 448 196 448 196 500 249.5 c 128,-1,15
 552 303 552 303 556 427 c 1,4,5
225 256 m 1,16,-1
 233 369 l 1,17,-1
 233 521 l 1,18,-1
 222 596 l 1,19,20
 297 608 297 608 329 608 c 0,21,22
 447 608 447 608 447 502 c 0,23,24
 447 420 447 420 371 401 c 1,25,-1
 432 314 l 1,26,-1
 480 269 l 1,27,-1
 480 256 l 1,28,-1
 393 252 l 1,29,-1
 364 311 l 1,30,-1
 300 406 l 1,31,-1
 300 429 l 1,32,33
 344 429 344 429 363 444 c 128,-1,34
 382 459 382 459 382 494 c 0,35,36
 382 566 382 566 319 566 c 0,37,38
 308 566 308 566 294 563 c 1,39,-1
 290 487 l 1,40,-1
 290 368 l 1,41,-1
 297 256 l 1,42,-1
 225 256 l 1,16,-1
EndSplineSet
EndChar

StartChar: copyright
Encoding: 169 169 220
Width: 670
Flags: MW
HStem: 142 54<259 410.5 259 429.5> 255 43<318 365 318 366.5> 563 45<309.5 352.5> 658 54<259 410.5>
VStem: 50 64<427 427> 176 65<391.5 478.5 391.5 479.5> 556 64<427 427>
LayerCount: 2
Fore
SplineSet
176 426 m 0,0,1
 176 506 176 506 223 557 c 128,-1,2
 270 608 270 608 345 608 c 0,3,4
 400 608 400 608 459 582 c 1,5,-1
 433 518 l 1,6,-1
 370 562 l 1,7,8
 364 563 364 563 347 563 c 0,9,10
 291 563 291 563 266 532.5 c 128,-1,11
 241 502 241 502 241 432 c 0,12,13
 241 371 241 371 271 334.5 c 128,-1,14
 301 298 301 298 351 298 c 0,15,16
 393 298 393 298 440 337 c 1,17,-1
 460 282 l 1,18,19
 404 255 404 255 346 255 c 0,20,21
 267 255 267 255 221.5 301 c 128,-1,22
 176 347 176 347 176 426 c 0,0,1
620 427 m 128,-1,24
 620 142 620 142 335 142 c 128,-1,25
 50 142 50 142 50 427 c 128,-1,26
 50 712 50 712 335 712 c 128,-1,23
 620 712 620 712 620 427 c 128,-1,24
556 427 m 1,27,28
 552 551 552 551 500 604.5 c 128,-1,29
 448 658 448 658 335 658 c 0,30,31
 221 658 221 658 170 604 c 128,-1,32
 119 550 119 550 114 427 c 1,33,34
 119 304 119 304 170 250 c 128,-1,35
 221 196 221 196 335 196 c 0,36,37
 448 196 448 196 500 249.5 c 128,-1,38
 552 303 552 303 556 427 c 1,27,28
EndSplineSet
EndChar

StartChar: trademark
Encoding: 8482 8482 221
Width: 768
Flags: MW
HStem: 256 21G<126 126 126 197 337 402 337 337 634 708 634 634> 558 46 591 20G<301 301>
VStem: 133 57<371 486 370 487 370 487> 354 46 632 58
LayerCount: 2
Fore
SplineSet
634 256 m 1,0,-1
 636 371 l 1,1,-1
 629 501 l 1,2,-1
 540 297 l 1,3,-1
 500 295 l 1,4,-1
 403 486 l 1,5,-1
 398 370 l 1,6,-1
 402 256 l 1,7,-1
 337 256 l 1,8,-1
 351 371 l 1,9,-1
 358 491 l 1,10,-1
 354 602 l 1,11,-1
 414 604 l 1,12,-1
 424 567 l 1,13,-1
 523 373 l 1,14,-1
 608 577 l 1,15,-1
 614 603 l 1,16,-1
 691 606 l 1,17,-1
 687 490 l 1,18,-1
 694 370 l 1,19,-1
 708 256 l 1,20,-1
 634 256 l 1,0,-1
126 256 m 1,21,-1
 133 371 l 1,22,-1
 133 487 l 1,23,-1
 128 560 l 1,24,-1
 93 560 l 1,25,-1
 30 556 l 1,26,-1
 33 604 l 1,27,-1
 238 604 l 1,28,-1
 301 611 l 1,29,-1
 295 556 l 1,30,-1
 231 560 l 1,31,-1
 194 560 l 1,32,-1
 190 486 l 1,33,-1
 190 370 l 1,34,-1
 197 256 l 1,35,-1
 126 256 l 1,21,-1
EndSplineSet
EndChar

StartChar: germandbls
Encoding: 223 223 222
Width: 554
Flags: MW
HStem: -15 61<347.5 376 347.5 387.5> 0 21G<65 65 65 162> 587 60<211 267.5>
VStem: 79 83<198 416 416 433 0 487.5> 243 68<343.5 398.5> 314 80<515.5 551> 433 76<88.5 153.5>
LayerCount: 2
Fore
SplineSet
65 0 m 1,0,-1
 79 198 l 1,1,-1
 79 416 l 2,2,3
 79 523 79 523 126 585 c 128,-1,4
 173 647 173 647 254 647 c 0,5,6
 322 647 322 647 358 619.5 c 128,-1,7
 394 592 394 592 394 549 c 0,8,9
 394 535 394 535 392 522.5 c 128,-1,10
 390 510 390 510 383.5 497 c 128,-1,11
 377 484 377 484 373 475.5 c 128,-1,12
 369 467 369 467 358 454 c 128,-1,13
 347 441 347 441 343.5 436.5 c 128,-1,14
 340 432 340 432 326.5 417.5 c 128,-1,15
 313 403 313 403 311 401 c 1,16,17
 311 370 311 370 331.5 345 c 128,-1,18
 352 320 352 320 381 301 c 128,-1,19
 410 282 410 282 439 261.5 c 128,-1,20
 468 241 468 241 488.5 207 c 128,-1,21
 509 173 509 173 509 129 c 0,22,23
 509 68 509 68 460 26.5 c 128,-1,24
 411 -15 411 -15 340 -15 c 0,25,26
 280 -15 280 -15 224 9 c 1,27,-1
 251 96 l 1,28,29
 315 46 315 46 365 46 c 0,30,31
 401 46 401 46 431 69 c 1,32,33
 433 75 433 75 433 93 c 0,34,35
 433 126 433 126 413.5 151.5 c 128,-1,36
 394 177 394 177 366 195 c 128,-1,37
 338 213 338 213 310 233 c 128,-1,38
 282 253 282 253 262.5 287 c 128,-1,39
 243 321 243 321 243 367 c 0,40,41
 243 400 243 400 278.5 456 c 128,-1,42
 314 512 314 512 314 534 c 0,43,44
 314 587 314 587 240 587 c 0,45,46
 197 587 197 587 179.5 553 c 128,-1,47
 162 519 162 519 162 433 c 2,48,-1
 162 0 l 1,49,-1
 65 0 l 1,0,-1
EndSplineSet
EndChar

StartChar: infinity
Encoding: 8734 8734 223
Width: 771
Flags: MW
HStem: 42 21G<518.5 599> 44 72 319 74<525 561> 375 20G<173 255>
VStem: 60 66<198 246.5 198 271> 645 66<190.5 238.5>
LayerCount: 2
Fore
SplineSet
550 319 m 0,0,1
 513 319 513 319 483.5 295.5 c 128,-1,2
 454 272 454 272 423 217 c 1,3,4
 452 163 452 163 480 139.5 c 128,-1,5
 508 116 508 116 542 116 c 0,6,7
 588 116 588 116 616.5 145.5 c 128,-1,8
 645 175 645 175 645 222 c 128,-1,9
 645 269 645 269 626 300 c 1,10,11
 585 319 585 319 550 319 c 0,0,1
221 118 m 0,12,13
 258 118 258 118 287 141 c 128,-1,14
 316 164 316 164 348 218 c 1,15,16
 315 275 315 275 288.5 298 c 128,-1,17
 262 321 262 321 229 321 c 0,18,19
 183 321 183 321 154.5 291.5 c 128,-1,20
 126 262 126 262 126 215 c 128,-1,21
 126 168 126 168 145 137 c 1,22,23
 186 118 186 118 221 118 c 0,12,13
221 395 m 0,24,25
 272 395 272 395 311 368.5 c 128,-1,26
 350 342 350 342 386 283 c 1,27,28
 422 341 422 341 461 367 c 128,-1,29
 500 393 500 393 550 393 c 0,30,31
 620 393 620 393 665.5 344 c 128,-1,32
 711 295 711 295 711 220 c 0,33,34
 711 142 711 142 666.5 92 c 128,-1,35
 622 42 622 42 553 42 c 0,36,37
 453 42 453 42 385 152 c 1,38,39
 319 44 319 44 221 44 c 0,40,41
 150 44 150 44 105 93 c 128,-1,42
 60 142 60 142 60 218 c 0,43,44
 60 297 60 297 104.5 346 c 128,-1,45
 149 395 149 395 221 395 c 0,24,25
EndSplineSet
EndChar

StartChar: lozenge
Encoding: 9674 9674 224
Width: 504
Flags: MW
HStem: -74 21G<218 218> 602 20G<286 286>
LayerCount: 2
Fore
SplineSet
474 275 m 1,0,-1
 287 -71 l 1,1,-1
 218 -74 l 1,2,-1
 30 275 l 1,3,-1
 215 619 l 1,4,-1
 286 622 l 1,5,-1
 474 275 l 1,0,-1
241 26 m 1,6,-1
 377 275 l 1,7,-1
 241 523 l 1,8,-1
 111 275 l 1,9,-1
 241 26 l 1,6,-1
EndSplineSet
EndChar

StartChar: Delta
Encoding: 8710 8710 225
Width: 530
Flags: MW
HStem: 0 70<113 403 113 520> 601 20G<304 304>
LayerCount: 2
Fore
SplineSet
520 0 m 1,0,-1
 10 0 l 1,1,-1
 222 618 l 1,2,-1
 304 621 l 1,3,-1
 520 0 l 1,0,-1
113 70 m 1,4,-1
 403 70 l 1,5,-1
 256 523 l 1,6,-1
 113 70 l 1,4,-1
EndSplineSet
EndChar

StartChar: summation
Encoding: 8721 8721 226
Width: 438
Flags: MW
HStem: -74 72<70 418 130 418 130 418> 549 71<142 412 142 142>
LayerCount: 2
Fore
SplineSet
70 -74 m 1,0,-1
 32 -19 l 1,1,-1
 246 285 l 1,2,-1
 5 620 l 1,3,-1
 418 620 l 1,4,-1
 412 549 l 1,5,-1
 142 549 l 1,6,-1
 337 285 l 1,7,-1
 130 -2 l 1,8,-1
 418 -2 l 1,9,-1
 418 -74 l 1,10,-1
 70 -74 l 1,0,-1
EndSplineSet
EndChar

StartChar: Euro
Encoding: 8364 8364 227
Width: 516
Flags: MW
HStem: -15 58<270.5 328 270.5 330.5> 199 47<25 70 25 75 25 70 165 365 165 165> 301 48<25 80 25 71 164 365> 486 61<286.5 346>
LayerCount: 2
Fore
SplineSet
25 301 m 1,0,-1
 25 349 l 1,1,-1
 80 349 l 1,2,3
 101 441 101 441 171 494 c 128,-1,4
 241 547 241 547 342 547 c 0,5,6
 406 547 406 547 473 520 c 1,7,-1
 447 428 l 1,8,-1
 346 486 l 1,9,10
 257 486 257 486 216 455 c 128,-1,11
 175 424 175 424 164 349 c 1,12,-1
 365 349 l 1,13,-1
 365 301 l 1,14,-1
 159 301 l 1,15,16
 159 251 159 251 160 246 c 1,17,-1
 365 246 l 1,18,-1
 365 199 l 1,19,-1
 165 199 l 1,20,21
 178 128 178 128 216 85.5 c 128,-1,22
 254 43 254 43 304 43 c 0,23,24
 379 43 379 43 435 133 c 1,25,-1
 482 67 l 1,26,27
 400 -15 400 -15 298 -15 c 0,28,29
 212 -15 212 -15 151.5 43 c 128,-1,30
 91 101 91 101 75 199 c 1,31,-1
 25 199 l 1,32,-1
 25 246 l 1,33,-1
 70 246 l 1,34,35
 70 292 70 292 71 301 c 1,36,-1
 25 301 l 1,0,-1
EndSplineSet
EndChar

StartChar: section
Encoding: 167 167 228
Width: 436
Flags: MW
HStem: -125 60<192 228 192 236.5> 595 60<199 231.5>
VStem: 59 75<305 307> 304 76<0.5 32.5 242.5 258>
LayerCount: 2
Fore
SplineSet
380 49 m 0,0,1
 380 -24 380 -24 322 -74.5 c 128,-1,2
 264 -125 264 -125 181 -125 c 0,3,4
 112 -125 112 -125 45 -99 c 1,5,-1
 74 -10 l 1,6,7
 154 -65 154 -65 213 -65 c 0,8,9
 261 -65 261 -65 301 -36 c 1,10,11
 304 -21 304 -21 304 6 c 0,12,13
 304 46 304 46 281 70 c 128,-1,14
 258 94 258 94 176 140 c 0,15,16
 111 176 111 176 85 209 c 128,-1,17
 59 242 59 242 59 288 c 0,18,19
 59 351 59 351 108 398 c 1,20,21
 59 440 59 440 59 503 c 0,22,23
 59 567 59 567 114 611 c 128,-1,24
 169 655 169 655 250 655 c 0,25,26
 312 655 312 655 365 633 c 1,27,-1
 338 554 l 1,28,29
 266 595 266 595 213 595 c 0,30,31
 170 595 170 595 131 570 c 1,32,33
 131 522 131 522 152 492.5 c 128,-1,34
 173 463 173 463 236 426 c 0,35,36
 317 379 317 379 348.5 344.5 c 128,-1,37
 380 310 380 310 380 264 c 0,38,39
 380 198 380 198 330 151 c 1,40,41
 380 107 380 107 380 49 c 0,0,1
251 202 m 1,42,-1
 294 176 l 1,43,44
 304 199 304 199 304 221 c 0,45,46
 304 237 304 237 301.5 249 c 128,-1,47
 299 261 299 261 291 272.5 c 128,-1,48
 283 284 283 284 276.5 291.5 c 128,-1,49
 270 299 270 299 253.5 309.5 c 128,-1,50
 237 320 237 320 225 327 c 128,-1,51
 213 334 213 334 187.5 348.5 c 128,-1,52
 162 363 162 363 144 373 c 1,53,54
 134 350 134 350 134 326 c 0,55,56
 134 294 134 294 160 266.5 c 128,-1,57
 186 239 186 239 251 202 c 1,42,-1
EndSplineSet
EndChar

StartChar: integral
Encoding: 8747 8747 229
Width: 367
Flags: MW
HStem: -128 21G<52 52> 636 20G<295 295>
VStem: 132 83<279 310>
LayerCount: 2
Fore
SplineSet
132 279 m 2,0,-1
 132 359 l 2,1,2
 132 466 132 466 168 532 c 128,-1,3
 204 598 204 598 295 656 c 1,4,-1
 327 571 l 1,5,6
 259 541 259 541 220 497 c 1,7,8
 215 379 215 379 215 310 c 2,9,-1
 215 169 l 2,10,11
 215 62 215 62 178.5 -4 c 128,-1,12
 142 -70 142 -70 52 -128 c 1,13,-1
 20 -43 l 1,14,15
 86 -14 86 -14 127 31 c 1,16,17
 132 149 132 149 132 279 c 2,0,-1
EndSplineSet
EndChar

StartChar: radical
Encoding: 8730 8730 230
Width: 560
Flags: MW
HStem: -126 21G<170 262 170 170> 636 20G<393 578 578 578>
LayerCount: 2
Fore
SplineSet
449 591 m 1,0,-1
 262 -126 l 1,1,-1
 170 -126 l 1,2,-1
 1 306 l 1,3,-1
 90 306 l 1,4,-1
 218 -19 l 1,5,-1
 393 656 l 1,6,-1
 578 656 l 1,7,-1
 585 580 l 1,8,-1
 502 591 l 1,9,-1
 449 591 l 1,0,-1
EndSplineSet
EndChar

StartChar: pi
Encoding: 960 960 231
Width: 534
Flags: MW
HStem: -15 21G<330 330> 0 21G<91 193 91 91> 384 70<189 319 189 189> 446 20G<494 494>
VStem: 37 150 319 86<112 382 112 384 112 384>
LayerCount: 2
Fore
SplineSet
35 378 m 1,0,-1
 40 454 l 1,1,-1
 385 454 l 1,2,-1
 494 466 l 1,3,-1
 484 378 l 1,4,-1
 405 382 l 1,5,-1
 405 112 l 1,6,-1
 423 -1 l 1,7,-1
 330 -15 l 1,8,-1
 319 95 l 1,9,-1
 319 384 l 1,10,-1
 189 384 l 1,11,-1
 182 255 l 1,12,-1
 182 197 l 1,13,-1
 193 0 l 1,14,-1
 91 0 l 1,15,-1
 105 198 l 1,16,-1
 105 382 l 1,17,-1
 35 378 l 1,0,-1
EndSplineSet
EndChar

StartChar: product
Encoding: 8719 8719 232
Width: 624
Flags: MW
HStem: -135 21G<412 412> 568 80 640 20G<599 599>
VStem: 47 171 134 84<73 407 72 408 72 408> 398 84<70 407 68 408 68 408>
LayerCount: 2
Fore
SplineSet
398 70 m 1,0,-1
 398 408 l 1,1,-1
 386 572 l 1,2,-1
 229 572 l 1,3,-1
 218 407 l 1,4,-1
 218 72 l 1,5,-1
 232 -125 l 1,6,-1
 120 -125 l 1,7,-1
 134 73 l 1,8,-1
 134 408 l 1,9,-1
 122 570 l 1,10,-1
 45 566 l 1,11,-1
 50 648 l 1,12,-1
 490 648 l 1,13,-1
 599 660 l 1,14,-1
 589 566 l 1,15,-1
 493 571 l 1,16,-1
 482 407 l 1,17,-1
 482 68 l 1,18,-1
 503 -122 l 1,19,-1
 412 -135 l 1,20,-1
 398 70 l 1,0,-1
EndSplineSet
EndChar

StartChar: partialdiff
Encoding: 8706 8706 233
Width: 468
Flags: MW
HStem: -15 65<196.5 249 196.5 272.5> 319 60<206.5 253.5 178.5 259.5> 577 80
VStem: 40 87<129.5 203 129.5 237.5> 349 79
LayerCount: 2
Fore
SplineSet
209 50 m 0,0,1
 269 50 269 50 307.5 114.5 c 128,-1,2
 346 179 346 179 349 284 c 1,3,4
 288 319 288 319 245 319 c 0,5,6
 187 319 187 319 157 275 c 128,-1,7
 127 231 127 231 127 147 c 0,8,9
 127 92 127 92 139 72 c 1,10,11
 170 50 170 50 209 50 c 0,0,1
65 657 m 1,12,13
 221 656 221 656 324.5 549 c 128,-1,14
 428 442 428 442 428 281 c 0,15,16
 428 147 428 147 367 66 c 128,-1,17
 306 -15 306 -15 205 -15 c 0,18,19
 131 -15 131 -15 85.5 38.5 c 128,-1,20
 40 92 40 92 40 178 c 0,21,22
 40 267 40 267 94.5 323 c 128,-1,23
 149 379 149 379 237 379 c 0,24,25
 286 379 286 379 343 356 c 1,26,27
 316 509 316 509 181 579 c 1,28,-1
 60 575 l 1,29,-1
 65 657 l 1,12,13
EndSplineSet
EndChar

StartChar: Omega
Encoding: 8486 8486 234
Width: 710
Flags: MW
HStem: 0 70<161 202 161 312 507 549> 554 66<300 410>
VStem: 77 102<304.5 390.5 257.5 437> 531 102<306.5 390.5>
LayerCount: 2
Fore
SplineSet
398 0 m 1,0,-1
 387 37 l 1,1,2
 446 64 446 64 488.5 146 c 128,-1,3
 531 228 531 228 531 316 c 0,4,5
 531 428 531 428 484.5 491 c 128,-1,6
 438 554 438 554 355 554 c 128,-1,7
 272 554 272 554 225.5 491 c 128,-1,8
 179 428 179 428 179 316 c 0,9,10
 179 228 179 228 221.5 146 c 128,-1,11
 264 64 264 64 323 37 c 1,12,-1
 312 0 l 1,13,-1
 48 0 l 1,14,-1
 40 86 l 1,15,-1
 161 70 l 1,16,-1
 202 70 l 1,17,18
 144 125 144 125 110.5 201.5 c 128,-1,19
 77 278 77 278 77 357 c 0,20,21
 77 477 77 477 152.5 548.5 c 128,-1,22
 228 620 228 620 355 620 c 128,-1,23
 482 620 482 620 557.5 549 c 128,-1,24
 633 478 633 478 633 358 c 0,25,26
 633 281 633 281 599 203.5 c 128,-1,27
 565 126 565 126 507 70 c 1,28,-1
 549 70 l 1,29,-1
 670 86 l 1,30,-1
 662 0 l 1,31,-1
 398 0 l 1,0,-1
EndSplineSet
EndChar

StartChar: eth
Encoding: 240 240 235
Width: 500
Flags: MW
HStem: -15 61<220 271.5 220 310> 393 61<228 251 179 278.5> 657 20G<360 360>
VStem: 50 92<164.5 259.5 164.5 281> 358 92<178 274.5>
LayerCount: 2
Fore
SplineSet
261 46 m 0,0,1
 291 46 291 46 325 56 c 1,2,3
 358 103 358 103 358 212 c 0,4,5
 358 306 358 306 328.5 349.5 c 128,-1,6
 299 393 299 393 237 393 c 0,7,8
 214 393 214 393 175 383 c 1,9,10
 142 337 142 337 142 227 c 0,11,12
 142 133 142 133 170.5 89.5 c 128,-1,13
 199 46 199 46 261 46 c 0,0,1
450 238 m 0,14,15
 450 120 450 120 395.5 52.5 c 128,-1,16
 341 -15 341 -15 247 -15 c 128,-1,17
 153 -15 153 -15 101.5 44 c 128,-1,18
 50 103 50 103 50 210 c 0,19,20
 50 316 50 316 101.5 385 c 128,-1,21
 153 454 153 454 230 454 c 0,22,23
 296 454 296 454 353 409 c 1,24,25
 331 465 331 465 309.5 496.5 c 128,-1,26
 288 528 288 528 258 551 c 1,27,-1
 167 495 l 1,28,-1
 146 533 l 1,29,-1
 214 583 l 1,30,31
 178 603 178 603 115 623 c 1,32,-1
 128 666 l 1,33,34
 204 653 204 653 266 620 c 1,35,-1
 360 677 l 1,36,-1
 381 639 l 1,37,-1
 313 589 l 1,38,39
 379 536 379 536 414.5 444 c 128,-1,40
 450 352 450 352 450 238 c 0,14,15
EndSplineSet
EndChar

StartChar: exclam
Encoding: 33 33 237
Width: 260
Flags: MW
HStem: -16 21G 611 20G<185 185>
VStem: 87 89
LayerCount: 2
Fore
SplineSet
98 167 m 1,0,-1
 77 623 l 1,1,-1
 185 631 l 1,2,-1
 167 174 l 1,3,-1
 98 167 l 1,0,-1
60 54 m 1,4,5
 89 95 89 95 130 124 c 1,6,7
 173 94 173 94 200 54 c 1,8,9
 171 11 171 11 130 -16 c 1,10,11
 89 11 89 11 60 54 c 1,4,5
EndSplineSet
EndChar

StartChar: quotedbl
Encoding: 34 34 238
Width: 346
Flags: MW
HStem: 371 21G<65 65 207 207> 612 20G<154 154 296 296>
LayerCount: 2
Fore
SplineSet
207 371 m 1,0,-1
 192 624 l 1,1,-1
 296 632 l 1,2,-1
 250 374 l 1,3,-1
 207 371 l 1,0,-1
65 371 m 1,4,-1
 50 624 l 1,5,-1
 154 632 l 1,6,-1
 108 374 l 1,7,-1
 65 371 l 1,4,-1
EndSplineSet
EndChar

StartChar: numbersign
Encoding: 35 35 239
Width: 516
Flags: MW
HStem: 0 180<91 127 32 158 91 91 263 299 32 330 263 263> 111 69<32 113 17 127 194 285 32 180 366 447> 281 69<66 147 52 160 227 319 66 214 399 482> 281 196<52 253 52 253 214 253 186 319 214 214 386 386 386 425 186 482>
LayerCount: 2
Fore
SplineSet
330 0 m 1,0,-1
 263 0 l 1,1,-1
 285 111 l 1,2,-1
 180 111 l 1,3,-1
 158 0 l 1,4,-1
 91 0 l 1,5,-1
 113 111 l 1,6,-1
 17 111 l 1,7,-1
 32 180 l 1,8,-1
 127 180 l 1,9,-1
 147 281 l 1,10,-1
 52 281 l 1,11,-1
 66 350 l 1,12,-1
 160 350 l 1,13,-1
 186 477 l 1,14,-1
 253 477 l 1,15,-1
 227 350 l 1,16,-1
 332 350 l 1,17,-1
 358 477 l 1,18,-1
 425 477 l 1,19,-1
 399 350 l 1,20,-1
 496 350 l 1,21,-1
 482 281 l 1,22,-1
 386 281 l 1,23,-1
 366 180 l 1,24,-1
 462 180 l 1,25,-1
 447 111 l 1,26,-1
 352 111 l 1,27,-1
 330 0 l 1,0,-1
214 281 m 1,28,-1
 194 180 l 1,29,-1
 299 180 l 1,30,-1
 319 281 l 1,31,-1
 214 281 l 1,28,-1
EndSplineSet
EndChar

StartChar: dollar
Encoding: 36 36 240
Width: 516
Flags: MW
HStem: -99 21G<208 257 208 208> 608 20G<265 314 314 314>
VStem: 88 74<429 437> 227 48 361 73<108.5 131>
LayerCount: 2
Fore
SplineSet
82 14 m 1,0,-1
 112 107 l 1,1,2
 176 64 176 64 220 54 c 1,3,-1
 234 236 l 1,4,5
 153 272 153 272 120.5 308 c 128,-1,6
 88 344 88 344 88 397 c 0,7,8
 88 457 88 457 134 497.5 c 128,-1,9
 180 538 180 538 258 545 c 1,10,-1
 265 628 l 1,11,-1
 314 628 l 1,12,-1
 307 547 l 1,13,14
 366 542 366 542 411 522 c 1,15,-1
 385 433 l 1,16,17
 339 464 339 464 302 476 c 1,18,-1
 289 307 l 1,19,20
 372 270 372 270 403 237 c 128,-1,21
 434 204 434 204 434 151 c 0,22,23
 434 87 434 87 386.5 41.5 c 128,-1,24
 339 -4 339 -4 264 -13 c 1,25,-1
 257 -99 l 1,26,-1
 208 -99 l 1,27,-1
 214 -15 l 1,28,29
 149 -12 149 -12 82 14 c 1,0,-1
361 109 m 0,30,31
 361 172 361 172 282 214 c 1,32,-1
 269 49 l 1,33,34
 326 49 326 49 359 82 c 1,35,36
 361 104 361 104 361 109 c 0,30,31
162 457 m 1,37,38
 162 376 162 376 242 330 c 1,39,-1
 254 484 l 1,40,41
 213 484 213 484 162 457 c 1,37,38
EndSplineSet
EndChar

StartChar: percent
Encoding: 37 37 241
Width: 848
Flags: MW
HStem: -26 21G<309 309> -15 52<617.5 662.5 617.5 682.5> 216 52<182.5 227.5 182.5 247.5> 264 52<620 665> 495 52<185 230> 538 20G<539 539>
VStem: 67 70<343.5 416.5 343.5 430.5> 276 70<345.5 419> 502 70<112.5 185.5 112.5 199.5> 711 70<114.5 188>
LayerCount: 2
Fore
SplineSet
502 147 m 0,0,1
 502 226 502 226 540 271 c 128,-1,2
 578 316 578 316 644 316 c 0,3,4
 706 316 706 316 743.5 271.5 c 128,-1,5
 781 227 781 227 781 153 c 0,6,7
 781 75 781 75 743 30 c 128,-1,8
 705 -15 705 -15 638 -15 c 0,9,10
 576 -15 576 -15 539 29.5 c 128,-1,11
 502 74 502 74 502 147 c 0,0,1
67 378 m 0,12,13
 67 457 67 457 105 502 c 128,-1,14
 143 547 143 547 209 547 c 0,15,16
 271 547 271 547 308.5 502.5 c 128,-1,17
 346 458 346 458 346 384 c 0,18,19
 346 306 346 306 308 261 c 128,-1,20
 270 216 270 216 203 216 c 0,21,22
 141 216 141 216 104 260.5 c 128,-1,23
 67 305 67 305 67 378 c 0,12,13
309 -26 m 1,24,-1
 249 -2 l 1,25,-1
 539 558 l 1,26,-1
 599 534 l 1,27,-1
 309 -26 l 1,24,-1
137 379 m 0,28,29
 137 326 137 326 154.5 297 c 128,-1,30
 172 268 172 268 204 268 c 0,31,32
 276 268 276 268 276 383 c 0,33,34
 276 495 276 495 208 495 c 0,35,36
 137 495 137 495 137 379 c 0,28,29
572 148 m 0,37,38
 572 95 572 95 589.5 66 c 128,-1,39
 607 37 607 37 639 37 c 0,40,41
 711 37 711 37 711 152 c 0,42,43
 711 264 711 264 643 264 c 0,44,45
 572 264 572 264 572 148 c 0,37,38
EndSplineSet
EndChar

StartChar: exclamdown
Encoding: 161 161 242
Width: 260
Flags: MW
HStem: -193 21G<75 75> 434 20G
VStem: 84 88
LayerCount: 2
Fore
SplineSet
162 271 m 1,0,-1
 183 -185 l 1,1,-1
 75 -193 l 1,2,-1
 93 264 l 1,3,-1
 162 271 l 1,0,-1
200 384 m 1,4,5
 171 343 171 343 130 314 c 1,6,7
 87 344 87 344 60 384 c 1,8,9
 89 427 89 427 130 454 c 1,10,11
 171 427 171 427 200 384 c 1,4,5
EndSplineSet
EndChar

